<svg version="1.1" xmlns="http://www.w3.org/2000/svg" xmlns:xlink="http://www.w3.org/1999/xlink" width="730.40625" height="319"><defs/><g><text fill="#eeeeee" stroke="none" font-family="Arial" font-size="24px" font-style="normal" font-weight="normal" text-decoration="none" x="0" y="0">UNREGISTERED</text><text fill="#eeeeee" stroke="none" font-family="Arial" font-size="24px" font-style="normal" font-weight="normal" text-decoration="none" x="0" y="30">UNREGISTERED</text><text fill="#eeeeee" stroke="none" font-family="Arial" font-size="24px" font-style="normal" font-weight="normal" text-decoration="none" x="0" y="60">UNREGISTERED</text><text fill="#eeeeee" stroke="none" font-family="Arial" font-size="24px" font-style="normal" font-weight="normal" text-decoration="none" x="0" y="90">UNREGISTERED</text><text fill="#eeeeee" stroke="none" font-family="Arial" font-size="24px" font-style="normal" font-weight="normal" text-decoration="none" x="0" y="120">UNREGISTERED</text><text fill="#eeeeee" stroke="none" font-family="Arial" font-size="24px" font-style="normal" font-weight="normal" text-decoration="none" x="0" y="150">UNREGISTERED</text><text fill="#eeeeee" stroke="none" font-family="Arial" font-size="24px" font-style="normal" font-weight="normal" text-decoration="none" x="0" y="180">UNREGISTERED</text><text fill="#eeeeee" stroke="none" font-family="Arial" font-size="24px" font-style="normal" font-weight="normal" text-decoration="none" x="0" y="210">UNREGISTERED</text><text fill="#eeeeee" stroke="none" font-family="Arial" font-size="24px" font-style="normal" font-weight="normal" text-decoration="none" x="0" y="240">UNREGISTERED</text><text fill="#eeeeee" stroke="none" font-family="Arial" font-size="24px" font-style="normal" font-weight="normal" text-decoration="none" x="0" y="270">UNREGISTERED</text><text fill="#eeeeee" stroke="none" font-family="Arial" font-size="24px" font-style="normal" font-weight="normal" text-decoration="none" x="0" y="300">UNREGISTERED</text><text fill="#eeeeee" stroke="none" font-family="Arial" font-size="24px" font-style="normal" font-weight="normal" text-decoration="none" x="200" y="0">UNREGISTERED</text><text fill="#eeeeee" stroke="none" font-family="Arial" font-size="24px" font-style="normal" font-weight="normal" text-decoration="none" x="200" y="30">UNREGISTERED</text><text fill="#eeeeee" stroke="none" font-family="Arial" font-size="24px" font-style="normal" font-weight="normal" text-decoration="none" x="200" y="60">UNREGISTERED</text><text fill="#eeeeee" stroke="none" font-family="Arial" font-size="24px" font-style="normal" font-weight="normal" text-decoration="none" x="200" y="90">UNREGISTERED</text><text fill="#eeeeee" stroke="none" font-family="Arial" font-size="24px" font-style="normal" font-weight="normal" text-decoration="none" x="200" y="120">UNREGISTERED</text><text fill="#eeeeee" stroke="none" font-family="Arial" font-size="24px" font-style="normal" font-weight="normal" text-decoration="none" x="200" y="150">UNREGISTERED</text><text fill="#eeeeee" stroke="none" font-family="Arial" font-size="24px" font-style="normal" font-weight="normal" text-decoration="none" x="200" y="180">UNREGISTERED</text><text fill="#eeeeee" stroke="none" font-family="Arial" font-size="24px" font-style="normal" font-weight="normal" text-decoration="none" x="200" y="210">UNREGISTERED</text><text fill="#eeeeee" stroke="none" font-family="Arial" font-size="24px" font-style="normal" font-weight="normal" text-decoration="none" x="200" y="240">UNREGISTERED</text><text fill="#eeeeee" stroke="none" font-family="Arial" font-size="24px" font-style="normal" font-weight="normal" text-decoration="none" x="200" y="270">UNREGISTERED</text><text fill="#eeeeee" stroke="none" font-family="Arial" font-size="24px" font-style="normal" font-weight="normal" text-decoration="none" x="200" y="300">UNREGISTERED</text><text fill="#eeeeee" stroke="none" font-family="Arial" font-size="24px" font-style="normal" font-weight="normal" text-decoration="none" x="400" y="0">UNREGISTERED</text><text fill="#eeeeee" stroke="none" font-family="Arial" font-size="24px" font-style="normal" font-weight="normal" text-decoration="none" x="400" y="30">UNREGISTERED</text><text fill="#eeeeee" stroke="none" font-family="Arial" font-size="24px" font-style="normal" font-weight="normal" text-decoration="none" x="400" y="60">UNREGISTERED</text><text fill="#eeeeee" stroke="none" font-family="Arial" font-size="24px" font-style="normal" font-weight="normal" text-decoration="none" x="400" y="90">UNREGISTERED</text><text fill="#eeeeee" stroke="none" font-family="Arial" font-size="24px" font-style="normal" font-weight="normal" text-decoration="none" x="400" y="120">UNREGISTERED</text><text fill="#eeeeee" stroke="none" font-family="Arial" font-size="24px" font-style="normal" font-weight="normal" text-decoration="none" x="400" y="150">UNREGISTERED</text><text fill="#eeeeee" stroke="none" font-family="Arial" font-size="24px" font-style="normal" font-weight="normal" text-decoration="none" x="400" y="180">UNREGISTERED</text><text fill="#eeeeee" stroke="none" font-family="Arial" font-size="24px" font-style="normal" font-weight="normal" text-decoration="none" x="400" y="210">UNREGISTERED</text><text fill="#eeeeee" stroke="none" font-family="Arial" font-size="24px" font-style="normal" font-weight="normal" text-decoration="none" x="400" y="240">UNREGISTERED</text><text fill="#eeeeee" stroke="none" font-family="Arial" font-size="24px" font-style="normal" font-weight="normal" text-decoration="none" x="400" y="270">UNREGISTERED</text><text fill="#eeeeee" stroke="none" font-family="Arial" font-size="24px" font-style="normal" font-weight="normal" text-decoration="none" x="400" y="300">UNREGISTERED</text><text fill="#eeeeee" stroke="none" font-family="Arial" font-size="24px" font-style="normal" font-weight="normal" text-decoration="none" x="600" y="0">UNREGISTERED</text><text fill="#eeeeee" stroke="none" font-family="Arial" font-size="24px" font-style="normal" font-weight="normal" text-decoration="none" x="600" y="30">UNREGISTERED</text><text fill="#eeeeee" stroke="none" font-family="Arial" font-size="24px" font-style="normal" font-weight="normal" text-decoration="none" x="600" y="60">UNREGISTERED</text><text fill="#eeeeee" stroke="none" font-family="Arial" font-size="24px" font-style="normal" font-weight="normal" text-decoration="none" x="600" y="90">UNREGISTERED</text><text fill="#eeeeee" stroke="none" font-family="Arial" font-size="24px" font-style="normal" font-weight="normal" text-decoration="none" x="600" y="120">UNREGISTERED</text><text fill="#eeeeee" stroke="none" font-family="Arial" font-size="24px" font-style="normal" font-weight="normal" text-decoration="none" x="600" y="150">UNREGISTERED</text><text fill="#eeeeee" stroke="none" font-family="Arial" font-size="24px" font-style="normal" font-weight="normal" text-decoration="none" x="600" y="180">UNREGISTERED</text><text fill="#eeeeee" stroke="none" font-family="Arial" font-size="24px" font-style="normal" font-weight="normal" text-decoration="none" x="600" y="210">UNREGISTERED</text><text fill="#eeeeee" stroke="none" font-family="Arial" font-size="24px" font-style="normal" font-weight="normal" text-decoration="none" x="600" y="240">UNREGISTERED</text><text fill="#eeeeee" stroke="none" font-family="Arial" font-size="24px" font-style="normal" font-weight="normal" text-decoration="none" x="600" y="270">UNREGISTERED</text><text fill="#eeeeee" stroke="none" font-family="Arial" font-size="24px" font-style="normal" font-weight="normal" text-decoration="none" x="600" y="300">UNREGISTERED</text><g transform="translate(-334,-1102) scale(1,1)"><rect fill="#C0C0C0" stroke="none" x="351" y="1239" width="106.919921875" height="175" opacity="0.2"/></g><g transform="translate(-334,-1102) scale(1,1)"><rect fill="#ffffff" stroke="none" x="344" y="1232" width="106.919921875" height="175"/></g><g transform="translate(-334,-1102) scale(1,1)"><path fill="none" stroke="#000000" d="M 344 1232 L 450.919921875 1232 L 450.919921875 1407 L 344 1407 L 344 1232 Z Z" stroke-miterlimit="10"/></g><g transform="translate(-334,-1102) scale(1,1)"><path fill="none" stroke="#000000" d="M 344 1257 L 450.919921875 1257" stroke-miterlimit="10"/></g><g transform="translate(-334,-1102) scale(1,1)"><path fill="none" stroke="#000000" d="M 344 1310 L 450.919921875 1310" stroke-miterlimit="10"/></g><g transform="translate(-334,-1102) scale(1,1)"><g><path fill="none" stroke="none"/><text fill="#000000" stroke="none" font-family="Arial" font-size="13px" font-style="normal" font-weight="bold" text-decoration="none" x="379.035888671875" y="1251.5">Player</text></g></g><g transform="translate(-334,-1102) scale(1,1)"><g><path fill="none" stroke="none"/><text fill="#000000" stroke="none" font-family="Arial" font-size="13px" font-style="normal" font-weight="normal" text-decoration="none" x="349" y="1274.5">-betMoney</text></g></g><g transform="translate(-334,-1102) scale(1,1)"><g><path fill="none" stroke="none"/><text fill="#000000" stroke="none" font-family="Arial" font-size="13px" font-style="normal" font-weight="normal" text-decoration="none" x="349" y="1289.5">-remainMoney</text></g></g><g transform="translate(-334,-1102) scale(1,1)"><g><path fill="none" stroke="none"/><text fill="#000000" stroke="none" font-family="Arial" font-size="13px" font-style="normal" font-weight="normal" text-decoration="none" x="349" y="1304.5">-Cards</text></g></g><g transform="translate(-334,-1102) scale(1,1)"><g><path fill="none" stroke="none"/><text fill="#000000" stroke="none" font-family="Arial" font-size="13px" font-style="normal" font-weight="normal" text-decoration="none" x="349" y="1327.5">+start()</text></g></g><g transform="translate(-334,-1102) scale(1,1)"><g><path fill="none" stroke="none"/><text fill="#000000" stroke="none" font-family="Arial" font-size="13px" font-style="normal" font-weight="normal" text-decoration="none" x="349" y="1342.5">+double()</text></g></g><g transform="translate(-334,-1102) scale(1,1)"><g><path fill="none" stroke="none"/><text fill="#000000" stroke="none" font-family="Arial" font-size="13px" font-style="normal" font-weight="normal" text-decoration="none" x="349" y="1357.5">+insurance()</text></g></g><g transform="translate(-334,-1102) scale(1,1)"><g><path fill="none" stroke="none"/><text fill="#000000" stroke="none" font-family="Arial" font-size="13px" font-style="normal" font-weight="normal" text-decoration="none" x="349" y="1372.5">+devide()</text></g></g><g transform="translate(-334,-1102) scale(1,1)"><g><path fill="none" stroke="none"/><text fill="#000000" stroke="none" font-family="Arial" font-size="13px" font-style="normal" font-weight="normal" text-decoration="none" x="349" y="1387.5">+in()</text></g></g><g transform="translate(-334,-1102) scale(1,1)"><g><path fill="none" stroke="none"/><text fill="#000000" stroke="none" font-family="Arial" font-size="13px" font-style="normal" font-weight="normal" text-decoration="none" x="349" y="1402.5">+out()</text></g></g><g transform="translate(-334,-1102) scale(1,1)"><rect fill="#C0C0C0" stroke="none" x="351" y="1119" width="104" height="57" opacity="0.2"/></g><g transform="translate(-334,-1102) scale(1,1)"><rect fill="#ffffff" stroke="none" x="344" y="1112" width="104" height="57"/></g><g transform="translate(-334,-1102) scale(1,1)"><path fill="none" stroke="#000000" d="M 344 1112 L 448 1112 L 448 1169 L 344 1169 L 344 1112 Z Z" stroke-miterlimit="10"/></g><g transform="translate(-334,-1102) scale(1,1)"><path fill="none" stroke="#000000" d="M 344 1137 L 448 1137" stroke-miterlimit="10"/></g><g transform="translate(-334,-1102) scale(1,1)"><path fill="none" stroke="#000000" d="M 344 1147 L 448 1147" stroke-miterlimit="10"/></g><g transform="translate(-334,-1102) scale(1,1)"><g><path fill="none" stroke="none"/><text fill="#000000" stroke="none" font-family="Arial" font-size="13px" font-style="normal" font-weight="bold" text-decoration="none" x="375.405029296875" y="1131.5">Banker</text></g></g><g transform="translate(-334,-1102) scale(1,1)"><g><path fill="none" stroke="none"/><text fill="#000000" stroke="none" font-family="Arial" font-size="13px" font-style="normal" font-weight="normal" text-decoration="none" x="349" y="1164.5">+Black()</text></g></g><g transform="translate(-334,-1102) scale(1,1)"><rect fill="#C0C0C0" stroke="none" x="511" y="1119" width="105.32568359375" height="113" opacity="0.2"/></g><g transform="translate(-334,-1102) scale(1,1)"><rect fill="#ffffff" stroke="none" x="504" y="1112" width="105.32568359375" height="113"/></g><g transform="translate(-334,-1102) scale(1,1)"><path fill="none" stroke="#000000" d="M 504 1112 L 609.32568359375 1112 L 609.32568359375 1225 L 504 1225 L 504 1112 Z Z" stroke-miterlimit="10"/></g><g transform="translate(-334,-1102) scale(1,1)"><path fill="none" stroke="#000000" d="M 504 1150 L 609.32568359375 1150" stroke-miterlimit="10"/></g><g transform="translate(-334,-1102) scale(1,1)"><path fill="none" stroke="#000000" d="M 504 1173 L 609.32568359375 1173" stroke-miterlimit="10"/></g><g transform="translate(-334,-1102) scale(1,1)"><g><path fill="none" stroke="none"/><text fill="#000000" stroke="none" font-family="Arial" font-size="13px" font-style="normal" font-weight="normal" text-decoration="none" x="524.50244140625" y="1129.5">«interface»</text></g></g><g transform="translate(-334,-1102) scale(1,1)"><g><path fill="none" stroke="none"/><text fill="#000000" stroke="none" font-family="Arial" font-size="13px" font-style="normal" font-weight="bold" text-decoration="none" x="524.150146484375" y="1144.5">showCards</text></g></g><g transform="translate(-334,-1102) scale(1,1)"><g><path fill="none" stroke="none"/><text fill="#000000" stroke="none" font-family="Arial" font-size="13px" font-style="normal" font-weight="normal" text-decoration="none" x="509" y="1167.5">-playerType</text></g></g><g transform="translate(-334,-1102) scale(1,1)"><g><path fill="none" stroke="none"/><text fill="#000000" stroke="none" font-family="Arial" font-size="13px" font-style="normal" font-weight="normal" text-decoration="none" x="509" y="1190.5">+getType()</text></g></g><g transform="translate(-334,-1102) scale(1,1)"><g><path fill="none" stroke="none"/><text fill="#000000" stroke="none" font-family="Arial" font-size="13px" font-style="normal" font-weight="normal" text-decoration="none" x="509" y="1205.5">+bankerShow()</text></g></g><g transform="translate(-334,-1102) scale(1,1)"><g><path fill="none" stroke="none"/><text fill="#000000" stroke="none" font-family="Arial" font-size="13px" font-style="normal" font-weight="normal" text-decoration="none" x="509" y="1220.5">+playerShow()</text></g></g><g transform="translate(-334,-1102) scale(1,1)"><rect fill="#C0C0C0" stroke="none" x="511" y="1303" width="138.67626953125" height="115" opacity="0.2"/></g><g transform="translate(-334,-1102) scale(1,1)"><rect fill="#ffffff" stroke="none" x="504" y="1296" width="138.67626953125" height="115"/></g><g transform="translate(-334,-1102) scale(1,1)"><path fill="none" stroke="#000000" d="M 504 1296 L 642.67626953125 1296 L 642.67626953125 1411 L 504 1411 L 504 1296 Z Z" stroke-miterlimit="10"/></g><g transform="translate(-334,-1102) scale(1,1)"><path fill="none" stroke="#000000" d="M 504 1321 L 642.67626953125 1321" stroke-miterlimit="10"/></g><g transform="translate(-334,-1102) scale(1,1)"><path fill="none" stroke="#000000" d="M 504 1344 L 642.67626953125 1344" stroke-miterlimit="10"/></g><g transform="translate(-334,-1102) scale(1,1)"><g><path fill="none" stroke="none"/><text fill="#000000" stroke="none" font-family="Arial" font-size="13px" font-style="normal" font-weight="bold" text-decoration="none" x="558.522705078125" y="1315.5">Point</text></g></g><g transform="translate(-334,-1102) scale(1,1)"><g><path fill="none" stroke="none"/><text fill="#000000" stroke="none" font-family="Arial" font-size="13px" font-style="normal" font-weight="normal" text-decoration="none" x="509" y="1338.5">-result</text></g></g><g transform="translate(-334,-1102) scale(1,1)"><g><path fill="none" stroke="none"/><text fill="#000000" stroke="none" font-family="Arial" font-size="13px" font-style="normal" font-weight="normal" text-decoration="none" x="509" y="1361.5">+getCardsContent()</text></g></g><g transform="translate(-334,-1102) scale(1,1)"><g><path fill="none" stroke="none"/><text fill="#000000" stroke="none" font-family="Arial" font-size="13px" font-style="normal" font-weight="normal" text-decoration="none" x="509" y="1376.5">+compareWithPlayer()</text></g></g><g transform="translate(-334,-1102) scale(1,1)"><g><path fill="none" stroke="none"/><text fill="#000000" stroke="none" font-family="Arial" font-size="13px" font-style="normal" font-weight="normal" text-decoration="none" x="509" y="1391.5">+compareWith21()</text></g></g><g transform="translate(-334,-1102) scale(1,1)"><g><path fill="none" stroke="none"/><text fill="#000000" stroke="none" font-family="Arial" font-size="13px" font-style="normal" font-weight="normal" text-decoration="none" x="509" y="1406.5">+getResult()</text></g></g><g transform="translate(-334,-1102) scale(1,1)"><rect fill="#C0C0C0" stroke="none" x="935" y="1119" width="126.40625" height="145" opacity="0.2"/></g><g transform="translate(-334,-1102) scale(1,1)"><rect fill="#ffffff" stroke="none" x="928" y="1112" width="126.40625" height="145"/></g><g transform="translate(-334,-1102) scale(1,1)"><path fill="none" stroke="#000000" d="M 928 1112 L 1054.40625 1112 L 1054.40625 1257 L 928 1257 L 928 1112 Z Z" stroke-miterlimit="10"/></g><g transform="translate(-334,-1102) scale(1,1)"><path fill="none" stroke="#000000" d="M 928 1137 L 1054.40625 1137" stroke-miterlimit="10"/></g><g transform="translate(-334,-1102) scale(1,1)"><path fill="none" stroke="#000000" d="M 928 1190 L 1054.40625 1190" stroke-miterlimit="10"/></g><g transform="translate(-334,-1102) scale(1,1)"><g><path fill="none" stroke="none"/><text fill="#000000" stroke="none" font-family="Arial" font-size="13px" font-style="normal" font-weight="bold" text-decoration="none" x="972.05859375" y="1131.5">Server</text></g></g><g transform="translate(-334,-1102) scale(1,1)"><g><path fill="none" stroke="none"/><text fill="#000000" stroke="none" font-family="Arial" font-size="13px" font-style="normal" font-weight="normal" text-decoration="none" x="933" y="1154.5">-outCardLog</text></g></g><g transform="translate(-334,-1102) scale(1,1)"><g><path fill="none" stroke="none"/><text fill="#000000" stroke="none" font-family="Arial" font-size="13px" font-style="normal" font-weight="normal" text-decoration="none" x="933" y="1169.5">-playerState</text></g></g><g transform="translate(-334,-1102) scale(1,1)"><g><path fill="none" stroke="none"/><text fill="#000000" stroke="none" font-family="Arial" font-size="13px" font-style="normal" font-weight="normal" text-decoration="none" x="933" y="1184.5">-rate</text></g></g><g transform="translate(-334,-1102) scale(1,1)"><g><path fill="none" stroke="none"/><text fill="#000000" stroke="none" font-family="Arial" font-size="13px" font-style="normal" font-weight="normal" text-decoration="none" x="933" y="1207.5">+outCard()</text></g></g><g transform="translate(-334,-1102) scale(1,1)"><g><path fill="none" stroke="none"/><text fill="#000000" stroke="none" font-family="Arial" font-size="13px" font-style="normal" font-weight="normal" text-decoration="none" x="933" y="1222.5">+getBetMoney()</text></g></g><g transform="translate(-334,-1102) scale(1,1)"><g><path fill="none" stroke="none"/><text fill="#000000" stroke="none" font-family="Arial" font-size="13px" font-style="normal" font-weight="normal" text-decoration="none" x="933" y="1237.5">+setRemainMoney()</text></g></g><g transform="translate(-334,-1102) scale(1,1)"><g><path fill="none" stroke="none"/><text fill="#000000" stroke="none" font-family="Arial" font-size="13px" font-style="normal" font-weight="normal" text-decoration="none" x="933" y="1252.5">+setInfo()</text></g></g><g transform="translate(-334,-1102) scale(1,1)"><rect fill="#C0C0C0" stroke="none" x="671" y="1303" width="131.47802734375" height="102" opacity="0.2"/></g><g transform="translate(-334,-1102) scale(1,1)"><rect fill="#ffffff" stroke="none" x="664" y="1296" width="131.47802734375" height="102"/></g><g transform="translate(-334,-1102) scale(1,1)"><path fill="none" stroke="#000000" d="M 664 1296 L 795.47802734375 1296 L 795.47802734375 1398 L 664 1398 L 664 1296 Z Z" stroke-miterlimit="10"/></g><g transform="translate(-334,-1102) scale(1,1)"><path fill="none" stroke="#000000" d="M 664 1321 L 795.47802734375 1321" stroke-miterlimit="10"/></g><g transform="translate(-334,-1102) scale(1,1)"><path fill="none" stroke="#000000" d="M 664 1331 L 795.47802734375 1331" stroke-miterlimit="10"/></g><g transform="translate(-334,-1102) scale(1,1)"><g><path fill="none" stroke="none"/><text fill="#000000" stroke="none" font-family="Arial" font-size="13px" font-style="normal" font-weight="bold" text-decoration="none" x="723.239013671875" y="1315.5">UI</text></g></g><g transform="translate(-334,-1102) scale(1,1)"><g><path fill="none" stroke="none"/><text fill="#000000" stroke="none" font-family="Arial" font-size="13px" font-style="normal" font-weight="normal" text-decoration="none" x="669" y="1348.5">+showCards()</text></g></g><g transform="translate(-334,-1102) scale(1,1)"><g><path fill="none" stroke="none"/><text fill="#000000" stroke="none" font-family="Arial" font-size="13px" font-style="normal" font-weight="normal" text-decoration="none" x="669" y="1363.5">+showBackground()</text></g></g><g transform="translate(-334,-1102) scale(1,1)"><g><path fill="none" stroke="none"/><text fill="#000000" stroke="none" font-family="Arial" font-size="13px" font-style="normal" font-weight="normal" text-decoration="none" x="669" y="1378.5">+showButton()</text></g></g><g transform="translate(-334,-1102) scale(1,1)"><g><path fill="none" stroke="none"/><text fill="#000000" stroke="none" font-family="Arial" font-size="13px" font-style="normal" font-weight="normal" text-decoration="none" x="669" y="1393.5">+showHints()</text></g></g><g transform="translate(-334,-1102) scale(1,1)"><rect fill="#C0C0C0" stroke="none" x="655" y="1119" width="131.32568359375" height="145" opacity="0.2"/></g><g transform="translate(-334,-1102) scale(1,1)"><rect fill="#ffffff" stroke="none" x="648" y="1112" width="131.32568359375" height="145"/></g><g transform="translate(-334,-1102) scale(1,1)"><path fill="none" stroke="#000000" d="M 648 1112 L 779.32568359375 1112 L 779.32568359375 1257 L 648 1257 L 648 1112 Z Z" stroke-miterlimit="10"/></g><g transform="translate(-334,-1102) scale(1,1)"><path fill="none" stroke="#000000" d="M 648 1137 L 779.32568359375 1137" stroke-miterlimit="10"/></g><g transform="translate(-334,-1102) scale(1,1)"><path fill="none" stroke="#000000" d="M 648 1190 L 779.32568359375 1190" stroke-miterlimit="10"/></g><g transform="translate(-334,-1102) scale(1,1)"><g><path fill="none" stroke="none"/><text fill="#000000" stroke="none" font-family="Arial" font-size="13px" font-style="normal" font-weight="bold" text-decoration="none" x="691.991943359375" y="1131.5">System</text></g></g><g transform="translate(-334,-1102) scale(1,1)"><g><path fill="none" stroke="none"/><text fill="#000000" stroke="none" font-family="Arial" font-size="13px" font-style="normal" font-weight="normal" text-decoration="none" x="653" y="1154.5">-terminalIformation</text></g></g><g transform="translate(-334,-1102) scale(1,1)"><g><path fill="none" stroke="none"/><text fill="#000000" stroke="none" font-family="Arial" font-size="13px" font-style="normal" font-weight="normal" text-decoration="none" x="653" y="1169.5">-timestamp</text></g></g><g transform="translate(-334,-1102) scale(1,1)"><g><path fill="none" stroke="none"/><text fill="#000000" stroke="none" font-family="Arial" font-size="13px" font-style="normal" font-weight="normal" text-decoration="none" x="653" y="1184.5">-logs</text></g></g><g transform="translate(-334,-1102) scale(1,1)"><g><path fill="none" stroke="none"/><text fill="#000000" stroke="none" font-family="Arial" font-size="13px" font-style="normal" font-weight="normal" text-decoration="none" x="653" y="1207.5">+control()</text></g></g><g transform="translate(-334,-1102) scale(1,1)"><g><path fill="none" stroke="none"/><text fill="#000000" stroke="none" font-family="Arial" font-size="13px" font-style="normal" font-weight="normal" text-decoration="none" x="653" y="1222.5">+sendInfo()</text></g></g><g transform="translate(-334,-1102) scale(1,1)"><g><path fill="none" stroke="none"/><text fill="#000000" stroke="none" font-family="Arial" font-size="13px" font-style="normal" font-weight="normal" text-decoration="none" x="653" y="1237.5">+acceptInfo()</text></g></g><g transform="translate(-334,-1102) scale(1,1)"><g><path fill="none" stroke="none"/><text fill="#000000" stroke="none" font-family="Arial" font-size="13px" font-style="normal" font-weight="normal" text-decoration="none" x="653" y="1252.5">+writeLog()</text></g></g><g transform="translate(-334,-1102) scale(1,1)"><rect fill="#C0C0C0" stroke="none" x="807" y="1119" width="105.32568359375" height="87" opacity="0.2"/></g><g transform="translate(-334,-1102) scale(1,1)"><rect fill="#ffffff" stroke="none" x="800" y="1112" width="105.32568359375" height="87"/></g><g transform="translate(-334,-1102) scale(1,1)"><path fill="none" stroke="#000000" d="M 800 1112 L 905.32568359375 1112 L 905.32568359375 1199 L 800 1199 L 800 1112 Z Z" stroke-miterlimit="10"/></g><g transform="translate(-334,-1102) scale(1,1)"><path fill="none" stroke="#000000" d="M 800 1137 L 905.32568359375 1137" stroke-miterlimit="10"/></g><g transform="translate(-334,-1102) scale(1,1)"><path fill="none" stroke="#000000" d="M 800 1147 L 905.32568359375 1147" stroke-miterlimit="10"/></g><g transform="translate(-334,-1102) scale(1,1)"><g><path fill="none" stroke="none"/><text fill="#000000" stroke="none" font-family="Arial" font-size="13px" font-style="normal" font-weight="bold" text-decoration="none" x="829.538330078125" y="1131.5">outCard</text></g></g><g transform="translate(-334,-1102) scale(1,1)"><g><path fill="none" stroke="none"/><text fill="#000000" stroke="none" font-family="Arial" font-size="13px" font-style="normal" font-weight="normal" text-decoration="none" x="805" y="1164.5">+randomGet()</text></g></g><g transform="translate(-334,-1102) scale(1,1)"><g><path fill="none" stroke="none"/><text fill="#000000" stroke="none" font-family="Arial" font-size="13px" font-style="normal" font-weight="normal" text-decoration="none" x="805" y="1179.5">+getCurPlayer()</text></g></g><g transform="translate(-334,-1102) scale(1,1)"><g><path fill="none" stroke="none"/><text fill="#000000" stroke="none" font-family="Arial" font-size="13px" font-style="normal" font-weight="normal" text-decoration="none" x="805" y="1194.5">+addCard()</text></g></g><g transform="translate(-334,-1102) scale(1,1)"><path fill="none" stroke="#000000" d="M 449 1149 L 503 1159" stroke-miterlimit="10" stroke-dasharray="3"/></g><g transform="translate(-334,-1102) scale(1,1)"><path fill="#FFFFFF" stroke="none" d="M 481.4814334321458 1163.57725822571 L 503 1159 L 484.5474653278148 1147.0206859890975"/></g><g transform="translate(-334,-1102) scale(1,1)"><path fill="none" stroke="#000000" d="M 481.4814334321458 1163.57725822571 L 503 1159 L 484.5474653278148 1147.0206859890975 L 481.4814334321458 1163.57725822571" stroke-miterlimit="10"/></g><g transform="translate(-334,-1102) scale(1,1)"><path fill="none" stroke="#000000" d="M 503 1339 L 452 1330" stroke-miterlimit="10" stroke-dasharray="3"/></g><g transform="translate(-334,-1102) scale(1,1)"><path fill="none" stroke="#000000" d="M 462.739587562226 1327.6206599668647 L 452 1330 L 461.2764826645754 1335.911587720218" stroke-miterlimit="10"/></g><g transform="translate(-334,-1102) scale(1,1)"><path fill="none" stroke="#000000" d="M 621 1295 L 652 1258" stroke-miterlimit="10" stroke-dasharray="3"/></g><g transform="translate(-334,-1102) scale(1,1)"><path fill="none" stroke="#000000" d="M 648.7000099250602 1268.4933343368682 L 652 1258 L 642.2466467733045 1263.086462507019" stroke-miterlimit="10"/></g><g transform="translate(-334,-1102) scale(1,1)"><path fill="none" stroke="#000000" d="M 724 1295 L 720 1258" stroke-miterlimit="10" stroke-dasharray="3"/></g><g transform="translate(-334,-1102) scale(1,1)"><path fill="none" stroke="#000000" d="M 725.2774352431895 1267.6513562390962 L 720 1258 L 716.9071708034202 1268.5562496920443" stroke-miterlimit="10"/></g><g transform="translate(-334,-1102) scale(1,1)"><path fill="none" stroke="#000000" d="M 799 1166 L 780 1170" stroke-miterlimit="10" stroke-dasharray="3"/></g><g transform="translate(-334,-1102) scale(1,1)"><path fill="none" stroke="#000000" d="M 789.0774785189136 1163.7871597687804 L 780 1170 L 790.811888074723 1172.0256051588751" stroke-miterlimit="10"/></g><g transform="translate(-334,-1102) scale(1,1)"><path fill="none" stroke="#000000" d="M 906 1166 L 927 1171" stroke-miterlimit="10" stroke-dasharray="3"/></g><g transform="translate(-334,-1102) scale(1,1)"><path fill="none" stroke="#000000" d="M 916.138676018324 1172.741160924518 L 927 1171 L 918.088697463029 1164.5510708567565" stroke-miterlimit="10"/></g><g transform="translate(-334,-1102) scale(1,1)"><path fill="none" stroke="#000000" d="M 396 1170 L 397 1231" stroke-miterlimit="10"/></g><g transform="translate(-334,-1102) scale(1,1)"><path fill="#FFFFFF" stroke="none" d="M 388.2489378565532 1210.8153793357037 L 397 1231 L 405.0847467631859 1210.539382468382"/></g><g transform="translate(-334,-1102) scale(1,1)"><path fill="none" stroke="#000000" d="M 388.2489378565532 1210.8153793357037 L 397 1231 L 405.0847467631859 1210.539382468382 L 388.2489378565532 1210.8153793357037" stroke-miterlimit="10"/></g></g></svg>