<?xml version="1.0" encoding="utf-8"?>
<svg version="1.1" xmlns:xlink="http://www.w3.org/1999/xlink" width="25px" height="11px" xmlns="http://www.w3.org/2000/svg">
  <defs>
    <mask fill="white" id="clip33">
      <path d="M 5.21049896049893 0.710416666665777  C 4.76004851004935 0.236805555556  4.15367290367309 0  3.39137214137205 0  C 2.7330214830215 0  2.18728343728382 0.162962962962815  1.75415800415711 0.488888888888444  C 1.3210325710323 0.814814814814074  0.974532224531307 1.24768518518593  0.714656964656039 1.78749999999956  C 0.454781704780771 2.32731481481541  0.270703395703246 2.94606481481585  0.162422037421569 3.64375000000089  C 0.0541406791398913 4.34143518518593  0 5.06203703703674  0 5.80555555555556  C 0 6.37592592592652  0.0368156618151261 6.96666666666756  0.110446985447273 7.57777777777867  C 0.184078309077525 8.18888888888978  0.333506583507415 8.74907407407348  0.558731808731257 9.25833333333422  C 0.783957033956995 9.76759259259274  1.10446985446894 10.1851851851859  1.52027027027088 10.5111111111116  C 1.93607068607093 10.8370370370372  2.48613998613981 11  3.17047817047751 11  C 3.75086625086662 11  4.23813236313322 10.8854166666667  4.63227650727731 10.65625  C 5.0264206514214 10.4270833333333  5.34260221760216 10.1368055555564  5.58082120582147 9.78541666666711  C 5.81904019404078 9.43402777777778  5.99012474012473 9.044444444444  6.09407484407522 8.61666666666578  C 6.1980249480257 8.18888888888978  6.25 7.776388888888  6.25 7.37916666666711  C 6.25 6.88009259259363  6.18503118503213 6.41666666666667  6.0550935550945 5.98888888888844  C 5.92515592515686 5.56111111111022  5.74107761607744 5.18935185185081  5.50285862785813 4.87361111111022  C 5.26463963963882 4.55787037036963  4.97011434511402 4.31087962962859  4.61928274428184 4.13263888888933  C 4.26845114345156 3.95439814814785  3.87214137214187 3.86527777777822  3.43035343035278 3.86527777777822  C 2.92792792792701 3.86527777777822  2.48397435897421 3.97731481481585  2.0984927234925 4.20138888888889  C 1.71301108801079 4.42546296296192  1.39033264033325 4.7870370370363  1.13045738045798 5.286111111112  C 1.13911988912226 4.86851851852104  1.14778239778275 4.38981481481541  1.20841995841943 3.911111111112  C 1.269057519058 3.43240740740637  1.37950450450527 2.986805555556  1.53976091476125 2.57430555555645  C 1.70001732501722 2.16180555555467  1.92307692307736 1.82060185185259  2.20893970893978 1.55069444444356  C 2.49480249480219 1.28078703703674  2.87162162162152 1.14583333333333  3.33939708939776 1.14583333333333  C 3.78118503118496 1.14583333333333  4.13634788634833 1.29351851851748  4.40488565488598 1.588888888888  C 4.67342342342363 1.88425925925852  4.8336798336796 2.276388888888  4.88565488565579 2.76527777777867  C 4.88565488565579 2.76527777777867  5.99012474012473 2.76527777777867  5.99012474012473 2.76527777777867  C 5.92082467082378 1.86898148148207  5.66094941094851 1.18402777777778  5.21049896049893 0.710416666665777  Z M 11.4933473389347 6.745138888888  C 11.8785014005596 6.47523148148119  12.17612044818 6.11111111111111  12.3862044817921 5.65277777777778  C 12.3511904761907 7.06851851851792  12.1892507002807 8.15069444444533  11.8478641456591 8.83819444444533  C 11.5064775910355 9.52569444444533  10.9943977591039 9.86944444444533  10.3116246498606 9.86944444444533  C 9.86519607843093 9.86944444444533  9.48004201680608 9.72685185185259  9.15616246498606 9.44166666666711  C 8.83228291316603 9.15648148148163  8.64845938375349 8.74907407407348  8.60469187675032 8.21944444444489  C 8.60469187675032 8.21944444444489  7.48862044817997 8.21944444444489  7.48862044817997 8.21944444444489  C 7.55864845938466 9.15648148148163  7.85189075630228 9.85416666666667  8.36834733893473 10.3125  C 8.88480392156907 10.7708333333333  9.53256302521102 11  10.3116246498606 11  C 11.4408263305317 11  12.261467086834 10.4983796296286  12.7735469187674 9.495138888888  C 13.2856267507009 8.49189814814741  13.5416666666667 7.05324074074148  13.5416666666667 5.17916666666578  C 13.5416666666667 4.1504629629637  13.4563200280108 3.30254629629659  13.2856267507009 2.63541666666667  C 13.1149334733891 1.96828703703674  12.8851540616248 1.44120370370385  12.5962885154062 1.05416666666578  C 12.3074229691876 0.667129629629926  11.9704131652668 0.394675925925185  11.5852591036419 0.236805555556  C 11.2001050420171 0.0789351851845923  10.7886904761907 0  10.3510154061629 0  C 9.90458683473321 0  9.49317226890685 0.0865740740739259  9.11677170868377 0.259722222221778  C 8.74037114845881 0.432870370369629  8.41649159663878 0.67476851851926  8.1451330532218 0.985416666666222  C 7.87377450980481 1.29606481481541  7.66369047619075 1.66782407407482  7.51488095238149 2.10069444444444  C 7.36607142857224 2.53356481481407  7.29166666666667 3.00972222222178  7.29166666666667 3.52916666666756  C 7.29166666666667 4.05879629629615  7.35512955182003 4.54768518518459  7.48205532212864 4.99583333333289  C 7.60898109243726 5.44398148148119  7.7971813725488 5.82592592592563  8.04665616246514 6.14166666666622  C 8.29613095238149 6.45740740740681  8.60469187675032 6.70439814814785  8.97233893557351 6.88263888888933  C 9.3399859943986 7.06087962962859  9.76015406162484 7.15000000000044  10.2328431372541 7.15000000000044  C 10.6880252100837 7.15000000000044  11.1081932773118 7.01504629629704  11.4933473389347 6.745138888888  Z M 20.9433229813669 9.16666666666667  C 21.0166494133887 9.53333333333245  21.1352657004833 9.85162037037096  21.2991718426508 10.1215277777778  C 21.4630779848164 10.3914351851846  21.6787439613521 10.6053240740748  21.946169772256 10.763194444444  C 22.2135955831599 10.9210648148154  22.5414078674949 11  22.9296066252592 11  C 23.3091787439605 11  23.6283643892345 10.9159722222218  23.8871635610773 10.7479166666676  C 24.1459627329201 10.5798611111111  24.3594720496901 10.3557870370381  24.5276915113872 10.075694444444  C 24.6959109730843 9.79560185185215  24.8166839199447 9.46967592592652  24.8900103519664 9.09791666666711  C 24.9633367839882 8.7261574074077  25 8.34166666666756  25 7.94444444444444  C 25 7.52685185185126  24.9676501035196 7.13217592592607  24.9029503105589 6.76041666666667  C 24.8382505175982 6.38865740740726  24.7261042098008 6.06527777777733  24.5665113871629 5.79027777777689  C 24.4069185645268 5.51527777777867  24.1955659075226 5.29629629629704  23.9324534161483 5.13333333333422  C 23.6693409247759 4.97037037037141  23.3350586611455 4.88888888888889  22.9296066252592 4.88888888888889  C 22.5327812284339 4.88888888888889  22.2006556245693 4.97291666666711  21.9332298136654 5.14097222222133  C 21.6658040027596 5.30902777777778  21.4501380262258 5.53564814814874  21.2862318840583 5.82083333333422  C 21.1223257418908 6.10601851851748  21.0058661145619 6.43449074074104  20.9368530020697 6.80625000000044  C 20.8678398895794 7.17800925925985  20.8333333333333 7.57268518518504  20.8333333333333 7.99027777777822  C 20.8333333333333 8.40787037037141  20.8699965493452 8.80000000000089  20.9433229813669 9.16666666666667  Z M 14.6868530020697 1.91257966195553  C 14.6178398895794 2.28341184076797  14.5833333333333 2.67710353745355  14.5833333333333 3.09365475200785  C 14.5833333333333 3.51020596656437  14.6199965493452 3.90135771682011  14.6933229813669 4.2671100027706  C 14.7666494133887 4.63286228872332  14.8852657004833 4.95289553892973  15.0491718426508 5.22720975339426  C 15.2130779848164 5.5015239678588  15.4287439613521 5.71741941442775  15.696169772256 5.87489609310109  C 15.9635955831599 6.03237277177444  16.2914078674949 6.11111111111111  16.6796066252592 6.11111111111111  C 17.0591787439605 6.11111111111111  17.3783643892345 6.02475293248264  17.6371635610773 5.85203657522794  C 17.8959627329201 5.67932021797323  18.1094720496901 5.45326498568486  18.2776915113872 5.1738708783606  C 18.4459109730843 4.89447677103635  18.5666839199447 4.56936362796801  18.6400103519664 4.19853144915558  C 18.7133367839882 3.82769927034315  18.75 3.44416735937921  18.75 3.04793571626599  C 18.75 2.63138450170946  18.7176501035196 2.23769280502388  18.6529503105589 1.86686062621144  C 18.5882505175982 1.49602844739901  18.4761042098008 1.17345525076275  18.3165113871629 0.89914103629821  C 18.1569185645268 0.624826821833671  17.9455659075226 0.406391428834872  17.6824534161483 0.243834857301812  C 17.4193409247759 0.0812782857665297  17.0850586611455 0  16.6796066252592 0  C 16.2827812284339 0  15.9506556245693 0.0838182321963864  15.6832298136654 0.251454696591382  C 15.4158040027596 0.419091160986379  15.2001380262258 0.645146393276971  15.0362318840583 0.929620393460937  C 14.8723257418908 1.2140943936449  14.7558661145619 1.5417474831431  14.6868530020697 1.91257966195553  Z M 21.921816479401 0  L 15.625 11  L 16.6315543071164 11  L 22.9166666666667 0  L 21.921816479401 0  Z M 1.94683908046045 5.08106219427059  C 2.14080459770116 4.95294665734946  2.36709770114961 4.88888888888889  2.62571839080389 4.88888888888889  C 2.88433908046007 4.88888888888889  3.11063218390852 4.9555089680885  3.30459770114923 5.08874912648551  C 3.49856321838994 5.22198928488251  3.66020114942482 5.39878872583217  3.78951149425196 5.6191474493367  C 3.918821839081 5.83950617283901  4.01400862068992 6.10086186815715  4.07507183908062 6.4032145352889  C 4.13613505747132 6.70556720242287  4.16666666666667 7.02585604472349  4.16666666666667 7.36408106219521  C 4.16666666666667 7.68180759375678  4.13254310344845 7.98672257162758  4.064295977012 8.27882599580759  C 3.99604885057556 8.57092941998538  3.89727011494188 8.82972280456448  3.76795977011473 9.05520614954488  C 3.63864942528759 9.28068949452528  3.4788074712651 9.45748893547716  3.28843390804536 9.58560447239607  C 3.09806034482752 9.71372000931721  2.87715517241433 9.77777777777778  2.62571839080389 9.77777777777778  C 2.37428160919535 9.77777777777778  2.14978448275929 9.71372000931721  1.95222701149381 9.58560447239607  C 1.75466954023022 9.45748893547716  1.58943965517248 9.28581411600337  1.45653735632247 9.07058001397693  C 1.32363505747056 8.85534591195048  1.2212643678159 8.59911483810821  1.14942528735658 8.30188679245233  C 1.07758620689727 8.00465874679645  1.04166666666667 7.68693221523487  1.04166666666667 7.34870719776316  C 1.04166666666667 7.01048218029367  1.07579022988489 6.69019333799305  1.14403735632133 6.38784067085908  C 1.21228448275777 6.08548800372733  1.31465517241433 5.82413230840919  1.45114942528721 5.60377358490465  C 1.5876436781601 5.38341486140234  1.75287356321784 5.20917773118951  1.94683908046045 5.08106219427059  Z M 10.5482456140351 1.42208245981884  C 10.7456140350886 1.55532261821584  10.9119152046787 1.73724668064359  11.0471491228073 1.96785464709986  C 11.1823830409359 2.19846261355613  11.2847222222229 2.46238061961331  11.3541666666663 2.7596086652692  C 11.4236111111116 3.05683671092508  11.4583333333333 3.37456324248888  11.4583333333333 3.71278825995836  C 11.4583333333333 4.03051479152216  11.4217836257315 4.33542976939296  11.348684210526 4.62753319357075  C 11.2755847953224 4.91963661775076  11.1695906432753 5.17586769159081  11.0307017543865 5.39622641509535  C 10.8918128654977 5.61658513859766  10.7236842105256 5.79082226881049  10.526315789474 5.9189378057294  C 10.3289473684204 6.04705334265054  10.1096491228077 6.11111111111111  9.86842105263198 6.11111111111111  C 9.64181286549698 6.11111111111111  9.43530701754298 6.04705334265054  9.24890350877187 5.9189378057294  C 9.06250000000076 5.79082226881049  8.90168128654902 5.6191474493367  8.76644736842043 5.40391334731026  C 8.63121345029185 5.18867924528382  8.52521929824472 4.9426974143955  8.44846491228092 4.66596785464753  C 8.37171052631523 4.38923829489957  8.33333333333333 4.10225949219764  8.33333333333333 3.80503144654176  C 8.33333333333333 3.46680642907005  8.36074561403469 3.14395527603038  8.4155701754393 2.83647798742054  C 8.47039473684201 2.52900069881293  8.55811403508824 2.25483344980178  8.6787280701761 2.01397624039156  C 8.79934210526396 1.77311903098133  8.95650584795362 1.58094572559963  9.15021929824509 1.43745632424867  C 9.34393274853846 1.2939669228977  9.57967836257391 1.22222222222222  9.85745614035143 1.22222222222222  C 10.1206140350882 1.22222222222222  10.3508771929815 1.28884230142184  10.5482456140351 1.42208245981884  Z M 23.7705910852715 9.154066437572  C 23.6938791989663 9.33466972126735  23.5868863049101 9.48377243222603  23.4496124031011 9.60137457044584  C 23.3123385012921 9.71897670866787  23.1266149870805 9.77777777777778  22.8924418604644 9.77777777777778  C 22.6663436692509 9.77777777777778  22.4866763565899 9.71687667048395  22.3534399224813 9.59507445589851  C 22.2202034883727 9.47327224131307  22.117248062015 9.32206949217268  22.0445736434101 9.14146620847734  C 21.9718992248071 8.96086292477978  21.9254683462528 8.76345933562415  21.9052810077528 8.54925544100822  C 21.8850936692509 8.3350515463923  21.875 8.13554791905274  21.875 7.95074455899177  C 21.875 7.75754104620177  21.8871124031011 7.55383734249659  21.9113372093015 7.33963344788066  C 21.9355620155037 7.12542955326474  21.9860303617565 6.92802596410911  22.0627422480618 6.74742268041155  C 22.139454134367 6.5668193967162  22.2464470284232 6.41561664757582  22.3837209302322 6.29381443299038  C 22.5209948320412 6.17201221840494  22.7026808785524 6.11111111111111  22.9287790697678 6.11111111111111  C 23.162952196382 6.11111111111111  23.3466569767434 6.17201221840494  23.4798934108521 6.29381443299038  C 23.6131298449607 6.41561664757582  23.7160852713184 6.5668193967162  23.7887596899232 6.74742268041155  C 23.8614341085262 6.92802596410911  23.9078649870805 7.12542955326474  23.9280523255805 7.33963344788066  C 23.9482396640824 7.55383734249659  23.9583333333333 7.75334096983614  23.9583333333333 7.93814432989711  C 23.9583333333333 8.13134784268712  23.9462209302322 8.33715158457401  23.9219961240318 8.55555555555556  C 23.8977713178296 8.77395952653711  23.8473029715768 8.97346315387444  23.7705910852715 9.154066437572  Z " fill-rule="evenodd" />
    </mask>
  </defs>
  <g transform="matrix(1 0 0 1 -1089 -444 )">
    <path d="M 5.21049896049893 0.710416666665777  C 4.76004851004935 0.236805555556  4.15367290367309 0  3.39137214137205 0  C 2.7330214830215 0  2.18728343728382 0.162962962962815  1.75415800415711 0.488888888888444  C 1.3210325710323 0.814814814814074  0.974532224531307 1.24768518518593  0.714656964656039 1.78749999999956  C 0.454781704780771 2.32731481481541  0.270703395703246 2.94606481481585  0.162422037421569 3.64375000000089  C 0.0541406791398913 4.34143518518593  0 5.06203703703674  0 5.80555555555556  C 0 6.37592592592652  0.0368156618151261 6.96666666666756  0.110446985447273 7.57777777777867  C 0.184078309077525 8.18888888888978  0.333506583507415 8.74907407407348  0.558731808731257 9.25833333333422  C 0.783957033956995 9.76759259259274  1.10446985446894 10.1851851851859  1.52027027027088 10.5111111111116  C 1.93607068607093 10.8370370370372  2.48613998613981 11  3.17047817047751 11  C 3.75086625086662 11  4.23813236313322 10.8854166666667  4.63227650727731 10.65625  C 5.0264206514214 10.4270833333333  5.34260221760216 10.1368055555564  5.58082120582147 9.78541666666711  C 5.81904019404078 9.43402777777778  5.99012474012473 9.044444444444  6.09407484407522 8.61666666666578  C 6.1980249480257 8.18888888888978  6.25 7.776388888888  6.25 7.37916666666711  C 6.25 6.88009259259363  6.18503118503213 6.41666666666667  6.0550935550945 5.98888888888844  C 5.92515592515686 5.56111111111022  5.74107761607744 5.18935185185081  5.50285862785813 4.87361111111022  C 5.26463963963882 4.55787037036963  4.97011434511402 4.31087962962859  4.61928274428184 4.13263888888933  C 4.26845114345156 3.95439814814785  3.87214137214187 3.86527777777822  3.43035343035278 3.86527777777822  C 2.92792792792701 3.86527777777822  2.48397435897421 3.97731481481585  2.0984927234925 4.20138888888889  C 1.71301108801079 4.42546296296192  1.39033264033325 4.7870370370363  1.13045738045798 5.286111111112  C 1.13911988912226 4.86851851852104  1.14778239778275 4.38981481481541  1.20841995841943 3.911111111112  C 1.269057519058 3.43240740740637  1.37950450450527 2.986805555556  1.53976091476125 2.57430555555645  C 1.70001732501722 2.16180555555467  1.92307692307736 1.82060185185259  2.20893970893978 1.55069444444356  C 2.49480249480219 1.28078703703674  2.87162162162152 1.14583333333333  3.33939708939776 1.14583333333333  C 3.78118503118496 1.14583333333333  4.13634788634833 1.29351851851748  4.40488565488598 1.588888888888  C 4.67342342342363 1.88425925925852  4.8336798336796 2.276388888888  4.88565488565579 2.76527777777867  C 4.88565488565579 2.76527777777867  5.99012474012473 2.76527777777867  5.99012474012473 2.76527777777867  C 5.92082467082378 1.86898148148207  5.66094941094851 1.18402777777778  5.21049896049893 0.710416666665777  Z M 11.4933473389347 6.745138888888  C 11.8785014005596 6.47523148148119  12.17612044818 6.11111111111111  12.3862044817921 5.65277777777778  C 12.3511904761907 7.06851851851792  12.1892507002807 8.15069444444533  11.8478641456591 8.83819444444533  C 11.5064775910355 9.52569444444533  10.9943977591039 9.86944444444533  10.3116246498606 9.86944444444533  C 9.86519607843093 9.86944444444533  9.48004201680608 9.72685185185259  9.15616246498606 9.44166666666711  C 8.83228291316603 9.15648148148163  8.64845938375349 8.74907407407348  8.60469187675032 8.21944444444489  C 8.60469187675032 8.21944444444489  7.48862044817997 8.21944444444489  7.48862044817997 8.21944444444489  C 7.55864845938466 9.15648148148163  7.85189075630228 9.85416666666667  8.36834733893473 10.3125  C 8.88480392156907 10.7708333333333  9.53256302521102 11  10.3116246498606 11  C 11.4408263305317 11  12.261467086834 10.4983796296286  12.7735469187674 9.495138888888  C 13.2856267507009 8.49189814814741  13.5416666666667 7.05324074074148  13.5416666666667 5.17916666666578  C 13.5416666666667 4.1504629629637  13.4563200280108 3.30254629629659  13.2856267507009 2.63541666666667  C 13.1149334733891 1.96828703703674  12.8851540616248 1.44120370370385  12.5962885154062 1.05416666666578  C 12.3074229691876 0.667129629629926  11.9704131652668 0.394675925925185  11.5852591036419 0.236805555556  C 11.2001050420171 0.0789351851845923  10.7886904761907 0  10.3510154061629 0  C 9.90458683473321 0  9.49317226890685 0.0865740740739259  9.11677170868377 0.259722222221778  C 8.74037114845881 0.432870370369629  8.41649159663878 0.67476851851926  8.1451330532218 0.985416666666222  C 7.87377450980481 1.29606481481541  7.66369047619075 1.66782407407482  7.51488095238149 2.10069444444444  C 7.36607142857224 2.53356481481407  7.29166666666667 3.00972222222178  7.29166666666667 3.52916666666756  C 7.29166666666667 4.05879629629615  7.35512955182003 4.54768518518459  7.48205532212864 4.99583333333289  C 7.60898109243726 5.44398148148119  7.7971813725488 5.82592592592563  8.04665616246514 6.14166666666622  C 8.29613095238149 6.45740740740681  8.60469187675032 6.70439814814785  8.97233893557351 6.88263888888933  C 9.3399859943986 7.06087962962859  9.76015406162484 7.15000000000044  10.2328431372541 7.15000000000044  C 10.6880252100837 7.15000000000044  11.1081932773118 7.01504629629704  11.4933473389347 6.745138888888  Z M 20.9433229813669 9.16666666666667  C 21.0166494133887 9.53333333333245  21.1352657004833 9.85162037037096  21.2991718426508 10.1215277777778  C 21.4630779848164 10.3914351851846  21.6787439613521 10.6053240740748  21.946169772256 10.763194444444  C 22.2135955831599 10.9210648148154  22.5414078674949 11  22.9296066252592 11  C 23.3091787439605 11  23.6283643892345 10.9159722222218  23.8871635610773 10.7479166666676  C 24.1459627329201 10.5798611111111  24.3594720496901 10.3557870370381  24.5276915113872 10.075694444444  C 24.6959109730843 9.79560185185215  24.8166839199447 9.46967592592652  24.8900103519664 9.09791666666711  C 24.9633367839882 8.7261574074077  25 8.34166666666756  25 7.94444444444444  C 25 7.52685185185126  24.9676501035196 7.13217592592607  24.9029503105589 6.76041666666667  C 24.8382505175982 6.38865740740726  24.7261042098008 6.06527777777733  24.5665113871629 5.79027777777689  C 24.4069185645268 5.51527777777867  24.1955659075226 5.29629629629704  23.9324534161483 5.13333333333422  C 23.6693409247759 4.97037037037141  23.3350586611455 4.88888888888889  22.9296066252592 4.88888888888889  C 22.5327812284339 4.88888888888889  22.2006556245693 4.97291666666711  21.9332298136654 5.14097222222133  C 21.6658040027596 5.30902777777778  21.4501380262258 5.53564814814874  21.2862318840583 5.82083333333422  C 21.1223257418908 6.10601851851748  21.0058661145619 6.43449074074104  20.9368530020697 6.80625000000044  C 20.8678398895794 7.17800925925985  20.8333333333333 7.57268518518504  20.8333333333333 7.99027777777822  C 20.8333333333333 8.40787037037141  20.8699965493452 8.80000000000089  20.9433229813669 9.16666666666667  Z M 14.6868530020697 1.91257966195553  C 14.6178398895794 2.28341184076797  14.5833333333333 2.67710353745355  14.5833333333333 3.09365475200785  C 14.5833333333333 3.51020596656437  14.6199965493452 3.90135771682011  14.6933229813669 4.2671100027706  C 14.7666494133887 4.63286228872332  14.8852657004833 4.95289553892973  15.0491718426508 5.22720975339426  C 15.2130779848164 5.5015239678588  15.4287439613521 5.71741941442775  15.696169772256 5.87489609310109  C 15.9635955831599 6.03237277177444  16.2914078674949 6.11111111111111  16.6796066252592 6.11111111111111  C 17.0591787439605 6.11111111111111  17.3783643892345 6.02475293248264  17.6371635610773 5.85203657522794  C 17.8959627329201 5.67932021797323  18.1094720496901 5.45326498568486  18.2776915113872 5.1738708783606  C 18.4459109730843 4.89447677103635  18.5666839199447 4.56936362796801  18.6400103519664 4.19853144915558  C 18.7133367839882 3.82769927034315  18.75 3.44416735937921  18.75 3.04793571626599  C 18.75 2.63138450170946  18.7176501035196 2.23769280502388  18.6529503105589 1.86686062621144  C 18.5882505175982 1.49602844739901  18.4761042098008 1.17345525076275  18.3165113871629 0.89914103629821  C 18.1569185645268 0.624826821833671  17.9455659075226 0.406391428834872  17.6824534161483 0.243834857301812  C 17.4193409247759 0.0812782857665297  17.0850586611455 0  16.6796066252592 0  C 16.2827812284339 0  15.9506556245693 0.0838182321963864  15.6832298136654 0.251454696591382  C 15.4158040027596 0.419091160986379  15.2001380262258 0.645146393276971  15.0362318840583 0.929620393460937  C 14.8723257418908 1.2140943936449  14.7558661145619 1.5417474831431  14.6868530020697 1.91257966195553  Z M 21.921816479401 0  L 15.625 11  L 16.6315543071164 11  L 22.9166666666667 0  L 21.921816479401 0  Z M 1.94683908046045 5.08106219427059  C 2.14080459770116 4.95294665734946  2.36709770114961 4.88888888888889  2.62571839080389 4.88888888888889  C 2.88433908046007 4.88888888888889  3.11063218390852 4.9555089680885  3.30459770114923 5.08874912648551  C 3.49856321838994 5.22198928488251  3.66020114942482 5.39878872583217  3.78951149425196 5.6191474493367  C 3.918821839081 5.83950617283901  4.01400862068992 6.10086186815715  4.07507183908062 6.4032145352889  C 4.13613505747132 6.70556720242287  4.16666666666667 7.02585604472349  4.16666666666667 7.36408106219521  C 4.16666666666667 7.68180759375678  4.13254310344845 7.98672257162758  4.064295977012 8.27882599580759  C 3.99604885057556 8.57092941998538  3.89727011494188 8.82972280456448  3.76795977011473 9.05520614954488  C 3.63864942528759 9.28068949452528  3.4788074712651 9.45748893547716  3.28843390804536 9.58560447239607  C 3.09806034482752 9.71372000931721  2.87715517241433 9.77777777777778  2.62571839080389 9.77777777777778  C 2.37428160919535 9.77777777777778  2.14978448275929 9.71372000931721  1.95222701149381 9.58560447239607  C 1.75466954023022 9.45748893547716  1.58943965517248 9.28581411600337  1.45653735632247 9.07058001397693  C 1.32363505747056 8.85534591195048  1.2212643678159 8.59911483810821  1.14942528735658 8.30188679245233  C 1.07758620689727 8.00465874679645  1.04166666666667 7.68693221523487  1.04166666666667 7.34870719776316  C 1.04166666666667 7.01048218029367  1.07579022988489 6.69019333799305  1.14403735632133 6.38784067085908  C 1.21228448275777 6.08548800372733  1.31465517241433 5.82413230840919  1.45114942528721 5.60377358490465  C 1.5876436781601 5.38341486140234  1.75287356321784 5.20917773118951  1.94683908046045 5.08106219427059  Z M 10.5482456140351 1.42208245981884  C 10.7456140350886 1.55532261821584  10.9119152046787 1.73724668064359  11.0471491228073 1.96785464709986  C 11.1823830409359 2.19846261355613  11.2847222222229 2.46238061961331  11.3541666666663 2.7596086652692  C 11.4236111111116 3.05683671092508  11.4583333333333 3.37456324248888  11.4583333333333 3.71278825995836  C 11.4583333333333 4.03051479152216  11.4217836257315 4.33542976939296  11.348684210526 4.62753319357075  C 11.2755847953224 4.91963661775076  11.1695906432753 5.17586769159081  11.0307017543865 5.39622641509535  C 10.8918128654977 5.61658513859766  10.7236842105256 5.79082226881049  10.526315789474 5.9189378057294  C 10.3289473684204 6.04705334265054  10.1096491228077 6.11111111111111  9.86842105263198 6.11111111111111  C 9.64181286549698 6.11111111111111  9.43530701754298 6.04705334265054  9.24890350877187 5.9189378057294  C 9.06250000000076 5.79082226881049  8.90168128654902 5.6191474493367  8.76644736842043 5.40391334731026  C 8.63121345029185 5.18867924528382  8.52521929824472 4.9426974143955  8.44846491228092 4.66596785464753  C 8.37171052631523 4.38923829489957  8.33333333333333 4.10225949219764  8.33333333333333 3.80503144654176  C 8.33333333333333 3.46680642907005  8.36074561403469 3.14395527603038  8.4155701754393 2.83647798742054  C 8.47039473684201 2.52900069881293  8.55811403508824 2.25483344980178  8.6787280701761 2.01397624039156  C 8.79934210526396 1.77311903098133  8.95650584795362 1.58094572559963  9.15021929824509 1.43745632424867  C 9.34393274853846 1.2939669228977  9.57967836257391 1.22222222222222  9.85745614035143 1.22222222222222  C 10.1206140350882 1.22222222222222  10.3508771929815 1.28884230142184  10.5482456140351 1.42208245981884  Z M 23.7705910852715 9.154066437572  C 23.6938791989663 9.33466972126735  23.5868863049101 9.48377243222603  23.4496124031011 9.60137457044584  C 23.3123385012921 9.71897670866787  23.1266149870805 9.77777777777778  22.8924418604644 9.77777777777778  C 22.6663436692509 9.77777777777778  22.4866763565899 9.71687667048395  22.3534399224813 9.59507445589851  C 22.2202034883727 9.47327224131307  22.117248062015 9.32206949217268  22.0445736434101 9.14146620847734  C 21.9718992248071 8.96086292477978  21.9254683462528 8.76345933562415  21.9052810077528 8.54925544100822  C 21.8850936692509 8.3350515463923  21.875 8.13554791905274  21.875 7.95074455899177  C 21.875 7.75754104620177  21.8871124031011 7.55383734249659  21.9113372093015 7.33963344788066  C 21.9355620155037 7.12542955326474  21.9860303617565 6.92802596410911  22.0627422480618 6.74742268041155  C 22.139454134367 6.5668193967162  22.2464470284232 6.41561664757582  22.3837209302322 6.29381443299038  C 22.5209948320412 6.17201221840494  22.7026808785524 6.11111111111111  22.9287790697678 6.11111111111111  C 23.162952196382 6.11111111111111  23.3466569767434 6.17201221840494  23.4798934108521 6.29381443299038  C 23.6131298449607 6.41561664757582  23.7160852713184 6.5668193967162  23.7887596899232 6.74742268041155  C 23.8614341085262 6.92802596410911  23.9078649870805 7.12542955326474  23.9280523255805 7.33963344788066  C 23.9482396640824 7.55383734249659  23.9583333333333 7.75334096983614  23.9583333333333 7.93814432989711  C 23.9583333333333 8.13134784268712  23.9462209302322 8.33715158457401  23.9219961240318 8.55555555555556  C 23.8977713178296 8.77395952653711  23.8473029715768 8.97346315387444  23.7705910852715 9.154066437572  Z " fill-rule="nonzero" fill="#ffffff" stroke="none" fill-opacity="0" transform="matrix(1 0 0 1 1089 444 )" />
    <path d="M 5.21049896049893 0.710416666665777  C 4.76004851004935 0.236805555556  4.15367290367309 0  3.39137214137205 0  C 2.7330214830215 0  2.18728343728382 0.162962962962815  1.75415800415711 0.488888888888444  C 1.3210325710323 0.814814814814074  0.974532224531307 1.24768518518593  0.714656964656039 1.78749999999956  C 0.454781704780771 2.32731481481541  0.270703395703246 2.94606481481585  0.162422037421569 3.64375000000089  C 0.0541406791398913 4.34143518518593  0 5.06203703703674  0 5.80555555555556  C 0 6.37592592592652  0.0368156618151261 6.96666666666756  0.110446985447273 7.57777777777867  C 0.184078309077525 8.18888888888978  0.333506583507415 8.74907407407348  0.558731808731257 9.25833333333422  C 0.783957033956995 9.76759259259274  1.10446985446894 10.1851851851859  1.52027027027088 10.5111111111116  C 1.93607068607093 10.8370370370372  2.48613998613981 11  3.17047817047751 11  C 3.75086625086662 11  4.23813236313322 10.8854166666667  4.63227650727731 10.65625  C 5.0264206514214 10.4270833333333  5.34260221760216 10.1368055555564  5.58082120582147 9.78541666666711  C 5.81904019404078 9.43402777777778  5.99012474012473 9.044444444444  6.09407484407522 8.61666666666578  C 6.1980249480257 8.18888888888978  6.25 7.776388888888  6.25 7.37916666666711  C 6.25 6.88009259259363  6.18503118503213 6.41666666666667  6.0550935550945 5.98888888888844  C 5.92515592515686 5.56111111111022  5.74107761607744 5.18935185185081  5.50285862785813 4.87361111111022  C 5.26463963963882 4.55787037036963  4.97011434511402 4.31087962962859  4.61928274428184 4.13263888888933  C 4.26845114345156 3.95439814814785  3.87214137214187 3.86527777777822  3.43035343035278 3.86527777777822  C 2.92792792792701 3.86527777777822  2.48397435897421 3.97731481481585  2.0984927234925 4.20138888888889  C 1.71301108801079 4.42546296296192  1.39033264033325 4.7870370370363  1.13045738045798 5.286111111112  C 1.13911988912226 4.86851851852104  1.14778239778275 4.38981481481541  1.20841995841943 3.911111111112  C 1.269057519058 3.43240740740637  1.37950450450527 2.986805555556  1.53976091476125 2.57430555555645  C 1.70001732501722 2.16180555555467  1.92307692307736 1.82060185185259  2.20893970893978 1.55069444444356  C 2.49480249480219 1.28078703703674  2.87162162162152 1.14583333333333  3.33939708939776 1.14583333333333  C 3.78118503118496 1.14583333333333  4.13634788634833 1.29351851851748  4.40488565488598 1.588888888888  C 4.67342342342363 1.88425925925852  4.8336798336796 2.276388888888  4.88565488565579 2.76527777777867  C 4.88565488565579 2.76527777777867  5.99012474012473 2.76527777777867  5.99012474012473 2.76527777777867  C 5.92082467082378 1.86898148148207  5.66094941094851 1.18402777777778  5.21049896049893 0.710416666665777  Z " stroke-width="3" stroke="#ffffff" fill="none" transform="matrix(1 0 0 1 1089 444 )" mask="url(#clip33)" />
    <path d="M 11.4933473389347 6.745138888888  C 11.8785014005596 6.47523148148119  12.17612044818 6.11111111111111  12.3862044817921 5.65277777777778  C 12.3511904761907 7.06851851851792  12.1892507002807 8.15069444444533  11.8478641456591 8.83819444444533  C 11.5064775910355 9.52569444444533  10.9943977591039 9.86944444444533  10.3116246498606 9.86944444444533  C 9.86519607843093 9.86944444444533  9.48004201680608 9.72685185185259  9.15616246498606 9.44166666666711  C 8.83228291316603 9.15648148148163  8.64845938375349 8.74907407407348  8.60469187675032 8.21944444444489  C 8.60469187675032 8.21944444444489  7.48862044817997 8.21944444444489  7.48862044817997 8.21944444444489  C 7.55864845938466 9.15648148148163  7.85189075630228 9.85416666666667  8.36834733893473 10.3125  C 8.88480392156907 10.7708333333333  9.53256302521102 11  10.3116246498606 11  C 11.4408263305317 11  12.261467086834 10.4983796296286  12.7735469187674 9.495138888888  C 13.2856267507009 8.49189814814741  13.5416666666667 7.05324074074148  13.5416666666667 5.17916666666578  C 13.5416666666667 4.1504629629637  13.4563200280108 3.30254629629659  13.2856267507009 2.63541666666667  C 13.1149334733891 1.96828703703674  12.8851540616248 1.44120370370385  12.5962885154062 1.05416666666578  C 12.3074229691876 0.667129629629926  11.9704131652668 0.394675925925185  11.5852591036419 0.236805555556  C 11.2001050420171 0.0789351851845923  10.7886904761907 0  10.3510154061629 0  C 9.90458683473321 0  9.49317226890685 0.0865740740739259  9.11677170868377 0.259722222221778  C 8.74037114845881 0.432870370369629  8.41649159663878 0.67476851851926  8.1451330532218 0.985416666666222  C 7.87377450980481 1.29606481481541  7.66369047619075 1.66782407407482  7.51488095238149 2.10069444444444  C 7.36607142857224 2.53356481481407  7.29166666666667 3.00972222222178  7.29166666666667 3.52916666666756  C 7.29166666666667 4.05879629629615  7.35512955182003 4.54768518518459  7.48205532212864 4.99583333333289  C 7.60898109243726 5.44398148148119  7.7971813725488 5.82592592592563  8.04665616246514 6.14166666666622  C 8.29613095238149 6.45740740740681  8.60469187675032 6.70439814814785  8.97233893557351 6.88263888888933  C 9.3399859943986 7.06087962962859  9.76015406162484 7.15000000000044  10.2328431372541 7.15000000000044  C 10.6880252100837 7.15000000000044  11.1081932773118 7.01504629629704  11.4933473389347 6.745138888888  Z " stroke-width="3" stroke="#ffffff" fill="none" transform="matrix(1 0 0 1 1089 444 )" mask="url(#clip33)" />
    <path d="M 20.9433229813669 9.16666666666667  C 21.0166494133887 9.53333333333245  21.1352657004833 9.85162037037096  21.2991718426508 10.1215277777778  C 21.4630779848164 10.3914351851846  21.6787439613521 10.6053240740748  21.946169772256 10.763194444444  C 22.2135955831599 10.9210648148154  22.5414078674949 11  22.9296066252592 11  C 23.3091787439605 11  23.6283643892345 10.9159722222218  23.8871635610773 10.7479166666676  C 24.1459627329201 10.5798611111111  24.3594720496901 10.3557870370381  24.5276915113872 10.075694444444  C 24.6959109730843 9.79560185185215  24.8166839199447 9.46967592592652  24.8900103519664 9.09791666666711  C 24.9633367839882 8.7261574074077  25 8.34166666666756  25 7.94444444444444  C 25 7.52685185185126  24.9676501035196 7.13217592592607  24.9029503105589 6.76041666666667  C 24.8382505175982 6.38865740740726  24.7261042098008 6.06527777777733  24.5665113871629 5.79027777777689  C 24.4069185645268 5.51527777777867  24.1955659075226 5.29629629629704  23.9324534161483 5.13333333333422  C 23.6693409247759 4.97037037037141  23.3350586611455 4.88888888888889  22.9296066252592 4.88888888888889  C 22.5327812284339 4.88888888888889  22.2006556245693 4.97291666666711  21.9332298136654 5.14097222222133  C 21.6658040027596 5.30902777777778  21.4501380262258 5.53564814814874  21.2862318840583 5.82083333333422  C 21.1223257418908 6.10601851851748  21.0058661145619 6.43449074074104  20.9368530020697 6.80625000000044  C 20.8678398895794 7.17800925925985  20.8333333333333 7.57268518518504  20.8333333333333 7.99027777777822  C 20.8333333333333 8.40787037037141  20.8699965493452 8.80000000000089  20.9433229813669 9.16666666666667  Z " stroke-width="3" stroke="#ffffff" fill="none" transform="matrix(1 0 0 1 1089 444 )" mask="url(#clip33)" />
    <path d="M 14.6868530020697 1.91257966195553  C 14.6178398895794 2.28341184076797  14.5833333333333 2.67710353745355  14.5833333333333 3.09365475200785  C 14.5833333333333 3.51020596656437  14.6199965493452 3.90135771682011  14.6933229813669 4.2671100027706  C 14.7666494133887 4.63286228872332  14.8852657004833 4.95289553892973  15.0491718426508 5.22720975339426  C 15.2130779848164 5.5015239678588  15.4287439613521 5.71741941442775  15.696169772256 5.87489609310109  C 15.9635955831599 6.03237277177444  16.2914078674949 6.11111111111111  16.6796066252592 6.11111111111111  C 17.0591787439605 6.11111111111111  17.3783643892345 6.02475293248264  17.6371635610773 5.85203657522794  C 17.8959627329201 5.67932021797323  18.1094720496901 5.45326498568486  18.2776915113872 5.1738708783606  C 18.4459109730843 4.89447677103635  18.5666839199447 4.56936362796801  18.6400103519664 4.19853144915558  C 18.7133367839882 3.82769927034315  18.75 3.44416735937921  18.75 3.04793571626599  C 18.75 2.63138450170946  18.7176501035196 2.23769280502388  18.6529503105589 1.86686062621144  C 18.5882505175982 1.49602844739901  18.4761042098008 1.17345525076275  18.3165113871629 0.89914103629821  C 18.1569185645268 0.624826821833671  17.9455659075226 0.406391428834872  17.6824534161483 0.243834857301812  C 17.4193409247759 0.0812782857665297  17.0850586611455 0  16.6796066252592 0  C 16.2827812284339 0  15.9506556245693 0.0838182321963864  15.6832298136654 0.251454696591382  C 15.4158040027596 0.419091160986379  15.2001380262258 0.645146393276971  15.0362318840583 0.929620393460937  C 14.8723257418908 1.2140943936449  14.7558661145619 1.5417474831431  14.6868530020697 1.91257966195553  Z " stroke-width="3" stroke="#ffffff" fill="none" transform="matrix(1 0 0 1 1089 444 )" mask="url(#clip33)" />
    <path d="M 21.921816479401 0  L 15.625 11  L 16.6315543071164 11  L 22.9166666666667 0  L 21.921816479401 0  Z " stroke-width="3" stroke="#ffffff" fill="none" transform="matrix(1 0 0 1 1089 444 )" mask="url(#clip33)" />
    <path d="M 1.94683908046045 5.08106219427059  C 2.14080459770116 4.95294665734946  2.36709770114961 4.88888888888889  2.62571839080389 4.88888888888889  C 2.88433908046007 4.88888888888889  3.11063218390852 4.9555089680885  3.30459770114923 5.08874912648551  C 3.49856321838994 5.22198928488251  3.66020114942482 5.39878872583217  3.78951149425196 5.6191474493367  C 3.918821839081 5.83950617283901  4.01400862068992 6.10086186815715  4.07507183908062 6.4032145352889  C 4.13613505747132 6.70556720242287  4.16666666666667 7.02585604472349  4.16666666666667 7.36408106219521  C 4.16666666666667 7.68180759375678  4.13254310344845 7.98672257162758  4.064295977012 8.27882599580759  C 3.99604885057556 8.57092941998538  3.89727011494188 8.82972280456448  3.76795977011473 9.05520614954488  C 3.63864942528759 9.28068949452528  3.4788074712651 9.45748893547716  3.28843390804536 9.58560447239607  C 3.09806034482752 9.71372000931721  2.87715517241433 9.77777777777778  2.62571839080389 9.77777777777778  C 2.37428160919535 9.77777777777778  2.14978448275929 9.71372000931721  1.95222701149381 9.58560447239607  C 1.75466954023022 9.45748893547716  1.58943965517248 9.28581411600337  1.45653735632247 9.07058001397693  C 1.32363505747056 8.85534591195048  1.2212643678159 8.59911483810821  1.14942528735658 8.30188679245233  C 1.07758620689727 8.00465874679645  1.04166666666667 7.68693221523487  1.04166666666667 7.34870719776316  C 1.04166666666667 7.01048218029367  1.07579022988489 6.69019333799305  1.14403735632133 6.38784067085908  C 1.21228448275777 6.08548800372733  1.31465517241433 5.82413230840919  1.45114942528721 5.60377358490465  C 1.5876436781601 5.38341486140234  1.75287356321784 5.20917773118951  1.94683908046045 5.08106219427059  Z " stroke-width="3" stroke="#ffffff" fill="none" transform="matrix(1 0 0 1 1089 444 )" mask="url(#clip33)" />
    <path d="M 10.5482456140351 1.42208245981884  C 10.7456140350886 1.55532261821584  10.9119152046787 1.73724668064359  11.0471491228073 1.96785464709986  C 11.1823830409359 2.19846261355613  11.2847222222229 2.46238061961331  11.3541666666663 2.7596086652692  C 11.4236111111116 3.05683671092508  11.4583333333333 3.37456324248888  11.4583333333333 3.71278825995836  C 11.4583333333333 4.03051479152216  11.4217836257315 4.33542976939296  11.348684210526 4.62753319357075  C 11.2755847953224 4.91963661775076  11.1695906432753 5.17586769159081  11.0307017543865 5.39622641509535  C 10.8918128654977 5.61658513859766  10.7236842105256 5.79082226881049  10.526315789474 5.9189378057294  C 10.3289473684204 6.04705334265054  10.1096491228077 6.11111111111111  9.86842105263198 6.11111111111111  C 9.64181286549698 6.11111111111111  9.43530701754298 6.04705334265054  9.24890350877187 5.9189378057294  C 9.06250000000076 5.79082226881049  8.90168128654902 5.6191474493367  8.76644736842043 5.40391334731026  C 8.63121345029185 5.18867924528382  8.52521929824472 4.9426974143955  8.44846491228092 4.66596785464753  C 8.37171052631523 4.38923829489957  8.33333333333333 4.10225949219764  8.33333333333333 3.80503144654176  C 8.33333333333333 3.46680642907005  8.36074561403469 3.14395527603038  8.4155701754393 2.83647798742054  C 8.47039473684201 2.52900069881293  8.55811403508824 2.25483344980178  8.6787280701761 2.01397624039156  C 8.79934210526396 1.77311903098133  8.95650584795362 1.58094572559963  9.15021929824509 1.43745632424867  C 9.34393274853846 1.2939669228977  9.57967836257391 1.22222222222222  9.85745614035143 1.22222222222222  C 10.1206140350882 1.22222222222222  10.3508771929815 1.28884230142184  10.5482456140351 1.42208245981884  Z " stroke-width="3" stroke="#ffffff" fill="none" transform="matrix(1 0 0 1 1089 444 )" mask="url(#clip33)" />
    <path d="M 23.7705910852715 9.154066437572  C 23.6938791989663 9.33466972126735  23.5868863049101 9.48377243222603  23.4496124031011 9.60137457044584  C 23.3123385012921 9.71897670866787  23.1266149870805 9.77777777777778  22.8924418604644 9.77777777777778  C 22.6663436692509 9.77777777777778  22.4866763565899 9.71687667048395  22.3534399224813 9.59507445589851  C 22.2202034883727 9.47327224131307  22.117248062015 9.32206949217268  22.0445736434101 9.14146620847734  C 21.9718992248071 8.96086292477978  21.9254683462528 8.76345933562415  21.9052810077528 8.54925544100822  C 21.8850936692509 8.3350515463923  21.875 8.13554791905274  21.875 7.95074455899177  C 21.875 7.75754104620177  21.8871124031011 7.55383734249659  21.9113372093015 7.33963344788066  C 21.9355620155037 7.12542955326474  21.9860303617565 6.92802596410911  22.0627422480618 6.74742268041155  C 22.139454134367 6.5668193967162  22.2464470284232 6.41561664757582  22.3837209302322 6.29381443299038  C 22.5209948320412 6.17201221840494  22.7026808785524 6.11111111111111  22.9287790697678 6.11111111111111  C 23.162952196382 6.11111111111111  23.3466569767434 6.17201221840494  23.4798934108521 6.29381443299038  C 23.6131298449607 6.41561664757582  23.7160852713184 6.5668193967162  23.7887596899232 6.74742268041155  C 23.8614341085262 6.92802596410911  23.9078649870805 7.12542955326474  23.9280523255805 7.33963344788066  C 23.9482396640824 7.55383734249659  23.9583333333333 7.75334096983614  23.9583333333333 7.93814432989711  C 23.9583333333333 8.13134784268712  23.9462209302322 8.33715158457401  23.9219961240318 8.55555555555556  C 23.8977713178296 8.77395952653711  23.8473029715768 8.97346315387444  23.7705910852715 9.154066437572  Z " stroke-width="3" stroke="#ffffff" fill="none" transform="matrix(1 0 0 1 1089 444 )" mask="url(#clip33)" />
  </g>
</svg>