<svg version="1.1" xmlns="http://www.w3.org/2000/svg" xmlns:xlink="http://www.w3.org/1999/xlink" width="667.25" height="327"><defs/><g><text fill="#eeeeee" stroke="none" font-family="Arial" font-size="24px" font-style="normal" font-weight="normal" text-decoration="none" x="0" y="0">UNREGISTERED</text><text fill="#eeeeee" stroke="none" font-family="Arial" font-size="24px" font-style="normal" font-weight="normal" text-decoration="none" x="0" y="30">UNREGISTERED</text><text fill="#eeeeee" stroke="none" font-family="Arial" font-size="24px" font-style="normal" font-weight="normal" text-decoration="none" x="0" y="60">UNREGISTERED</text><text fill="#eeeeee" stroke="none" font-family="Arial" font-size="24px" font-style="normal" font-weight="normal" text-decoration="none" x="0" y="90">UNREGISTERED</text><text fill="#eeeeee" stroke="none" font-family="Arial" font-size="24px" font-style="normal" font-weight="normal" text-decoration="none" x="0" y="120">UNREGISTERED</text><text fill="#eeeeee" stroke="none" font-family="Arial" font-size="24px" font-style="normal" font-weight="normal" text-decoration="none" x="0" y="150">UNREGISTERED</text><text fill="#eeeeee" stroke="none" font-family="Arial" font-size="24px" font-style="normal" font-weight="normal" text-decoration="none" x="0" y="180">UNREGISTERED</text><text fill="#eeeeee" stroke="none" font-family="Arial" font-size="24px" font-style="normal" font-weight="normal" text-decoration="none" x="0" y="210">UNREGISTERED</text><text fill="#eeeeee" stroke="none" font-family="Arial" font-size="24px" font-style="normal" font-weight="normal" text-decoration="none" x="0" y="240">UNREGISTERED</text><text fill="#eeeeee" stroke="none" font-family="Arial" font-size="24px" font-style="normal" font-weight="normal" text-decoration="none" x="0" y="270">UNREGISTERED</text><text fill="#eeeeee" stroke="none" font-family="Arial" font-size="24px" font-style="normal" font-weight="normal" text-decoration="none" x="0" y="300">UNREGISTERED</text><text fill="#eeeeee" stroke="none" font-family="Arial" font-size="24px" font-style="normal" font-weight="normal" text-decoration="none" x="200" y="0">UNREGISTERED</text><text fill="#eeeeee" stroke="none" font-family="Arial" font-size="24px" font-style="normal" font-weight="normal" text-decoration="none" x="200" y="30">UNREGISTERED</text><text fill="#eeeeee" stroke="none" font-family="Arial" font-size="24px" font-style="normal" font-weight="normal" text-decoration="none" x="200" y="60">UNREGISTERED</text><text fill="#eeeeee" stroke="none" font-family="Arial" font-size="24px" font-style="normal" font-weight="normal" text-decoration="none" x="200" y="90">UNREGISTERED</text><text fill="#eeeeee" stroke="none" font-family="Arial" font-size="24px" font-style="normal" font-weight="normal" text-decoration="none" x="200" y="120">UNREGISTERED</text><text fill="#eeeeee" stroke="none" font-family="Arial" font-size="24px" font-style="normal" font-weight="normal" text-decoration="none" x="200" y="150">UNREGISTERED</text><text fill="#eeeeee" stroke="none" font-family="Arial" font-size="24px" font-style="normal" font-weight="normal" text-decoration="none" x="200" y="180">UNREGISTERED</text><text fill="#eeeeee" stroke="none" font-family="Arial" font-size="24px" font-style="normal" font-weight="normal" text-decoration="none" x="200" y="210">UNREGISTERED</text><text fill="#eeeeee" stroke="none" font-family="Arial" font-size="24px" font-style="normal" font-weight="normal" text-decoration="none" x="200" y="240">UNREGISTERED</text><text fill="#eeeeee" stroke="none" font-family="Arial" font-size="24px" font-style="normal" font-weight="normal" text-decoration="none" x="200" y="270">UNREGISTERED</text><text fill="#eeeeee" stroke="none" font-family="Arial" font-size="24px" font-style="normal" font-weight="normal" text-decoration="none" x="200" y="300">UNREGISTERED</text><text fill="#eeeeee" stroke="none" font-family="Arial" font-size="24px" font-style="normal" font-weight="normal" text-decoration="none" x="400" y="0">UNREGISTERED</text><text fill="#eeeeee" stroke="none" font-family="Arial" font-size="24px" font-style="normal" font-weight="normal" text-decoration="none" x="400" y="30">UNREGISTERED</text><text fill="#eeeeee" stroke="none" font-family="Arial" font-size="24px" font-style="normal" font-weight="normal" text-decoration="none" x="400" y="60">UNREGISTERED</text><text fill="#eeeeee" stroke="none" font-family="Arial" font-size="24px" font-style="normal" font-weight="normal" text-decoration="none" x="400" y="90">UNREGISTERED</text><text fill="#eeeeee" stroke="none" font-family="Arial" font-size="24px" font-style="normal" font-weight="normal" text-decoration="none" x="400" y="120">UNREGISTERED</text><text fill="#eeeeee" stroke="none" font-family="Arial" font-size="24px" font-style="normal" font-weight="normal" text-decoration="none" x="400" y="150">UNREGISTERED</text><text fill="#eeeeee" stroke="none" font-family="Arial" font-size="24px" font-style="normal" font-weight="normal" text-decoration="none" x="400" y="180">UNREGISTERED</text><text fill="#eeeeee" stroke="none" font-family="Arial" font-size="24px" font-style="normal" font-weight="normal" text-decoration="none" x="400" y="210">UNREGISTERED</text><text fill="#eeeeee" stroke="none" font-family="Arial" font-size="24px" font-style="normal" font-weight="normal" text-decoration="none" x="400" y="240">UNREGISTERED</text><text fill="#eeeeee" stroke="none" font-family="Arial" font-size="24px" font-style="normal" font-weight="normal" text-decoration="none" x="400" y="270">UNREGISTERED</text><text fill="#eeeeee" stroke="none" font-family="Arial" font-size="24px" font-style="normal" font-weight="normal" text-decoration="none" x="400" y="300">UNREGISTERED</text><text fill="#eeeeee" stroke="none" font-family="Arial" font-size="24px" font-style="normal" font-weight="normal" text-decoration="none" x="600" y="0">UNREGISTERED</text><text fill="#eeeeee" stroke="none" font-family="Arial" font-size="24px" font-style="normal" font-weight="normal" text-decoration="none" x="600" y="30">UNREGISTERED</text><text fill="#eeeeee" stroke="none" font-family="Arial" font-size="24px" font-style="normal" font-weight="normal" text-decoration="none" x="600" y="60">UNREGISTERED</text><text fill="#eeeeee" stroke="none" font-family="Arial" font-size="24px" font-style="normal" font-weight="normal" text-decoration="none" x="600" y="90">UNREGISTERED</text><text fill="#eeeeee" stroke="none" font-family="Arial" font-size="24px" font-style="normal" font-weight="normal" text-decoration="none" x="600" y="120">UNREGISTERED</text><text fill="#eeeeee" stroke="none" font-family="Arial" font-size="24px" font-style="normal" font-weight="normal" text-decoration="none" x="600" y="150">UNREGISTERED</text><text fill="#eeeeee" stroke="none" font-family="Arial" font-size="24px" font-style="normal" font-weight="normal" text-decoration="none" x="600" y="180">UNREGISTERED</text><text fill="#eeeeee" stroke="none" font-family="Arial" font-size="24px" font-style="normal" font-weight="normal" text-decoration="none" x="600" y="210">UNREGISTERED</text><text fill="#eeeeee" stroke="none" font-family="Arial" font-size="24px" font-style="normal" font-weight="normal" text-decoration="none" x="600" y="240">UNREGISTERED</text><text fill="#eeeeee" stroke="none" font-family="Arial" font-size="24px" font-style="normal" font-weight="normal" text-decoration="none" x="600" y="270">UNREGISTERED</text><text fill="#eeeeee" stroke="none" font-family="Arial" font-size="24px" font-style="normal" font-weight="normal" text-decoration="none" x="600" y="300">UNREGISTERED</text><g transform="translate(-70,-142) scale(1,1)"><rect fill="#C0C0C0" stroke="none" x="269" y="237" width="35" height="24" opacity="0.2"/></g><g transform="translate(-70,-142) scale(1,1)"><rect fill="#ffffff" stroke="none" x="262" y="230" width="35" height="24"/></g><g transform="translate(-70,-142) scale(1,1)"><path fill="none" stroke="#000000" d="M 262 230 L 297 230 L 297 254 L 262 254 L 262 230 Z Z" stroke-miterlimit="10"/></g><g transform="translate(-70,-142) scale(1,1)"><g><path fill="none" stroke="none"/><text fill="#000000" stroke="none" font-family="Arial" font-size="13px" font-style="normal" font-weight="bold" text-decoration="none" x="266.5" y="249.5">庄家</text></g></g><g transform="translate(-70,-142) scale(1,1)"><path fill="#C0C0C0" stroke="none" d="M 274 178.5 C 274 172.1487248 279.1487248 167 285.5 167 C 291.8512752 167 297 172.1487248 297 178.5 C 297 184.8512752 291.8512752 190 285.5 190 C 279.1487248 190 274 184.8512752 274 178.5 Z" opacity="0.2"/></g><g transform="translate(-70,-142) scale(1,1)"><path fill="#ffffff" stroke="none" d="M 267 171.5 C 267 165.1487248 272.1487248 160 278.5 160 C 284.8512752 160 290 165.1487248 290 171.5 C 290 177.8512752 284.8512752 183 278.5 183 C 272.1487248 183 267 177.8512752 267 171.5 Z"/></g><g transform="translate(-70,-142) scale(1,1)"><path fill="none" stroke="#000000" d="M 267 171.5 C 267 165.1487248 272.1487248 160 278.5 160 C 284.8512752 160 290 165.1487248 290 171.5 C 290 177.8512752 284.8512752 183 278.5 183 C 272.1487248 183 267 177.8512752 267 171.5 Z" stroke-miterlimit="10"/></g><g transform="translate(-70,-142) scale(1,1)"><g><path fill="none" stroke="none"/><text fill="#000000" stroke="none" font-family="Arial" font-size="13px" font-style="normal" font-weight="bold" text-decoration="none" x="252.5" y="202.5">纸牌显示</text></g></g><g transform="translate(-70,-142) scale(1,1)"><path fill="none" stroke="#000000" d="M 279 229 L 278 183" stroke-miterlimit="10"/></g><g transform="translate(-70,-142) scale(1,1)"><path fill="none" stroke="#000000" d="M 264 229 Q 248 216 270.7368421052632 183" stroke-miterlimit="10"/></g><g transform="translate(-70,-142) scale(1,1)"><rect fill="#C0C0C0" stroke="none" x="87" y="159" width="106.919921875" height="175" opacity="0.2"/></g><g transform="translate(-70,-142) scale(1,1)"><rect fill="#ffffff" stroke="none" x="80" y="152" width="106.919921875" height="175"/></g><g transform="translate(-70,-142) scale(1,1)"><path fill="none" stroke="#000000" d="M 80 152 L 186.919921875 152 L 186.919921875 327 L 80 327 L 80 152 Z Z" stroke-miterlimit="10"/></g><g transform="translate(-70,-142) scale(1,1)"><path fill="none" stroke="#000000" d="M 80 177 L 186.919921875 177" stroke-miterlimit="10"/></g><g transform="translate(-70,-142) scale(1,1)"><path fill="none" stroke="#000000" d="M 80 230 L 186.919921875 230" stroke-miterlimit="10"/></g><g transform="translate(-70,-142) scale(1,1)"><g><path fill="none" stroke="none"/><text fill="#000000" stroke="none" font-family="Arial" font-size="13px" font-style="normal" font-weight="bold" text-decoration="none" x="120.4599609375" y="171.5">闲家</text></g></g><g transform="translate(-70,-142) scale(1,1)"><g><path fill="none" stroke="none"/><text fill="#000000" stroke="none" font-family="Arial" font-size="13px" font-style="normal" font-weight="normal" text-decoration="none" x="85" y="194.5">-本局赌注</text></g></g><g transform="translate(-70,-142) scale(1,1)"><g><path fill="none" stroke="none"/><text fill="#000000" stroke="none" font-family="Arial" font-size="13px" font-style="normal" font-weight="normal" text-decoration="none" x="85" y="209.5">-当前剩余金额</text></g></g><g transform="translate(-70,-142) scale(1,1)"><g><path fill="none" stroke="none"/><text fill="#000000" stroke="none" font-family="Arial" font-size="13px" font-style="normal" font-weight="normal" text-decoration="none" x="85" y="224.5">-当前拥有纸牌</text></g></g><g transform="translate(-70,-142) scale(1,1)"><g><path fill="none" stroke="none"/><text fill="#000000" stroke="none" font-family="Arial" font-size="13px" font-style="normal" font-weight="normal" text-decoration="none" x="85" y="247.5">+开始()</text></g></g><g transform="translate(-70,-142) scale(1,1)"><g><path fill="none" stroke="none"/><text fill="#000000" stroke="none" font-family="Arial" font-size="13px" font-style="normal" font-weight="normal" text-decoration="none" x="85" y="262.5">+加倍()</text></g></g><g transform="translate(-70,-142) scale(1,1)"><g><path fill="none" stroke="none"/><text fill="#000000" stroke="none" font-family="Arial" font-size="13px" font-style="normal" font-weight="normal" text-decoration="none" x="85" y="277.5">+保险()</text></g></g><g transform="translate(-70,-142) scale(1,1)"><g><path fill="none" stroke="none"/><text fill="#000000" stroke="none" font-family="Arial" font-size="13px" font-style="normal" font-weight="normal" text-decoration="none" x="85" y="292.5">+拆牌()</text></g></g><g transform="translate(-70,-142) scale(1,1)"><g><path fill="none" stroke="none"/><text fill="#000000" stroke="none" font-family="Arial" font-size="13px" font-style="normal" font-weight="normal" text-decoration="none" x="85" y="307.5">+拿牌()</text></g></g><g transform="translate(-70,-142) scale(1,1)"><g><path fill="none" stroke="none"/><text fill="#000000" stroke="none" font-family="Arial" font-size="13px" font-style="normal" font-weight="normal" text-decoration="none" x="85" y="322.5">+听牌()</text></g></g><g transform="translate(-70,-142) scale(1,1)"><path fill="none" stroke="#000000" d="M 188 240 L 261 242" stroke-miterlimit="10"/></g><g transform="translate(-70,-142) scale(1,1)"><path fill="#FFFFFF" stroke="none" d="M 240.45170220853507 249.8592275621258 L 261 242 L 240.91284618574724 233.02747239388196"/></g><g transform="translate(-70,-142) scale(1,1)"><path fill="none" stroke="#000000" d="M 240.45170220853507 249.8592275621258 L 261 242 L 240.91284618574724 233.02747239388196 L 240.45170220853507 249.8592275621258" stroke-miterlimit="10"/></g><g transform="translate(-70,-142) scale(1,1)"><rect fill="#C0C0C0" stroke="none" x="87" y="351" width="104.7099609375" height="115" opacity="0.2"/></g><g transform="translate(-70,-142) scale(1,1)"><rect fill="#ffffff" stroke="none" x="80" y="344" width="104.7099609375" height="115"/></g><g transform="translate(-70,-142) scale(1,1)"><path fill="none" stroke="#000000" d="M 80 344 L 184.7099609375 344 L 184.7099609375 459 L 80 459 L 80 344 Z Z" stroke-miterlimit="10"/></g><g transform="translate(-70,-142) scale(1,1)"><path fill="none" stroke="#000000" d="M 80 369 L 184.7099609375 369" stroke-miterlimit="10"/></g><g transform="translate(-70,-142) scale(1,1)"><path fill="none" stroke="#000000" d="M 80 392 L 184.7099609375 392" stroke-miterlimit="10"/></g><g transform="translate(-70,-142) scale(1,1)"><g><path fill="none" stroke="none"/><text fill="#000000" stroke="none" font-family="Arial" font-size="13px" font-style="normal" font-weight="bold" text-decoration="none" x="106.35498046875" y="363.5">点数计算</text></g></g><g transform="translate(-70,-142) scale(1,1)"><g><path fill="none" stroke="none"/><text fill="#000000" stroke="none" font-family="Arial" font-size="13px" font-style="normal" font-weight="normal" text-decoration="none" x="85" y="386.5">-比较结果状态</text></g></g><g transform="translate(-70,-142) scale(1,1)"><g><path fill="none" stroke="none"/><text fill="#000000" stroke="none" font-family="Arial" font-size="13px" font-style="normal" font-weight="normal" text-decoration="none" x="85" y="409.5">+获取纸牌内容()</text></g></g><g transform="translate(-70,-142) scale(1,1)"><g><path fill="none" stroke="none"/><text fill="#000000" stroke="none" font-family="Arial" font-size="13px" font-style="normal" font-weight="normal" text-decoration="none" x="85" y="424.5">+玩家比较大小()</text></g></g><g transform="translate(-70,-142) scale(1,1)"><g><path fill="none" stroke="none"/><text fill="#000000" stroke="none" font-family="Arial" font-size="13px" font-style="normal" font-weight="normal" text-decoration="none" x="85" y="439.5">+与21比较大小()</text></g></g><g transform="translate(-70,-142) scale(1,1)"><g><path fill="none" stroke="none"/><text fill="#000000" stroke="none" font-family="Arial" font-size="13px" font-style="normal" font-weight="normal" text-decoration="none" x="85" y="454.5">+获取比较结果()</text></g></g><g transform="translate(-70,-142) scale(1,1)"><rect fill="#C0C0C0" stroke="none" x="631" y="166" width="103.25" height="145" opacity="0.2"/></g><g transform="translate(-70,-142) scale(1,1)"><rect fill="#ffffff" stroke="none" x="624" y="159" width="103.25" height="145"/></g><g transform="translate(-70,-142) scale(1,1)"><path fill="none" stroke="#000000" d="M 624 159 L 727.25 159 L 727.25 304 L 624 304 L 624 159 Z Z" stroke-miterlimit="10"/></g><g transform="translate(-70,-142) scale(1,1)"><path fill="none" stroke="#000000" d="M 624 184 L 727.25 184" stroke-miterlimit="10"/></g><g transform="translate(-70,-142) scale(1,1)"><path fill="none" stroke="#000000" d="M 624 237 L 727.25 237" stroke-miterlimit="10"/></g><g transform="translate(-70,-142) scale(1,1)"><g><path fill="none" stroke="none"/><text fill="#000000" stroke="none" font-family="Arial" font-size="13px" font-style="normal" font-weight="bold" text-decoration="none" x="656.125" y="178.5">服务器</text></g></g><g transform="translate(-70,-142) scale(1,1)"><g><path fill="none" stroke="none"/><text fill="#000000" stroke="none" font-family="Arial" font-size="13px" font-style="normal" font-weight="normal" text-decoration="none" x="629" y="201.5">-出牌记录</text></g></g><g transform="translate(-70,-142) scale(1,1)"><g><path fill="none" stroke="none"/><text fill="#000000" stroke="none" font-family="Arial" font-size="13px" font-style="normal" font-weight="normal" text-decoration="none" x="629" y="216.5">-玩家状态记录</text></g></g><g transform="translate(-70,-142) scale(1,1)"><g><path fill="none" stroke="none"/><text fill="#000000" stroke="none" font-family="Arial" font-size="13px" font-style="normal" font-weight="normal" text-decoration="none" x="629" y="231.5">-赔率</text></g></g><g transform="translate(-70,-142) scale(1,1)"><g><path fill="none" stroke="none"/><text fill="#000000" stroke="none" font-family="Arial" font-size="13px" font-style="normal" font-weight="normal" text-decoration="none" x="629" y="254.5">+出牌()</text></g></g><g transform="translate(-70,-142) scale(1,1)"><g><path fill="none" stroke="none"/><text fill="#000000" stroke="none" font-family="Arial" font-size="13px" font-style="normal" font-weight="normal" text-decoration="none" x="629" y="269.5">+获取玩家赌注()</text></g></g><g transform="translate(-70,-142) scale(1,1)"><g><path fill="none" stroke="none"/><text fill="#000000" stroke="none" font-family="Arial" font-size="13px" font-style="normal" font-weight="normal" text-decoration="none" x="629" y="284.5">+玩家余额结算()</text></g></g><g transform="translate(-70,-142) scale(1,1)"><g><path fill="none" stroke="none"/><text fill="#000000" stroke="none" font-family="Arial" font-size="13px" font-style="normal" font-weight="normal" text-decoration="none" x="629" y="299.5">+显示提示消息()</text></g></g><g transform="translate(-70,-142) scale(1,1)"><rect fill="#C0C0C0" stroke="none" x="215" y="367" width="89.57080078125" height="87" opacity="0.2"/></g><g transform="translate(-70,-142) scale(1,1)"><rect fill="#ffffff" stroke="none" x="208" y="360" width="89.57080078125" height="87"/></g><g transform="translate(-70,-142) scale(1,1)"><path fill="none" stroke="#000000" d="M 208 360 L 297.57080078125 360 L 297.57080078125 447 L 208 447 L 208 360 Z Z" stroke-miterlimit="10"/></g><g transform="translate(-70,-142) scale(1,1)"><path fill="none" stroke="#000000" d="M 208 385 L 297.57080078125 385" stroke-miterlimit="10"/></g><g transform="translate(-70,-142) scale(1,1)"><path fill="none" stroke="#000000" d="M 208 395 L 297.57080078125 395" stroke-miterlimit="10"/></g><g transform="translate(-70,-142) scale(1,1)"><g><path fill="none" stroke="none"/><text fill="#000000" stroke="none" font-family="Arial" font-size="13px" font-style="normal" font-weight="bold" text-decoration="none" x="233.285400390625" y="379.5">界面UI</text></g></g><g transform="translate(-70,-142) scale(1,1)"><g><path fill="none" stroke="none"/><text fill="#000000" stroke="none" font-family="Arial" font-size="13px" font-style="normal" font-weight="normal" text-decoration="none" x="213" y="412.5">+接收信息()</text></g></g><g transform="translate(-70,-142) scale(1,1)"><g><path fill="none" stroke="none"/><text fill="#000000" stroke="none" font-family="Arial" font-size="13px" font-style="normal" font-weight="normal" text-decoration="none" x="213" y="427.5">+显示背景()</text></g></g><g transform="translate(-70,-142) scale(1,1)"><g><path fill="none" stroke="none"/><text fill="#000000" stroke="none" font-family="Arial" font-size="13px" font-style="normal" font-weight="normal" text-decoration="none" x="213" y="442.5">+显示按钮()</text></g></g><g transform="translate(-70,-142) scale(1,1)"><rect fill="#C0C0C0" stroke="none" x="351" y="166" width="129.25" height="145" opacity="0.2"/></g><g transform="translate(-70,-142) scale(1,1)"><rect fill="#ffffff" stroke="none" x="344" y="159" width="129.25" height="145"/></g><g transform="translate(-70,-142) scale(1,1)"><path fill="none" stroke="#000000" d="M 344 159 L 473.25 159 L 473.25 304 L 344 304 L 344 159 Z Z" stroke-miterlimit="10"/></g><g transform="translate(-70,-142) scale(1,1)"><path fill="none" stroke="#000000" d="M 344 184 L 473.25 184" stroke-miterlimit="10"/></g><g transform="translate(-70,-142) scale(1,1)"><path fill="none" stroke="#000000" d="M 344 237 L 473.25 237" stroke-miterlimit="10"/></g><g transform="translate(-70,-142) scale(1,1)"><g><path fill="none" stroke="none"/><text fill="#000000" stroke="none" font-family="Arial" font-size="13px" font-style="normal" font-weight="bold" text-decoration="none" x="382.625" y="178.5">游戏系统</text></g></g><g transform="translate(-70,-142) scale(1,1)"><g><path fill="none" stroke="none"/><text fill="#000000" stroke="none" font-family="Arial" font-size="13px" font-style="normal" font-weight="normal" text-decoration="none" x="349" y="201.5">-终端信息</text></g></g><g transform="translate(-70,-142) scale(1,1)"><g><path fill="none" stroke="none"/><text fill="#000000" stroke="none" font-family="Arial" font-size="13px" font-style="normal" font-weight="normal" text-decoration="none" x="349" y="216.5">-时间戳</text></g></g><g transform="translate(-70,-142) scale(1,1)"><g><path fill="none" stroke="none"/><text fill="#000000" stroke="none" font-family="Arial" font-size="13px" font-style="normal" font-weight="normal" text-decoration="none" x="349" y="231.5">-本地日志</text></g></g><g transform="translate(-70,-142) scale(1,1)"><g><path fill="none" stroke="none"/><text fill="#000000" stroke="none" font-family="Arial" font-size="13px" font-style="normal" font-weight="normal" text-decoration="none" x="349" y="254.5">+控制执行对应操作()</text></g></g><g transform="translate(-70,-142) scale(1,1)"><g><path fill="none" stroke="none"/><text fill="#000000" stroke="none" font-family="Arial" font-size="13px" font-style="normal" font-weight="normal" text-decoration="none" x="349" y="269.5">+通信发送()</text></g></g><g transform="translate(-70,-142) scale(1,1)"><g><path fill="none" stroke="none"/><text fill="#000000" stroke="none" font-family="Arial" font-size="13px" font-style="normal" font-weight="normal" text-decoration="none" x="349" y="284.5">+通信接受()</text></g></g><g transform="translate(-70,-142) scale(1,1)"><g><path fill="none" stroke="none"/><text fill="#000000" stroke="none" font-family="Arial" font-size="13px" font-style="normal" font-weight="normal" text-decoration="none" x="349" y="299.5">+记录日志()</text></g></g><g transform="translate(-70,-142) scale(1,1)"><rect fill="#C0C0C0" stroke="none" x="503" y="166" width="103.25" height="87" opacity="0.2"/></g><g transform="translate(-70,-142) scale(1,1)"><rect fill="#ffffff" stroke="none" x="496" y="159" width="103.25" height="87"/></g><g transform="translate(-70,-142) scale(1,1)"><path fill="none" stroke="#000000" d="M 496 159 L 599.25 159 L 599.25 246 L 496 246 L 496 159 Z Z" stroke-miterlimit="10"/></g><g transform="translate(-70,-142) scale(1,1)"><path fill="none" stroke="#000000" d="M 496 184 L 599.25 184" stroke-miterlimit="10"/></g><g transform="translate(-70,-142) scale(1,1)"><path fill="none" stroke="#000000" d="M 496 194 L 599.25 194" stroke-miterlimit="10"/></g><g transform="translate(-70,-142) scale(1,1)"><g><path fill="none" stroke="none"/><text fill="#000000" stroke="none" font-family="Arial" font-size="13px" font-style="normal" font-weight="bold" text-decoration="none" x="534.625" y="178.5">出牌</text></g></g><g transform="translate(-70,-142) scale(1,1)"><g><path fill="none" stroke="none"/><text fill="#000000" stroke="none" font-family="Arial" font-size="13px" font-style="normal" font-weight="normal" text-decoration="none" x="501" y="211.5">+随机抽取纸牌()</text></g></g><g transform="translate(-70,-142) scale(1,1)"><g><path fill="none" stroke="none"/><text fill="#000000" stroke="none" font-family="Arial" font-size="13px" font-style="normal" font-weight="normal" text-decoration="none" x="501" y="226.5">+获取当前玩家()</text></g></g><g transform="translate(-70,-142) scale(1,1)"><g><path fill="none" stroke="none"/><text fill="#000000" stroke="none" font-family="Arial" font-size="13px" font-style="normal" font-weight="normal" text-decoration="none" x="501" y="241.5">+修改拥有纸牌()</text></g></g><g transform="translate(-70,-142) scale(1,1)"><path fill="none" stroke="#000000" d="M 474 217 L 495 213" stroke-miterlimit="10"/></g><g transform="translate(-70,-142) scale(1,1)"><path fill="none" stroke="#000000" d="M 485.80446428987227 219.0367311521854 L 495 213 L 484.22916080881527 210.76638787663603" stroke-miterlimit="10"/></g><g transform="translate(-70,-142) scale(1,1)"><path fill="none" stroke="#000000" d="M 623 219 L 600 214" stroke-miterlimit="10"/></g><g transform="translate(-70,-142) scale(1,1)"><path fill="none" stroke="#000000" d="M 610.8249520248186 212.04541215076497 L 600 214 L 609.0364993053871 220.2722946601493" stroke-miterlimit="10"/></g></g></svg>