<svg version="1.1" xmlns="http://www.w3.org/2000/svg" xmlns:xlink="http://www.w3.org/1999/xlink" width="226" height="123"><defs/><g><text fill="#eeeeee" stroke="none" font-family="Arial" font-size="24px" font-style="normal" font-weight="normal" text-decoration="none" x="0" y="0">UNREGISTERED</text><text fill="#eeeeee" stroke="none" font-family="Arial" font-size="24px" font-style="normal" font-weight="normal" text-decoration="none" x="0" y="30">UNREGISTERED</text><text fill="#eeeeee" stroke="none" font-family="Arial" font-size="24px" font-style="normal" font-weight="normal" text-decoration="none" x="0" y="60">UNREGISTERED</text><text fill="#eeeeee" stroke="none" font-family="Arial" font-size="24px" font-style="normal" font-weight="normal" text-decoration="none" x="0" y="90">UNREGISTERED</text><text fill="#eeeeee" stroke="none" font-family="Arial" font-size="24px" font-style="normal" font-weight="normal" text-decoration="none" x="0" y="120">UNREGISTERED</text><text fill="#eeeeee" stroke="none" font-family="Arial" font-size="24px" font-style="normal" font-weight="normal" text-decoration="none" x="200" y="0">UNREGISTERED</text><text fill="#eeeeee" stroke="none" font-family="Arial" font-size="24px" font-style="normal" font-weight="normal" text-decoration="none" x="200" y="30">UNREGISTERED</text><text fill="#eeeeee" stroke="none" font-family="Arial" font-size="24px" font-style="normal" font-weight="normal" text-decoration="none" x="200" y="60">UNREGISTERED</text><text fill="#eeeeee" stroke="none" font-family="Arial" font-size="24px" font-style="normal" font-weight="normal" text-decoration="none" x="200" y="90">UNREGISTERED</text><text fill="#eeeeee" stroke="none" font-family="Arial" font-size="24px" font-style="normal" font-weight="normal" text-decoration="none" x="200" y="120">UNREGISTERED</text><g transform="translate(-338,-106) scale(1,1)"><rect fill="#C0C0C0" stroke="none" x="355" y="135" width="35" height="24" opacity="0.2"/></g><g transform="translate(-338,-106) scale(1,1)"><rect fill="#ffffff" stroke="none" x="348" y="128" width="35" height="24"/></g><g transform="translate(-338,-106) scale(1,1)"><path fill="none" stroke="#000000" d="M 348 128 L 383 128 L 383 152 L 348 152 L 348 128 Z Z" stroke-miterlimit="10"/></g><g transform="translate(-338,-106) scale(1,1)"><g><path fill="none" stroke="none"/><text fill="#000000" stroke="none" font-family="Arial" font-size="13px" font-style="normal" font-weight="bold" text-decoration="none" x="352.5" y="147.5">出牌</text></g></g><g transform="translate(-338,-106) scale(1,1)"><rect fill="#C0C0C0" stroke="none" x="513" y="202" width="35" height="24" opacity="0.2"/></g><g transform="translate(-338,-106) scale(1,1)"><rect fill="#ffffff" stroke="none" x="506" y="195" width="35" height="24"/></g><g transform="translate(-338,-106) scale(1,1)"><path fill="none" stroke="#000000" d="M 506 195 L 541 195 L 541 219 L 506 219 L 506 195 Z Z" stroke-miterlimit="10"/></g><g transform="translate(-338,-106) scale(1,1)"><g><path fill="none" stroke="none"/><text fill="#000000" stroke="none" font-family="Arial" font-size="13px" font-style="normal" font-weight="bold" text-decoration="none" x="510.5" y="214.5">庄家</text></g></g><g transform="translate(-338,-106) scale(1,1)"><rect fill="#C0C0C0" stroke="none" x="421" y="135" width="48" height="24" opacity="0.2"/></g><g transform="translate(-338,-106) scale(1,1)"><rect fill="#ffffff" stroke="none" x="414" y="128" width="48" height="24"/></g><g transform="translate(-338,-106) scale(1,1)"><path fill="none" stroke="#000000" d="M 414 128 L 462 128 L 462 152 L 414 152 L 414 128 Z Z" stroke-miterlimit="10"/></g><g transform="translate(-338,-106) scale(1,1)"><g><path fill="none" stroke="none"/><text fill="#000000" stroke="none" font-family="Arial" font-size="13px" font-style="normal" font-weight="bold" text-decoration="none" x="418.5" y="147.5">界面UI</text></g></g><g transform="translate(-338,-106) scale(1,1)"><path fill="#C0C0C0" stroke="none" d="M 519 134.5 C 519 128.1487248 524.1487248 123 530.5 123 C 536.8512752 123 542 128.1487248 542 134.5 C 542 140.8512752 536.8512752 146 530.5 146 C 524.1487248 146 519 140.8512752 519 134.5 Z" opacity="0.2"/></g><g transform="translate(-338,-106) scale(1,1)"><path fill="#ffffff" stroke="none" d="M 512 127.5 C 512 121.1487248 517.1487248 116 523.5 116 C 529.8512752 116 535 121.1487248 535 127.5 C 535 133.8512752 529.8512752 139 523.5 139 C 517.1487248 139 512 133.8512752 512 127.5 Z"/></g><g transform="translate(-338,-106) scale(1,1)"><path fill="none" stroke="#000000" d="M 512 127.5 C 512 121.1487248 517.1487248 116 523.5 116 C 529.8512752 116 535 121.1487248 535 127.5 C 535 133.8512752 529.8512752 139 523.5 139 C 517.1487248 139 512 133.8512752 512 127.5 Z" stroke-miterlimit="10"/></g><g transform="translate(-338,-106) scale(1,1)"><g><path fill="none" stroke="none"/><text fill="#000000" stroke="none" font-family="Arial" font-size="13px" font-style="normal" font-weight="bold" text-decoration="none" x="497.5" y="158.5">纸牌显示</text></g></g><g transform="translate(-338,-106) scale(1,1)"><path fill="none" stroke="#000000" d="M 523 194 L 523 139" stroke-miterlimit="10"/></g><g transform="translate(-338,-106) scale(1,1)"><path fill="none" stroke="#000000" d="M 523 194 Q 524 180 523.3157894736842 139" stroke-miterlimit="10"/></g></g></svg>