<?xml version="1.0" encoding="utf-8"?>
<svg version="1.1" xmlns:xlink="http://www.w3.org/1999/xlink" width="222px" height="188px" xmlns="http://www.w3.org/2000/svg">
  <g transform="matrix(1 0 0 1 -270 -76 )">
    <path d="M 271 78  A 1 1 0 0 1 272 77 L 490 77  A 1 1 0 0 1 491 78 L 491 262  A 1 1 0 0 1 490 263 L 272 263  A 1 1 0 0 1 271 262 L 271 78  Z " fill-rule="nonzero" fill="#33ab9f" stroke="none" fill-opacity="0.8" />
    <path d="M 270.5 78  A 1.5 1.5 0 0 1 272 76.5 L 490 76.5  A 1.5 1.5 0 0 1 491.5 78 L 491.5 262  A 1.5 1.5 0 0 1 490 263.5 L 272 263.5  A 1.5 1.5 0 0 1 270.5 262 L 270.5 78  Z " stroke-width="1" stroke="#33ab9f" fill="none" stroke-opacity="0.8" />
  </g>
</svg>