<?xml version="1.0" encoding="utf-8"?>
<svg version="1.1" xmlns:xlink="http://www.w3.org/1999/xlink" width="13px" height="10px" xmlns="http://www.w3.org/2000/svg">
  <defs>
    <mask fill="white" id="clip13">
      <path d="M 0 5  C 0 7.761423749  2.9101491263 10  6.5 10  C 10.0898508737 10  13 7.761423749  13 5  C 13 2.238576251  10.0898508737 0  6.5 0  C 2.9101491263 0  0 2.238576251  0 5  Z " fill-rule="evenodd" />
    </mask>
  </defs>
  <g transform="matrix(1 0 0 1 -1186 -433 )">
    <path d="M 0 5  C 0 7.761423749  2.9101491263 10  6.5 10  C 10.0898508737 10  13 7.761423749  13 5  C 13 2.238576251  10.0898508737 0  6.5 0  C 2.9101491263 0  0 2.238576251  0 5  Z " fill-rule="nonzero" fill="#33ab9f" stroke="none" fill-opacity="0.996078431372549" transform="matrix(1 0 0 1 1186 433 )" />
    <path d="M 0 5  C 0 7.761423749  2.9101491263 10  6.5 10  C 10.0898508737 10  13 7.761423749  13 5  C 13 2.238576251  10.0898508737 0  6.5 0  C 2.9101491263 0  0 2.238576251  0 5  Z " stroke-width="2" stroke="#ffffff" fill="none" stroke-opacity="0.850980392156863" transform="matrix(1 0 0 1 1186 433 )" mask="url(#clip13)" />
  </g>
</svg>