<svg version="1.1" xmlns="http://www.w3.org/2000/svg" xmlns:xlink="http://www.w3.org/1999/xlink" width="1095" height="585"><defs/><g><text fill="#eeeeee" stroke="none" font-family="Arial" font-size="24px" font-style="normal" font-weight="normal" text-decoration="none" x="0" y="0">UNREGISTERED</text><text fill="#eeeeee" stroke="none" font-family="Arial" font-size="24px" font-style="normal" font-weight="normal" text-decoration="none" x="0" y="30">UNREGISTERED</text><text fill="#eeeeee" stroke="none" font-family="Arial" font-size="24px" font-style="normal" font-weight="normal" text-decoration="none" x="0" y="60">UNREGISTERED</text><text fill="#eeeeee" stroke="none" font-family="Arial" font-size="24px" font-style="normal" font-weight="normal" text-decoration="none" x="0" y="90">UNREGISTERED</text><text fill="#eeeeee" stroke="none" font-family="Arial" font-size="24px" font-style="normal" font-weight="normal" text-decoration="none" x="0" y="120">UNREGISTERED</text><text fill="#eeeeee" stroke="none" font-family="Arial" font-size="24px" font-style="normal" font-weight="normal" text-decoration="none" x="0" y="150">UNREGISTERED</text><text fill="#eeeeee" stroke="none" font-family="Arial" font-size="24px" font-style="normal" font-weight="normal" text-decoration="none" x="0" y="180">UNREGISTERED</text><text fill="#eeeeee" stroke="none" font-family="Arial" font-size="24px" font-style="normal" font-weight="normal" text-decoration="none" x="0" y="210">UNREGISTERED</text><text fill="#eeeeee" stroke="none" font-family="Arial" font-size="24px" font-style="normal" font-weight="normal" text-decoration="none" x="0" y="240">UNREGISTERED</text><text fill="#eeeeee" stroke="none" font-family="Arial" font-size="24px" font-style="normal" font-weight="normal" text-decoration="none" x="0" y="270">UNREGISTERED</text><text fill="#eeeeee" stroke="none" font-family="Arial" font-size="24px" font-style="normal" font-weight="normal" text-decoration="none" x="0" y="300">UNREGISTERED</text><text fill="#eeeeee" stroke="none" font-family="Arial" font-size="24px" font-style="normal" font-weight="normal" text-decoration="none" x="0" y="330">UNREGISTERED</text><text fill="#eeeeee" stroke="none" font-family="Arial" font-size="24px" font-style="normal" font-weight="normal" text-decoration="none" x="0" y="360">UNREGISTERED</text><text fill="#eeeeee" stroke="none" font-family="Arial" font-size="24px" font-style="normal" font-weight="normal" text-decoration="none" x="0" y="390">UNREGISTERED</text><text fill="#eeeeee" stroke="none" font-family="Arial" font-size="24px" font-style="normal" font-weight="normal" text-decoration="none" x="0" y="420">UNREGISTERED</text><text fill="#eeeeee" stroke="none" font-family="Arial" font-size="24px" font-style="normal" font-weight="normal" text-decoration="none" x="0" y="450">UNREGISTERED</text><text fill="#eeeeee" stroke="none" font-family="Arial" font-size="24px" font-style="normal" font-weight="normal" text-decoration="none" x="0" y="480">UNREGISTERED</text><text fill="#eeeeee" stroke="none" font-family="Arial" font-size="24px" font-style="normal" font-weight="normal" text-decoration="none" x="0" y="510">UNREGISTERED</text><text fill="#eeeeee" stroke="none" font-family="Arial" font-size="24px" font-style="normal" font-weight="normal" text-decoration="none" x="0" y="540">UNREGISTERED</text><text fill="#eeeeee" stroke="none" font-family="Arial" font-size="24px" font-style="normal" font-weight="normal" text-decoration="none" x="0" y="570">UNREGISTERED</text><text fill="#eeeeee" stroke="none" font-family="Arial" font-size="24px" font-style="normal" font-weight="normal" text-decoration="none" x="200" y="0">UNREGISTERED</text><text fill="#eeeeee" stroke="none" font-family="Arial" font-size="24px" font-style="normal" font-weight="normal" text-decoration="none" x="200" y="30">UNREGISTERED</text><text fill="#eeeeee" stroke="none" font-family="Arial" font-size="24px" font-style="normal" font-weight="normal" text-decoration="none" x="200" y="60">UNREGISTERED</text><text fill="#eeeeee" stroke="none" font-family="Arial" font-size="24px" font-style="normal" font-weight="normal" text-decoration="none" x="200" y="90">UNREGISTERED</text><text fill="#eeeeee" stroke="none" font-family="Arial" font-size="24px" font-style="normal" font-weight="normal" text-decoration="none" x="200" y="120">UNREGISTERED</text><text fill="#eeeeee" stroke="none" font-family="Arial" font-size="24px" font-style="normal" font-weight="normal" text-decoration="none" x="200" y="150">UNREGISTERED</text><text fill="#eeeeee" stroke="none" font-family="Arial" font-size="24px" font-style="normal" font-weight="normal" text-decoration="none" x="200" y="180">UNREGISTERED</text><text fill="#eeeeee" stroke="none" font-family="Arial" font-size="24px" font-style="normal" font-weight="normal" text-decoration="none" x="200" y="210">UNREGISTERED</text><text fill="#eeeeee" stroke="none" font-family="Arial" font-size="24px" font-style="normal" font-weight="normal" text-decoration="none" x="200" y="240">UNREGISTERED</text><text fill="#eeeeee" stroke="none" font-family="Arial" font-size="24px" font-style="normal" font-weight="normal" text-decoration="none" x="200" y="270">UNREGISTERED</text><text fill="#eeeeee" stroke="none" font-family="Arial" font-size="24px" font-style="normal" font-weight="normal" text-decoration="none" x="200" y="300">UNREGISTERED</text><text fill="#eeeeee" stroke="none" font-family="Arial" font-size="24px" font-style="normal" font-weight="normal" text-decoration="none" x="200" y="330">UNREGISTERED</text><text fill="#eeeeee" stroke="none" font-family="Arial" font-size="24px" font-style="normal" font-weight="normal" text-decoration="none" x="200" y="360">UNREGISTERED</text><text fill="#eeeeee" stroke="none" font-family="Arial" font-size="24px" font-style="normal" font-weight="normal" text-decoration="none" x="200" y="390">UNREGISTERED</text><text fill="#eeeeee" stroke="none" font-family="Arial" font-size="24px" font-style="normal" font-weight="normal" text-decoration="none" x="200" y="420">UNREGISTERED</text><text fill="#eeeeee" stroke="none" font-family="Arial" font-size="24px" font-style="normal" font-weight="normal" text-decoration="none" x="200" y="450">UNREGISTERED</text><text fill="#eeeeee" stroke="none" font-family="Arial" font-size="24px" font-style="normal" font-weight="normal" text-decoration="none" x="200" y="480">UNREGISTERED</text><text fill="#eeeeee" stroke="none" font-family="Arial" font-size="24px" font-style="normal" font-weight="normal" text-decoration="none" x="200" y="510">UNREGISTERED</text><text fill="#eeeeee" stroke="none" font-family="Arial" font-size="24px" font-style="normal" font-weight="normal" text-decoration="none" x="200" y="540">UNREGISTERED</text><text fill="#eeeeee" stroke="none" font-family="Arial" font-size="24px" font-style="normal" font-weight="normal" text-decoration="none" x="200" y="570">UNREGISTERED</text><text fill="#eeeeee" stroke="none" font-family="Arial" font-size="24px" font-style="normal" font-weight="normal" text-decoration="none" x="400" y="0">UNREGISTERED</text><text fill="#eeeeee" stroke="none" font-family="Arial" font-size="24px" font-style="normal" font-weight="normal" text-decoration="none" x="400" y="30">UNREGISTERED</text><text fill="#eeeeee" stroke="none" font-family="Arial" font-size="24px" font-style="normal" font-weight="normal" text-decoration="none" x="400" y="60">UNREGISTERED</text><text fill="#eeeeee" stroke="none" font-family="Arial" font-size="24px" font-style="normal" font-weight="normal" text-decoration="none" x="400" y="90">UNREGISTERED</text><text fill="#eeeeee" stroke="none" font-family="Arial" font-size="24px" font-style="normal" font-weight="normal" text-decoration="none" x="400" y="120">UNREGISTERED</text><text fill="#eeeeee" stroke="none" font-family="Arial" font-size="24px" font-style="normal" font-weight="normal" text-decoration="none" x="400" y="150">UNREGISTERED</text><text fill="#eeeeee" stroke="none" font-family="Arial" font-size="24px" font-style="normal" font-weight="normal" text-decoration="none" x="400" y="180">UNREGISTERED</text><text fill="#eeeeee" stroke="none" font-family="Arial" font-size="24px" font-style="normal" font-weight="normal" text-decoration="none" x="400" y="210">UNREGISTERED</text><text fill="#eeeeee" stroke="none" font-family="Arial" font-size="24px" font-style="normal" font-weight="normal" text-decoration="none" x="400" y="240">UNREGISTERED</text><text fill="#eeeeee" stroke="none" font-family="Arial" font-size="24px" font-style="normal" font-weight="normal" text-decoration="none" x="400" y="270">UNREGISTERED</text><text fill="#eeeeee" stroke="none" font-family="Arial" font-size="24px" font-style="normal" font-weight="normal" text-decoration="none" x="400" y="300">UNREGISTERED</text><text fill="#eeeeee" stroke="none" font-family="Arial" font-size="24px" font-style="normal" font-weight="normal" text-decoration="none" x="400" y="330">UNREGISTERED</text><text fill="#eeeeee" stroke="none" font-family="Arial" font-size="24px" font-style="normal" font-weight="normal" text-decoration="none" x="400" y="360">UNREGISTERED</text><text fill="#eeeeee" stroke="none" font-family="Arial" font-size="24px" font-style="normal" font-weight="normal" text-decoration="none" x="400" y="390">UNREGISTERED</text><text fill="#eeeeee" stroke="none" font-family="Arial" font-size="24px" font-style="normal" font-weight="normal" text-decoration="none" x="400" y="420">UNREGISTERED</text><text fill="#eeeeee" stroke="none" font-family="Arial" font-size="24px" font-style="normal" font-weight="normal" text-decoration="none" x="400" y="450">UNREGISTERED</text><text fill="#eeeeee" stroke="none" font-family="Arial" font-size="24px" font-style="normal" font-weight="normal" text-decoration="none" x="400" y="480">UNREGISTERED</text><text fill="#eeeeee" stroke="none" font-family="Arial" font-size="24px" font-style="normal" font-weight="normal" text-decoration="none" x="400" y="510">UNREGISTERED</text><text fill="#eeeeee" stroke="none" font-family="Arial" font-size="24px" font-style="normal" font-weight="normal" text-decoration="none" x="400" y="540">UNREGISTERED</text><text fill="#eeeeee" stroke="none" font-family="Arial" font-size="24px" font-style="normal" font-weight="normal" text-decoration="none" x="400" y="570">UNREGISTERED</text><text fill="#eeeeee" stroke="none" font-family="Arial" font-size="24px" font-style="normal" font-weight="normal" text-decoration="none" x="600" y="0">UNREGISTERED</text><text fill="#eeeeee" stroke="none" font-family="Arial" font-size="24px" font-style="normal" font-weight="normal" text-decoration="none" x="600" y="30">UNREGISTERED</text><text fill="#eeeeee" stroke="none" font-family="Arial" font-size="24px" font-style="normal" font-weight="normal" text-decoration="none" x="600" y="60">UNREGISTERED</text><text fill="#eeeeee" stroke="none" font-family="Arial" font-size="24px" font-style="normal" font-weight="normal" text-decoration="none" x="600" y="90">UNREGISTERED</text><text fill="#eeeeee" stroke="none" font-family="Arial" font-size="24px" font-style="normal" font-weight="normal" text-decoration="none" x="600" y="120">UNREGISTERED</text><text fill="#eeeeee" stroke="none" font-family="Arial" font-size="24px" font-style="normal" font-weight="normal" text-decoration="none" x="600" y="150">UNREGISTERED</text><text fill="#eeeeee" stroke="none" font-family="Arial" font-size="24px" font-style="normal" font-weight="normal" text-decoration="none" x="600" y="180">UNREGISTERED</text><text fill="#eeeeee" stroke="none" font-family="Arial" font-size="24px" font-style="normal" font-weight="normal" text-decoration="none" x="600" y="210">UNREGISTERED</text><text fill="#eeeeee" stroke="none" font-family="Arial" font-size="24px" font-style="normal" font-weight="normal" text-decoration="none" x="600" y="240">UNREGISTERED</text><text fill="#eeeeee" stroke="none" font-family="Arial" font-size="24px" font-style="normal" font-weight="normal" text-decoration="none" x="600" y="270">UNREGISTERED</text><text fill="#eeeeee" stroke="none" font-family="Arial" font-size="24px" font-style="normal" font-weight="normal" text-decoration="none" x="600" y="300">UNREGISTERED</text><text fill="#eeeeee" stroke="none" font-family="Arial" font-size="24px" font-style="normal" font-weight="normal" text-decoration="none" x="600" y="330">UNREGISTERED</text><text fill="#eeeeee" stroke="none" font-family="Arial" font-size="24px" font-style="normal" font-weight="normal" text-decoration="none" x="600" y="360">UNREGISTERED</text><text fill="#eeeeee" stroke="none" font-family="Arial" font-size="24px" font-style="normal" font-weight="normal" text-decoration="none" x="600" y="390">UNREGISTERED</text><text fill="#eeeeee" stroke="none" font-family="Arial" font-size="24px" font-style="normal" font-weight="normal" text-decoration="none" x="600" y="420">UNREGISTERED</text><text fill="#eeeeee" stroke="none" font-family="Arial" font-size="24px" font-style="normal" font-weight="normal" text-decoration="none" x="600" y="450">UNREGISTERED</text><text fill="#eeeeee" stroke="none" font-family="Arial" font-size="24px" font-style="normal" font-weight="normal" text-decoration="none" x="600" y="480">UNREGISTERED</text><text fill="#eeeeee" stroke="none" font-family="Arial" font-size="24px" font-style="normal" font-weight="normal" text-decoration="none" x="600" y="510">UNREGISTERED</text><text fill="#eeeeee" stroke="none" font-family="Arial" font-size="24px" font-style="normal" font-weight="normal" text-decoration="none" x="600" y="540">UNREGISTERED</text><text fill="#eeeeee" stroke="none" font-family="Arial" font-size="24px" font-style="normal" font-weight="normal" text-decoration="none" x="600" y="570">UNREGISTERED</text><text fill="#eeeeee" stroke="none" font-family="Arial" font-size="24px" font-style="normal" font-weight="normal" text-decoration="none" x="800" y="0">UNREGISTERED</text><text fill="#eeeeee" stroke="none" font-family="Arial" font-size="24px" font-style="normal" font-weight="normal" text-decoration="none" x="800" y="30">UNREGISTERED</text><text fill="#eeeeee" stroke="none" font-family="Arial" font-size="24px" font-style="normal" font-weight="normal" text-decoration="none" x="800" y="60">UNREGISTERED</text><text fill="#eeeeee" stroke="none" font-family="Arial" font-size="24px" font-style="normal" font-weight="normal" text-decoration="none" x="800" y="90">UNREGISTERED</text><text fill="#eeeeee" stroke="none" font-family="Arial" font-size="24px" font-style="normal" font-weight="normal" text-decoration="none" x="800" y="120">UNREGISTERED</text><text fill="#eeeeee" stroke="none" font-family="Arial" font-size="24px" font-style="normal" font-weight="normal" text-decoration="none" x="800" y="150">UNREGISTERED</text><text fill="#eeeeee" stroke="none" font-family="Arial" font-size="24px" font-style="normal" font-weight="normal" text-decoration="none" x="800" y="180">UNREGISTERED</text><text fill="#eeeeee" stroke="none" font-family="Arial" font-size="24px" font-style="normal" font-weight="normal" text-decoration="none" x="800" y="210">UNREGISTERED</text><text fill="#eeeeee" stroke="none" font-family="Arial" font-size="24px" font-style="normal" font-weight="normal" text-decoration="none" x="800" y="240">UNREGISTERED</text><text fill="#eeeeee" stroke="none" font-family="Arial" font-size="24px" font-style="normal" font-weight="normal" text-decoration="none" x="800" y="270">UNREGISTERED</text><text fill="#eeeeee" stroke="none" font-family="Arial" font-size="24px" font-style="normal" font-weight="normal" text-decoration="none" x="800" y="300">UNREGISTERED</text><text fill="#eeeeee" stroke="none" font-family="Arial" font-size="24px" font-style="normal" font-weight="normal" text-decoration="none" x="800" y="330">UNREGISTERED</text><text fill="#eeeeee" stroke="none" font-family="Arial" font-size="24px" font-style="normal" font-weight="normal" text-decoration="none" x="800" y="360">UNREGISTERED</text><text fill="#eeeeee" stroke="none" font-family="Arial" font-size="24px" font-style="normal" font-weight="normal" text-decoration="none" x="800" y="390">UNREGISTERED</text><text fill="#eeeeee" stroke="none" font-family="Arial" font-size="24px" font-style="normal" font-weight="normal" text-decoration="none" x="800" y="420">UNREGISTERED</text><text fill="#eeeeee" stroke="none" font-family="Arial" font-size="24px" font-style="normal" font-weight="normal" text-decoration="none" x="800" y="450">UNREGISTERED</text><text fill="#eeeeee" stroke="none" font-family="Arial" font-size="24px" font-style="normal" font-weight="normal" text-decoration="none" x="800" y="480">UNREGISTERED</text><text fill="#eeeeee" stroke="none" font-family="Arial" font-size="24px" font-style="normal" font-weight="normal" text-decoration="none" x="800" y="510">UNREGISTERED</text><text fill="#eeeeee" stroke="none" font-family="Arial" font-size="24px" font-style="normal" font-weight="normal" text-decoration="none" x="800" y="540">UNREGISTERED</text><text fill="#eeeeee" stroke="none" font-family="Arial" font-size="24px" font-style="normal" font-weight="normal" text-decoration="none" x="800" y="570">UNREGISTERED</text><text fill="#eeeeee" stroke="none" font-family="Arial" font-size="24px" font-style="normal" font-weight="normal" text-decoration="none" x="1000" y="0">UNREGISTERED</text><text fill="#eeeeee" stroke="none" font-family="Arial" font-size="24px" font-style="normal" font-weight="normal" text-decoration="none" x="1000" y="30">UNREGISTERED</text><text fill="#eeeeee" stroke="none" font-family="Arial" font-size="24px" font-style="normal" font-weight="normal" text-decoration="none" x="1000" y="60">UNREGISTERED</text><text fill="#eeeeee" stroke="none" font-family="Arial" font-size="24px" font-style="normal" font-weight="normal" text-decoration="none" x="1000" y="90">UNREGISTERED</text><text fill="#eeeeee" stroke="none" font-family="Arial" font-size="24px" font-style="normal" font-weight="normal" text-decoration="none" x="1000" y="120">UNREGISTERED</text><text fill="#eeeeee" stroke="none" font-family="Arial" font-size="24px" font-style="normal" font-weight="normal" text-decoration="none" x="1000" y="150">UNREGISTERED</text><text fill="#eeeeee" stroke="none" font-family="Arial" font-size="24px" font-style="normal" font-weight="normal" text-decoration="none" x="1000" y="180">UNREGISTERED</text><text fill="#eeeeee" stroke="none" font-family="Arial" font-size="24px" font-style="normal" font-weight="normal" text-decoration="none" x="1000" y="210">UNREGISTERED</text><text fill="#eeeeee" stroke="none" font-family="Arial" font-size="24px" font-style="normal" font-weight="normal" text-decoration="none" x="1000" y="240">UNREGISTERED</text><text fill="#eeeeee" stroke="none" font-family="Arial" font-size="24px" font-style="normal" font-weight="normal" text-decoration="none" x="1000" y="270">UNREGISTERED</text><text fill="#eeeeee" stroke="none" font-family="Arial" font-size="24px" font-style="normal" font-weight="normal" text-decoration="none" x="1000" y="300">UNREGISTERED</text><text fill="#eeeeee" stroke="none" font-family="Arial" font-size="24px" font-style="normal" font-weight="normal" text-decoration="none" x="1000" y="330">UNREGISTERED</text><text fill="#eeeeee" stroke="none" font-family="Arial" font-size="24px" font-style="normal" font-weight="normal" text-decoration="none" x="1000" y="360">UNREGISTERED</text><text fill="#eeeeee" stroke="none" font-family="Arial" font-size="24px" font-style="normal" font-weight="normal" text-decoration="none" x="1000" y="390">UNREGISTERED</text><text fill="#eeeeee" stroke="none" font-family="Arial" font-size="24px" font-style="normal" font-weight="normal" text-decoration="none" x="1000" y="420">UNREGISTERED</text><text fill="#eeeeee" stroke="none" font-family="Arial" font-size="24px" font-style="normal" font-weight="normal" text-decoration="none" x="1000" y="450">UNREGISTERED</text><text fill="#eeeeee" stroke="none" font-family="Arial" font-size="24px" font-style="normal" font-weight="normal" text-decoration="none" x="1000" y="480">UNREGISTERED</text><text fill="#eeeeee" stroke="none" font-family="Arial" font-size="24px" font-style="normal" font-weight="normal" text-decoration="none" x="1000" y="510">UNREGISTERED</text><text fill="#eeeeee" stroke="none" font-family="Arial" font-size="24px" font-style="normal" font-weight="normal" text-decoration="none" x="1000" y="540">UNREGISTERED</text><text fill="#eeeeee" stroke="none" font-family="Arial" font-size="24px" font-style="normal" font-weight="normal" text-decoration="none" x="1000" y="570">UNREGISTERED</text><g transform="translate(-86,-838) scale(1,1)"><path fill="#ffffff" stroke="none" d="M 209.13615696022728 857.6800000000001 C 209.13615696022728 852.8861679360001 213.02199928517274 849 217.8154296875 849 C 222.60886008982726 849 226.49470241477272 852.8861679360001 226.49470241477272 857.6800000000001 C 226.49470241477272 862.473832064 222.60886008982726 866.36 217.8154296875 866.36 C 213.02199928517274 866.36 209.13615696022728 862.473832064 209.13615696022728 857.6800000000001 Z"/></g><g transform="translate(-86,-838) scale(1,1)"><path fill="none" stroke="#000000" d="M 209.13615696022728 857.6800000000001 C 209.13615696022728 852.8861679360001 213.02199928517274 849 217.8154296875 849 C 222.60886008982726 849 226.49470241477272 852.8861679360001 226.49470241477272 857.6800000000001 C 226.49470241477272 862.473832064 222.60886008982726 866.36 217.8154296875 866.36 C 213.02199928517274 866.36 209.13615696022728 862.473832064 209.13615696022728 857.6800000000001 Z" stroke-miterlimit="10"/></g><g transform="translate(-86,-838) scale(1,1)"><path fill="none" stroke="#000000" d="M 217.8154296875 866.36 L 217.8154296875 883.64" stroke-miterlimit="10"/></g><g transform="translate(-86,-838) scale(1,1)"><path fill="none" stroke="#000000" d="M 208.62561150568183 872.84 L 227.00524786931817 872.84" stroke-miterlimit="10"/></g><g transform="translate(-86,-838) scale(1,1)"><path fill="none" stroke="#000000" d="M 217.8154296875 883.64 L 205.05179332386365 901" stroke-miterlimit="10"/></g><g transform="translate(-86,-838) scale(1,1)"><path fill="none" stroke="#000000" d="M 217.8154296875 883.64 L 230.57906605113635 901" stroke-miterlimit="10"/></g><g transform="translate(-86,-838) scale(1,1)"><g><path fill="none" stroke="none"/><text fill="#000000" stroke="none" font-family="Arial" font-size="13px" font-style="normal" font-weight="bold" text-decoration="none" x="204.8154296875" y="921.5">庄家</text></g></g><g transform="translate(-86,-838) scale(1,1)"><path fill="#ffffff" stroke="none" d="M 112.40935031960228 1025.6799999999998 C 112.40935031960228 1020.8861679359999 116.29519264454774 1017 121.088623046875 1017 C 125.88205344920226 1017 129.76789577414772 1020.8861679359999 129.76789577414772 1025.6799999999998 C 129.76789577414772 1030.473832064 125.88205344920226 1034.36 121.088623046875 1034.36 C 116.29519264454774 1034.36 112.40935031960228 1030.473832064 112.40935031960228 1025.6799999999998 Z"/></g><g transform="translate(-86,-838) scale(1,1)"><path fill="none" stroke="#000000" d="M 112.40935031960228 1025.6799999999998 C 112.40935031960228 1020.8861679359999 116.29519264454774 1017 121.088623046875 1017 C 125.88205344920226 1017 129.76789577414772 1020.8861679359999 129.76789577414772 1025.6799999999998 C 129.76789577414772 1030.473832064 125.88205344920226 1034.36 121.088623046875 1034.36 C 116.29519264454774 1034.36 112.40935031960228 1030.473832064 112.40935031960228 1025.6799999999998 Z" stroke-miterlimit="10"/></g><g transform="translate(-86,-838) scale(1,1)"><path fill="none" stroke="#000000" d="M 121.088623046875 1034.36 L 121.088623046875 1051.64" stroke-miterlimit="10"/></g><g transform="translate(-86,-838) scale(1,1)"><path fill="none" stroke="#000000" d="M 111.89880486505683 1040.84 L 130.27844122869317 1040.84" stroke-miterlimit="10"/></g><g transform="translate(-86,-838) scale(1,1)"><path fill="none" stroke="#000000" d="M 121.088623046875 1051.64 L 108.32498668323865 1069" stroke-miterlimit="10"/></g><g transform="translate(-86,-838) scale(1,1)"><path fill="none" stroke="#000000" d="M 121.088623046875 1051.64 L 133.85225941051135 1069" stroke-miterlimit="10"/></g><g transform="translate(-86,-838) scale(1,1)"><g><path fill="none" stroke="none"/><text fill="#000000" stroke="none" font-family="Arial" font-size="13px" font-style="normal" font-weight="bold" text-decoration="none" x="108.088623046875" y="1089.5">闲家</text></g></g><g transform="translate(-86,-838) scale(1,1)"><path fill="#C0C0C0" stroke="none" d="M 345 994 C 345 984.6111584 367.6096176 977 395.5 977 C 423.3903824 977 446 984.6111584 446 994 C 446 1003.3888416 423.3903824 1011 395.5 1011 C 367.6096176 1011 345 1003.3888416 345 994 Z" opacity="0.2"/></g><g transform="translate(-86,-838) scale(1,1)"><path fill="#ffffff" stroke="none" d="M 338 987 C 338 977.6111584 360.6096176 970 388.5 970 C 416.3903824 970 439 977.6111584 439 987 C 439 996.3888416 416.3903824 1004 388.5 1004 C 360.6096176 1004 338 996.3888416 338 987 Z"/></g><g transform="translate(-86,-838) scale(1,1)"><path fill="none" stroke="#000000" d="M 338 987 C 338 977.6111584 360.6096176 970 388.5 970 C 416.3903824 970 439 977.6111584 439 987 C 439 996.3888416 416.3903824 1004 388.5 1004 C 360.6096176 1004 338 996.3888416 338 987 Z" stroke-miterlimit="10"/></g><g transform="translate(-86,-838) scale(1,1)"><g><path fill="none" stroke="none"/><text fill="#000000" stroke="none" font-family="Arial" font-size="13px" font-style="normal" font-weight="bold" text-decoration="none" x="375.5" y="994">加倍</text></g></g><g transform="translate(-86,-838) scale(1,1)"><path fill="#C0C0C0" stroke="none" d="M 345 1047 C 345 1037.6111584 367.6096176 1030 395.5 1030 C 423.3903824 1030 446 1037.6111584 446 1047 C 446 1056.3888416 423.3903824 1064 395.5 1064 C 367.6096176 1064 345 1056.3888416 345 1047 Z" opacity="0.2"/></g><g transform="translate(-86,-838) scale(1,1)"><path fill="#ffffff" stroke="none" d="M 338 1040 C 338 1030.6111584 360.6096176 1023 388.5 1023 C 416.3903824 1023 439 1030.6111584 439 1040 C 439 1049.3888416 416.3903824 1057 388.5 1057 C 360.6096176 1057 338 1049.3888416 338 1040 Z"/></g><g transform="translate(-86,-838) scale(1,1)"><path fill="none" stroke="#000000" d="M 338 1040 C 338 1030.6111584 360.6096176 1023 388.5 1023 C 416.3903824 1023 439 1030.6111584 439 1040 C 439 1049.3888416 416.3903824 1057 388.5 1057 C 360.6096176 1057 338 1049.3888416 338 1040 Z" stroke-miterlimit="10"/></g><g transform="translate(-86,-838) scale(1,1)"><g><path fill="none" stroke="none"/><text fill="#000000" stroke="none" font-family="Arial" font-size="13px" font-style="normal" font-weight="bold" text-decoration="none" x="375.5" y="1047">保险</text></g></g><g transform="translate(-86,-838) scale(1,1)"><path fill="#C0C0C0" stroke="none" d="M 343 941 C 343 931.6111584 366.505048 924 395.5 924 C 424.494952 924 448 931.6111584 448 941 C 448 950.3888416 424.494952 958 395.5 958 C 366.505048 958 343 950.3888416 343 941 Z" opacity="0.2"/></g><g transform="translate(-86,-838) scale(1,1)"><path fill="#ffffff" stroke="none" d="M 336 934 C 336 924.6111584 359.505048 917 388.5 917 C 417.494952 917 441 924.6111584 441 934 C 441 943.3888416 417.494952 951 388.5 951 C 359.505048 951 336 943.3888416 336 934 Z"/></g><g transform="translate(-86,-838) scale(1,1)"><path fill="none" stroke="#000000" d="M 336 934 C 336 924.6111584 359.505048 917 388.5 917 C 417.494952 917 441 924.6111584 441 934 C 441 943.3888416 417.494952 951 388.5 951 C 359.505048 951 336 943.3888416 336 934 Z" stroke-miterlimit="10"/></g><g transform="translate(-86,-838) scale(1,1)"><g><path fill="none" stroke="none"/><text fill="#000000" stroke="none" font-family="Arial" font-size="13px" font-style="normal" font-weight="bold" text-decoration="none" x="375.5" y="941">开始</text></g></g><g transform="translate(-86,-838) scale(1,1)"><path fill="#C0C0C0" stroke="none" d="M 345 1206 C 345 1196.6111584 367.6096176 1189 395.5 1189 C 423.3903824 1189 446 1196.6111584 446 1206 C 446 1215.3888416 423.3903824 1223 395.5 1223 C 367.6096176 1223 345 1215.3888416 345 1206 Z" opacity="0.2"/></g><g transform="translate(-86,-838) scale(1,1)"><path fill="#ffffff" stroke="none" d="M 338 1199 C 338 1189.6111584 360.6096176 1182 388.5 1182 C 416.3903824 1182 439 1189.6111584 439 1199 C 439 1208.3888416 416.3903824 1216 388.5 1216 C 360.6096176 1216 338 1208.3888416 338 1199 Z"/></g><g transform="translate(-86,-838) scale(1,1)"><path fill="none" stroke="#000000" d="M 338 1199 C 338 1189.6111584 360.6096176 1182 388.5 1182 C 416.3903824 1182 439 1189.6111584 439 1199 C 439 1208.3888416 416.3903824 1216 388.5 1216 C 360.6096176 1216 338 1208.3888416 338 1199 Z" stroke-miterlimit="10"/></g><g transform="translate(-86,-838) scale(1,1)"><g><path fill="none" stroke="none"/><text fill="#000000" stroke="none" font-family="Arial" font-size="13px" font-style="normal" font-weight="bold" text-decoration="none" x="375.5" y="1206">听牌</text></g></g><g transform="translate(-86,-838) scale(1,1)"><path fill="none" stroke="#000000" d="M 147 1084 Q 209 1152 337 1186" stroke-miterlimit="10"/></g><g transform="translate(-86,-838) scale(1,1)"><path fill="none" stroke="#000000" d="M 326.09724750740577 1187.459447869994 L 337 1186 L 328.25860429322705 1179.3225752645492" stroke-miterlimit="10"/></g><g transform="translate(-86,-838) scale(1,1)"><path fill="none" stroke="#000000" d="M 147 1054 L 337 1043" stroke-miterlimit="10"/></g><g transform="translate(-86,-838) scale(1,1)"><path fill="none" stroke="#000000" d="M 327.09761559099815 1047.7898625258306 L 337 1043 L 326.61101256151267 1039.384901107445" stroke-miterlimit="10"/></g><g transform="translate(-86,-838) scale(1,1)"><path fill="none" stroke="#000000" d="M 147 1048 L 337 1000" stroke-miterlimit="10"/></g><g transform="translate(-86,-838) scale(1,1)"><path fill="none" stroke="#000000" d="M 328.1779517629892 1006.5704995931707 L 337 1000 L 326.1158250495405 998.4079146857692" stroke-miterlimit="10"/></g><g transform="translate(-86,-838) scale(1,1)"><path fill="none" stroke="#000000" d="M 147 1043 L 348 952" stroke-miterlimit="10"/></g><g transform="translate(-86,-838) scale(1,1)"><path fill="none" stroke="#000000" d="M 340.4781014583796 960.0262720069512 L 348 952 L 337.00578317006006 952.356645897586" stroke-miterlimit="10"/></g><g transform="translate(-86,-838) scale(1,1)"><path fill="#ffffff" stroke="none" d="M 1100.8207272727273 1033.6799999999998 C 1100.8207272727273 1028.8861679359998 1104.7065695976728 1025 1109.5 1025 C 1114.2934304023272 1025 1118.1792727272727 1028.8861679359998 1118.1792727272727 1033.6799999999998 C 1118.1792727272727 1038.473832064 1114.2934304023272 1042.36 1109.5 1042.36 C 1104.7065695976728 1042.36 1100.8207272727273 1038.473832064 1100.8207272727273 1033.6799999999998 Z"/></g><g transform="translate(-86,-838) scale(1,1)"><path fill="none" stroke="#000000" d="M 1100.8207272727273 1033.6799999999998 C 1100.8207272727273 1028.8861679359998 1104.7065695976728 1025 1109.5 1025 C 1114.2934304023272 1025 1118.1792727272727 1028.8861679359998 1118.1792727272727 1033.6799999999998 C 1118.1792727272727 1038.473832064 1114.2934304023272 1042.36 1109.5 1042.36 C 1104.7065695976728 1042.36 1100.8207272727273 1038.473832064 1100.8207272727273 1033.6799999999998 Z" stroke-miterlimit="10"/></g><g transform="translate(-86,-838) scale(1,1)"><path fill="none" stroke="#000000" d="M 1109.5 1042.36 L 1109.5 1059.64" stroke-miterlimit="10"/></g><g transform="translate(-86,-838) scale(1,1)"><path fill="none" stroke="#000000" d="M 1100.3101818181817 1048.84 L 1118.6898181818183 1048.84" stroke-miterlimit="10"/></g><g transform="translate(-86,-838) scale(1,1)"><path fill="none" stroke="#000000" d="M 1109.5 1059.64 L 1096.7363636363636 1077" stroke-miterlimit="10"/></g><g transform="translate(-86,-838) scale(1,1)"><path fill="none" stroke="#000000" d="M 1109.5 1059.64 L 1122.2636363636364 1077" stroke-miterlimit="10"/></g><g transform="translate(-86,-838) scale(1,1)"><g><path fill="none" stroke="none"/><text fill="#000000" stroke="none" font-family="Arial" font-size="13px" font-style="normal" font-weight="bold" text-decoration="none" x="1090" y="1097.5">服务器</text></g></g><g transform="translate(-86,-838) scale(1,1)"><path fill="#C0C0C0" stroke="none" d="M 345 1153 C 345 1143.6111584 367.6096176 1136 395.5 1136 C 423.3903824 1136 446 1143.6111584 446 1153 C 446 1162.3888416 423.3903824 1170 395.5 1170 C 367.6096176 1170 345 1162.3888416 345 1153 Z" opacity="0.2"/></g><g transform="translate(-86,-838) scale(1,1)"><path fill="#ffffff" stroke="none" d="M 338 1146 C 338 1136.6111584 360.6096176 1129 388.5 1129 C 416.3903824 1129 439 1136.6111584 439 1146 C 439 1155.3888416 416.3903824 1163 388.5 1163 C 360.6096176 1163 338 1155.3888416 338 1146 Z"/></g><g transform="translate(-86,-838) scale(1,1)"><path fill="none" stroke="#000000" d="M 338 1146 C 338 1136.6111584 360.6096176 1129 388.5 1129 C 416.3903824 1129 439 1136.6111584 439 1146 C 439 1155.3888416 416.3903824 1163 388.5 1163 C 360.6096176 1163 338 1155.3888416 338 1146 Z" stroke-miterlimit="10"/></g><g transform="translate(-86,-838) scale(1,1)"><g><path fill="none" stroke="none"/><text fill="#000000" stroke="none" font-family="Arial" font-size="13px" font-style="normal" font-weight="bold" text-decoration="none" x="375.5" y="1153">拿牌</text></g></g><g transform="translate(-86,-838) scale(1,1)"><path fill="none" stroke="#000000" d="M 147 1064 L 337 1129" stroke-miterlimit="10"/></g><g transform="translate(-86,-838) scale(1,1)"><path fill="none" stroke="#000000" d="M 326.02187402650577 1129.6933614570278 L 337 1129 L 328.7470120913443 1121.7275732674998" stroke-miterlimit="10"/></g><g transform="translate(-86,-838) scale(1,1)"><path fill="none" stroke="#000000" d="M 245 895 L 335 919" stroke-miterlimit="10"/></g><g transform="translate(-86,-838) scale(1,1)"><path fill="none" stroke="#000000" d="M 324.0958329701606 920.4488413941363 L 335 919 L 326.2651039753523 912.3140751246673" stroke-miterlimit="10"/></g><g transform="translate(-86,-838) scale(1,1)"><path fill="none" stroke="#000000" d="M 245 919 Q 280 960 337 974" stroke-miterlimit="10"/></g><g transform="translate(-86,-838) scale(1,1)"><path fill="none" stroke="#000000" d="M 326.12658218963895 975.6639666827562 L 337 974 L 328.13473040657374 967.4879346566645" stroke-miterlimit="10"/></g><g transform="translate(-86,-838) scale(1,1)"><path fill="none" stroke="#000000" d="M 236 928 Q 272 1008 337 1026" stroke-miterlimit="10"/></g><g transform="translate(-86,-838) scale(1,1)"><path fill="none" stroke="#000000" d="M 326.08249289861385 1027.3446332924568 L 337 1026 L 328.32935737565214 1019.230956014263" stroke-miterlimit="10"/></g><g transform="translate(-86,-838) scale(1,1)"><path fill="none" stroke="#000000" d="M 222 928 Q 248 1128 337 1139" stroke-miterlimit="10"/></g><g transform="translate(-86,-838) scale(1,1)"><path fill="none" stroke="#000000" d="M 326.397720162338 1141.9311537393842 L 337 1139 L 327.43041734493295 1133.5756947165708" stroke-miterlimit="10"/></g><g transform="translate(-86,-838) scale(1,1)"><path fill="none" stroke="#000000" d="M 219 928 Q 233 1201 337 1200" stroke-miterlimit="10"/></g><g transform="translate(-86,-838) scale(1,1)"><path fill="none" stroke="#000000" d="M 326.8782691692869 1204.3070366832187 L 337 1200 L 326.79732064673465 1195.888390337781" stroke-miterlimit="10"/></g><g transform="translate(-86,-838) scale(1,1)"><path fill="#C0C0C0" stroke="none" d="M 859 1027 C 859 1017.6111584 886.5344848 1010 920.5 1010 C 954.4655152 1010 982 1017.6111584 982 1027 C 982 1036.3888416 954.4655152 1044 920.5 1044 C 886.5344848 1044 859 1036.3888416 859 1027 Z" opacity="0.2"/></g><g transform="translate(-86,-838) scale(1,1)"><path fill="#ffffff" stroke="none" d="M 852 1020 C 852 1010.6111584 879.5344848 1003 913.5 1003 C 947.4655152 1003 975 1010.6111584 975 1020 C 975 1029.3888416 947.4655152 1037 913.5 1037 C 879.5344848 1037 852 1029.3888416 852 1020 Z"/></g><g transform="translate(-86,-838) scale(1,1)"><path fill="none" stroke="#000000" d="M 852 1020 C 852 1010.6111584 879.5344848 1003 913.5 1003 C 947.4655152 1003 975 1010.6111584 975 1020 C 975 1029.3888416 947.4655152 1037 913.5 1037 C 879.5344848 1037 852 1029.3888416 852 1020 Z" stroke-miterlimit="10"/></g><g transform="translate(-86,-838) scale(1,1)"><g><path fill="none" stroke="none"/><text fill="#000000" stroke="none" font-family="Arial" font-size="13px" font-style="normal" font-weight="bold" text-decoration="none" x="874.5" y="1027">玩家当前赌注</text></g></g><g transform="translate(-86,-838) scale(1,1)"><path fill="#C0C0C0" stroke="none" d="M 870 1161 C 870 1151.6111584 892.6096176 1144 920.5 1144 C 948.3903824 1144 971 1151.6111584 971 1161 C 971 1170.3888416 948.3903824 1178 920.5 1178 C 892.6096176 1178 870 1170.3888416 870 1161 Z" opacity="0.2"/></g><g transform="translate(-86,-838) scale(1,1)"><path fill="#ffffff" stroke="none" d="M 863 1154 C 863 1144.6111584 885.6096176 1137 913.5 1137 C 941.3903824 1137 964 1144.6111584 964 1154 C 964 1163.3888416 941.3903824 1171 913.5 1171 C 885.6096176 1171 863 1163.3888416 863 1154 Z"/></g><g transform="translate(-86,-838) scale(1,1)"><path fill="none" stroke="#000000" d="M 863 1154 C 863 1144.6111584 885.6096176 1137 913.5 1137 C 941.3903824 1137 964 1144.6111584 964 1154 C 964 1163.3888416 941.3903824 1171 913.5 1171 C 885.6096176 1171 863 1163.3888416 863 1154 Z" stroke-miterlimit="10"/></g><g transform="translate(-86,-838) scale(1,1)"><g><path fill="none" stroke="none"/><text fill="#000000" stroke="none" font-family="Arial" font-size="13px" font-style="normal" font-weight="bold" text-decoration="none" x="887.5" y="1161">消息通信</text></g></g><g transform="translate(-86,-838) scale(1,1)"><path fill="#C0C0C0" stroke="none" d="M 1055 1224 C 1055 1214.6111584 1082.5344848 1207 1116.5 1207 C 1150.4655152 1207 1178 1214.6111584 1178 1224 C 1178 1233.3888416 1150.4655152 1241 1116.5 1241 C 1082.5344848 1241 1055 1233.3888416 1055 1224 Z" opacity="0.2"/></g><g transform="translate(-86,-838) scale(1,1)"><path fill="#ffffff" stroke="none" d="M 1048 1217 C 1048 1207.6111584 1075.5344848 1200 1109.5 1200 C 1143.4655152 1200 1171 1207.6111584 1171 1217 C 1171 1226.3888416 1143.4655152 1234 1109.5 1234 C 1075.5344848 1234 1048 1226.3888416 1048 1217 Z"/></g><g transform="translate(-86,-838) scale(1,1)"><path fill="none" stroke="#000000" d="M 1048 1217 C 1048 1207.6111584 1075.5344848 1200 1109.5 1200 C 1143.4655152 1200 1171 1207.6111584 1171 1217 C 1171 1226.3888416 1143.4655152 1234 1109.5 1234 C 1075.5344848 1234 1048 1226.3888416 1048 1217 Z" stroke-miterlimit="10"/></g><g transform="translate(-86,-838) scale(1,1)"><g><path fill="none" stroke="none"/><text fill="#000000" stroke="none" font-family="Arial" font-size="13px" font-style="normal" font-weight="bold" text-decoration="none" x="1070.5" y="1224">显示提示信息</text></g></g><g transform="translate(-86,-838) scale(1,1)"><path fill="#C0C0C0" stroke="none" d="M 870 968 C 870 958.6111584 892.6096176 951 920.5 951 C 948.3903824 951 971 958.6111584 971 968 C 971 977.3888416 948.3903824 985 920.5 985 C 892.6096176 985 870 977.3888416 870 968 Z" opacity="0.2"/></g><g transform="translate(-86,-838) scale(1,1)"><path fill="#ffffff" stroke="none" d="M 863 961 C 863 951.6111584 885.6096176 944 913.5 944 C 941.3903824 944 964 951.6111584 964 961 C 964 970.3888416 941.3903824 978 913.5 978 C 885.6096176 978 863 970.3888416 863 961 Z"/></g><g transform="translate(-86,-838) scale(1,1)"><path fill="none" stroke="#000000" d="M 863 961 C 863 951.6111584 885.6096176 944 913.5 944 C 941.3903824 944 964 951.6111584 964 961 C 964 970.3888416 941.3903824 978 913.5 978 C 885.6096176 978 863 970.3888416 863 961 Z" stroke-miterlimit="10"/></g><g transform="translate(-86,-838) scale(1,1)"><g><path fill="none" stroke="none"/><text fill="#000000" stroke="none" font-family="Arial" font-size="13px" font-style="normal" font-weight="bold" text-decoration="none" x="900.5" y="968">出牌</text></g></g><g transform="translate(-86,-838) scale(1,1)"><path fill="#C0C0C0" stroke="none" d="M 345 1100 C 345 1090.6111584 367.6096176 1083 395.5 1083 C 423.3903824 1083 446 1090.6111584 446 1100 C 446 1109.3888416 423.3903824 1117 395.5 1117 C 367.6096176 1117 345 1109.3888416 345 1100 Z" opacity="0.2"/></g><g transform="translate(-86,-838) scale(1,1)"><path fill="#ffffff" stroke="none" d="M 338 1093 C 338 1083.6111584 360.6096176 1076 388.5 1076 C 416.3903824 1076 439 1083.6111584 439 1093 C 439 1102.3888416 416.3903824 1110 388.5 1110 C 360.6096176 1110 338 1102.3888416 338 1093 Z"/></g><g transform="translate(-86,-838) scale(1,1)"><path fill="none" stroke="#000000" d="M 338 1093 C 338 1083.6111584 360.6096176 1076 388.5 1076 C 416.3903824 1076 439 1083.6111584 439 1093 C 439 1102.3888416 416.3903824 1110 388.5 1110 C 360.6096176 1110 338 1102.3888416 338 1093 Z" stroke-miterlimit="10"/></g><g transform="translate(-86,-838) scale(1,1)"><g><path fill="none" stroke="none"/><text fill="#000000" stroke="none" font-family="Arial" font-size="13px" font-style="normal" font-weight="bold" text-decoration="none" x="375.5" y="1100">拆牌</text></g></g><g transform="translate(-86,-838) scale(1,1)"><path fill="none" stroke="#000000" d="M 227 928 Q 264 1072 337 1084" stroke-miterlimit="10"/></g><g transform="translate(-86,-838) scale(1,1)"><path fill="none" stroke="#000000" d="M 326.2890997261305 1086.5053174096752 L 337 1084 L 327.654722854328 1078.19777671314" stroke-miterlimit="10"/></g><g transform="translate(-86,-838) scale(1,1)"><path fill="none" stroke="#000000" d="M 147 1059 L 337 1086" stroke-miterlimit="10"/></g><g transform="translate(-86,-838) scale(1,1)"><path fill="none" stroke="#000000" d="M 326.3461641369454 1088.7378424722929 L 337 1086 L 327.53065343760676 1080.4025473935644" stroke-miterlimit="10"/></g><g transform="translate(-86,-838) scale(1,1)"><path fill="#C0C0C0" stroke="none" d="M 623 1032 C 623 1022.6111584 650.5344848 1015 684.5 1015 C 718.4655152 1015 746 1022.6111584 746 1032 C 746 1041.3888416 718.4655152 1049 684.5 1049 C 650.5344848 1049 623 1041.3888416 623 1032 Z" opacity="0.2"/></g><g transform="translate(-86,-838) scale(1,1)"><path fill="#ffffff" stroke="none" d="M 616 1025 C 616 1015.6111584 643.5344848 1008 677.5 1008 C 711.4655152 1008 739 1015.6111584 739 1025 C 739 1034.3888416 711.4655152 1042 677.5 1042 C 643.5344848 1042 616 1034.3888416 616 1025 Z"/></g><g transform="translate(-86,-838) scale(1,1)"><path fill="none" stroke="#000000" d="M 616 1025 C 616 1015.6111584 643.5344848 1008 677.5 1008 C 711.4655152 1008 739 1015.6111584 739 1025 C 739 1034.3888416 711.4655152 1042 677.5 1042 C 643.5344848 1042 616 1034.3888416 616 1025 Z" stroke-miterlimit="10"/></g><g transform="translate(-86,-838) scale(1,1)"><g><path fill="none" stroke="none"/><text fill="#000000" stroke="none" font-family="Arial" font-size="13px" font-style="normal" font-weight="bold" text-decoration="none" x="651.5" y="1032">纸牌显示</text></g></g><g transform="translate(-86,-838) scale(1,1)"><path fill="#C0C0C0" stroke="none" d="M 623 1160 C 623 1150.6111584 650.5344848 1143 684.5 1143 C 718.4655152 1143 746 1150.6111584 746 1160 C 746 1169.3888416 718.4655152 1177 684.5 1177 C 650.5344848 1177 623 1169.3888416 623 1160 Z" opacity="0.2"/></g><g transform="translate(-86,-838) scale(1,1)"><path fill="#ffffff" stroke="none" d="M 616 1153 C 616 1143.6111584 643.5344848 1136 677.5 1136 C 711.4655152 1136 739 1143.6111584 739 1153 C 739 1162.3888416 711.4655152 1170 677.5 1170 C 643.5344848 1170 616 1162.3888416 616 1153 Z"/></g><g transform="translate(-86,-838) scale(1,1)"><path fill="none" stroke="#000000" d="M 616 1153 C 616 1143.6111584 643.5344848 1136 677.5 1136 C 711.4655152 1136 739 1143.6111584 739 1153 C 739 1162.3888416 711.4655152 1170 677.5 1170 C 643.5344848 1170 616 1162.3888416 616 1153 Z" stroke-miterlimit="10"/></g><g transform="translate(-86,-838) scale(1,1)"><g><path fill="none" stroke="none"/><text fill="#000000" stroke="none" font-family="Arial" font-size="13px" font-style="normal" font-weight="bold" text-decoration="none" x="651.5" y="1160">操作消息</text></g></g><g transform="translate(-86,-838) scale(1,1)"><path fill="#C0C0C0" stroke="none" d="M 695 1296 C 695 1286.6111584 717.6096176 1279 745.5 1279 C 773.3903824 1279 796 1286.6111584 796 1296 C 796 1305.3888416 773.3903824 1313 745.5 1313 C 717.6096176 1313 695 1305.3888416 695 1296 Z" opacity="0.2"/></g><g transform="translate(-86,-838) scale(1,1)"><path fill="#ffffff" stroke="none" d="M 688 1289 C 688 1279.6111584 710.6096176 1272 738.5 1272 C 766.3903824 1272 789 1279.6111584 789 1289 C 789 1298.3888416 766.3903824 1306 738.5 1306 C 710.6096176 1306 688 1298.3888416 688 1289 Z"/></g><g transform="translate(-86,-838) scale(1,1)"><path fill="none" stroke="#000000" d="M 688 1289 C 688 1279.6111584 710.6096176 1272 738.5 1272 C 766.3903824 1272 789 1279.6111584 789 1289 C 789 1298.3888416 766.3903824 1306 738.5 1306 C 710.6096176 1306 688 1298.3888416 688 1289 Z" stroke-miterlimit="10"/></g><g transform="translate(-86,-838) scale(1,1)"><g><path fill="none" stroke="none"/><text fill="#000000" stroke="none" font-family="Arial" font-size="13px" font-style="normal" font-weight="bold" text-decoration="none" x="719" y="1296">比大小</text></g></g><g transform="translate(-86,-838) scale(1,1)"><path fill="#C0C0C0" stroke="none" d="M 647 1403 C 647 1393.6111584 669.6096176 1386 697.5 1386 C 725.3903824 1386 748 1393.6111584 748 1403 C 748 1412.3888416 725.3903824 1420 697.5 1420 C 669.6096176 1420 647 1412.3888416 647 1403 Z" opacity="0.2"/></g><g transform="translate(-86,-838) scale(1,1)"><path fill="#ffffff" stroke="none" d="M 640 1396 C 640 1386.6111584 662.6096176 1379 690.5 1379 C 718.3903824 1379 741 1386.6111584 741 1396 C 741 1405.3888416 718.3903824 1413 690.5 1413 C 662.6096176 1413 640 1405.3888416 640 1396 Z"/></g><g transform="translate(-86,-838) scale(1,1)"><path fill="none" stroke="#000000" d="M 640 1396 C 640 1386.6111584 662.6096176 1379 690.5 1379 C 718.3903824 1379 741 1386.6111584 741 1396 C 741 1405.3888416 718.3903824 1413 690.5 1413 C 662.6096176 1413 640 1405.3888416 640 1396 Z" stroke-miterlimit="10"/></g><g transform="translate(-86,-838) scale(1,1)"><g><path fill="none" stroke="none"/><text fill="#000000" stroke="none" font-family="Arial" font-size="13px" font-style="normal" font-weight="bold" text-decoration="none" x="664.5" y="1403">和玩家比</text></g></g><g transform="translate(-86,-838) scale(1,1)"><path fill="#C0C0C0" stroke="none" d="M 775 1403 C 775 1393.6111584 797.6096176 1386 825.5 1386 C 853.3903824 1386 876 1393.6111584 876 1403 C 876 1412.3888416 853.3903824 1420 825.5 1420 C 797.6096176 1420 775 1412.3888416 775 1403 Z" opacity="0.2"/></g><g transform="translate(-86,-838) scale(1,1)"><path fill="#ffffff" stroke="none" d="M 768 1396 C 768 1386.6111584 790.6096176 1379 818.5 1379 C 846.3903824 1379 869 1386.6111584 869 1396 C 869 1405.3888416 846.3903824 1413 818.5 1413 C 790.6096176 1413 768 1405.3888416 768 1396 Z"/></g><g transform="translate(-86,-838) scale(1,1)"><path fill="none" stroke="#000000" d="M 768 1396 C 768 1386.6111584 790.6096176 1379 818.5 1379 C 846.3903824 1379 869 1386.6111584 869 1396 C 869 1405.3888416 846.3903824 1413 818.5 1413 C 790.6096176 1413 768 1405.3888416 768 1396 Z" stroke-miterlimit="10"/></g><g transform="translate(-86,-838) scale(1,1)"><g><path fill="none" stroke="none"/><text fill="#000000" stroke="none" font-family="Arial" font-size="13px" font-style="normal" font-weight="bold" text-decoration="none" x="798.27001953125" y="1403">和21比</text></g></g><g transform="translate(-86,-838) scale(1,1)"><path fill="none" stroke="#000000" d="M 698 1378 L 730 1307" stroke-miterlimit="10" stroke-dasharray="3"/></g><g transform="translate(-86,-838) scale(1,1)"><path fill="none" stroke="#000000" d="M 729.6619096841961 1317.9948030877483 L 730 1307 L 721.986434223884 1314.5354338661991" stroke-miterlimit="10"/></g><g transform="translate(-86,-838) scale(1,1)"><g><path fill="none" stroke="none"/><text fill="#000000" stroke="none" font-family="Arial" font-size="13px" font-style="normal" font-weight="normal" text-decoration="none" x="682.470947265625" y="1346.5">«include»</text></g></g><g transform="translate(-86,-838) scale(1,1)"><path fill="none" stroke="#000000" d="M 805 1378 L 751 1307" stroke-miterlimit="10" stroke-dasharray="3"/></g><g transform="translate(-86,-838) scale(1,1)"><path fill="none" stroke="#000000" d="M 760.5027021003306 1312.5406364970438 L 751 1307 L 753.80160345559 1317.6372467338888" stroke-miterlimit="10"/></g><g transform="translate(-86,-838) scale(1,1)"><g><path fill="none" stroke="none"/><text fill="#000000" stroke="none" font-family="Arial" font-size="13px" font-style="normal" font-weight="normal" text-decoration="none" x="762.470947265625" y="1354.5">«include»</text></g></g><g transform="translate(-86,-838) scale(1,1)"><path fill="#C0C0C0" stroke="none" d="M 543 904 C 543 894.6111584 570.5344848 887 604.5 887 C 638.4655152 887 666 894.6111584 666 904 C 666 913.3888416 638.4655152 921 604.5 921 C 570.5344848 921 543 913.3888416 543 904 Z" opacity="0.2"/></g><g transform="translate(-86,-838) scale(1,1)"><path fill="#ffffff" stroke="none" d="M 536 897 C 536 887.6111584 563.5344848 880 597.5 880 C 631.4655152 880 659 887.6111584 659 897 C 659 906.3888416 631.4655152 914 597.5 914 C 563.5344848 914 536 906.3888416 536 897 Z"/></g><g transform="translate(-86,-838) scale(1,1)"><path fill="none" stroke="#000000" d="M 536 897 C 536 887.6111584 563.5344848 880 597.5 880 C 631.4655152 880 659 887.6111584 659 897 C 659 906.3888416 631.4655152 914 597.5 914 C 563.5344848 914 536 906.3888416 536 897 Z" stroke-miterlimit="10"/></g><g transform="translate(-86,-838) scale(1,1)"><g><path fill="none" stroke="none"/><text fill="#000000" stroke="none" font-family="Arial" font-size="13px" font-style="normal" font-weight="bold" text-decoration="none" x="558.5" y="904">闲家纸牌显示</text></g></g><g transform="translate(-86,-838) scale(1,1)"><path fill="#C0C0C0" stroke="none" d="M 695 904 C 695 894.6111584 722.5344848 887 756.5 887 C 790.4655152 887 818 894.6111584 818 904 C 818 913.3888416 790.4655152 921 756.5 921 C 722.5344848 921 695 913.3888416 695 904 Z" opacity="0.2"/></g><g transform="translate(-86,-838) scale(1,1)"><path fill="#ffffff" stroke="none" d="M 688 897 C 688 887.6111584 715.5344848 880 749.5 880 C 783.4655152 880 811 887.6111584 811 897 C 811 906.3888416 783.4655152 914 749.5 914 C 715.5344848 914 688 906.3888416 688 897 Z"/></g><g transform="translate(-86,-838) scale(1,1)"><path fill="none" stroke="#000000" d="M 688 897 C 688 887.6111584 715.5344848 880 749.5 880 C 783.4655152 880 811 887.6111584 811 897 C 811 906.3888416 783.4655152 914 749.5 914 C 715.5344848 914 688 906.3888416 688 897 Z" stroke-miterlimit="10"/></g><g transform="translate(-86,-838) scale(1,1)"><g><path fill="none" stroke="none"/><text fill="#000000" stroke="none" font-family="Arial" font-size="13px" font-style="normal" font-weight="bold" text-decoration="none" x="710.5" y="904">庄家纸牌显示</text></g></g><g transform="translate(-86,-838) scale(1,1)"><path fill="none" stroke="#000000" d="M 608 915 L 666 1007" stroke-miterlimit="10" stroke-dasharray="3"/></g><g transform="translate(-86,-838) scale(1,1)"><path fill="none" stroke="#000000" d="M 657.0192972700689 1000.6480728533296 L 666 1007 L 664.1411749588588 996.1581934408316" stroke-miterlimit="10"/></g><g transform="translate(-86,-838) scale(1,1)"><g><path fill="none" stroke="none"/><text fill="#000000" stroke="none" font-family="Arial" font-size="13px" font-style="normal" font-weight="normal" text-decoration="none" x="591.470947265625" y="959.5">«include»</text></g></g><g transform="translate(-86,-838) scale(1,1)"><path fill="none" stroke="#000000" d="M 739 915 L 687 1007" stroke-miterlimit="10" stroke-dasharray="3"/></g><g transform="translate(-86,-838) scale(1,1)"><path fill="none" stroke="#000000" d="M 688.3359681835303 996.081429168037 L 687 1007 L 695.6652676381705 1000.224076685877" stroke-miterlimit="10"/></g><g transform="translate(-86,-838) scale(1,1)"><g><path fill="none" stroke="none"/><text fill="#000000" stroke="none" font-family="Arial" font-size="13px" font-style="normal" font-weight="normal" text-decoration="none" x="720.470947265625" y="952.5">«include»</text></g></g><g transform="translate(-86,-838) scale(1,1)"><path fill="none" stroke="#000000" d="M 442 951 L 620 1007" stroke-miterlimit="10" stroke-dasharray="3"/></g><g transform="translate(-86,-838) scale(1,1)"><path fill="none" stroke="#000000" d="M 609.042464093343 1007.965612165584 L 620 1007 L 611.569061145027 999.9346429655885" stroke-miterlimit="10"/></g><g transform="translate(-86,-838) scale(1,1)"><g><path fill="none" stroke="none"/><text fill="#000000" stroke="none" font-family="Arial" font-size="13px" font-style="normal" font-weight="normal" text-decoration="none" x="512.470947265625" y="956.5">«include»</text></g></g><g transform="translate(-86,-838) scale(1,1)"><path fill="none" stroke="#000000" d="M 440 994 L 615 1017" stroke-miterlimit="10" stroke-dasharray="3"/></g><g transform="translate(-86,-838) scale(1,1)"><path fill="none" stroke="#000000" d="M 604.3754428447878 1019.8493482159312 L 615 1017 L 605.4725101429987 1011.5020970338921" stroke-miterlimit="10"/></g><g transform="translate(-86,-838) scale(1,1)"><g><path fill="none" stroke="none"/><text fill="#000000" stroke="none" font-family="Arial" font-size="13px" font-style="normal" font-weight="normal" text-decoration="none" x="503.470947265625" y="981.5">«include»</text></g></g><g transform="translate(-86,-838) scale(1,1)"><path fill="none" stroke="#000000" d="M 440 1037 L 615 1028" stroke-miterlimit="10" stroke-dasharray="3"/></g><g transform="translate(-86,-838) scale(1,1)"><path fill="none" stroke="#000000" d="M 605.066941915147 1032.7259239396055 L 615 1028 L 604.6345344052137 1024.3180001353473" stroke-miterlimit="10"/></g><g transform="translate(-86,-838) scale(1,1)"><g><path fill="none" stroke="none"/><text fill="#000000" stroke="none" font-family="Arial" font-size="13px" font-style="normal" font-weight="normal" text-decoration="none" x="497.470947265625" y="1008.5">«include»</text></g></g><g transform="translate(-86,-838) scale(1,1)"><path fill="none" stroke="#000000" d="M 440 1081 L 615 1040" stroke-miterlimit="10" stroke-dasharray="3"/></g><g transform="translate(-86,-838) scale(1,1)"><path fill="none" stroke="#000000" d="M 606.0654862921044 1046.416733187801 L 615 1040 L 604.145029220384 1038.2196603207017" stroke-miterlimit="10"/></g><g transform="translate(-86,-838) scale(1,1)"><g><path fill="none" stroke="none"/><text fill="#000000" stroke="none" font-family="Arial" font-size="13px" font-style="normal" font-weight="normal" text-decoration="none" x="492.470947265625" y="1036.5">«include»</text></g></g><g transform="translate(-86,-838) scale(1,1)"><path fill="none" stroke="#000000" d="M 431 1128 L 634 1043" stroke-miterlimit="10" stroke-dasharray="3"/></g><g transform="translate(-86,-838) scale(1,1)"><path fill="none" stroke="#000000" d="M 626.2517483481305 1050.8079828598238 L 634 1043 L 623.0000810870534 1043.0422363421928" stroke-miterlimit="10"/></g><g transform="translate(-86,-838) scale(1,1)"><g><path fill="none" stroke="none"/><text fill="#000000" stroke="none" font-family="Arial" font-size="13px" font-style="normal" font-weight="normal" text-decoration="none" x="492.470947265625" y="1063.5">«include»</text></g></g><g transform="translate(-86,-838) scale(1,1)"><path fill="none" stroke="#000000" d="M 418 1181 L 647 1043" stroke-miterlimit="10" stroke-dasharray="3"/></g><g transform="translate(-86,-838) scale(1,1)"><path fill="none" stroke="#000000" d="M 640.4683769181305 1051.85087000901 L 647 1043 L 636.122934823884 1044.639955229427" stroke-miterlimit="10"/></g><g transform="translate(-86,-838) scale(1,1)"><g><path fill="none" stroke="none"/><text fill="#000000" stroke="none" font-family="Arial" font-size="13px" font-style="normal" font-weight="normal" text-decoration="none" x="488.470947265625" y="1092.5">«include»</text></g></g><g transform="translate(-86,-838) scale(1,1)"><path fill="none" stroke="#000000" d="M 730 1271 L 685 1171" stroke-miterlimit="10" stroke-dasharray="3"/></g><g transform="translate(-86,-838) scale(1,1)"><path fill="none" stroke="#000000" d="M 693.0091525568739 1178.5401243571125 L 685 1171 L 685.331653020619 1181.9949991484273" stroke-miterlimit="10"/></g><g transform="translate(-86,-838) scale(1,1)"><g><path fill="none" stroke="none"/><text fill="#000000" stroke="none" font-family="Arial" font-size="13px" font-style="normal" font-weight="normal" text-decoration="none" x="651.470947265625" y="1239.5">«include»</text></g></g><g transform="translate(-86,-838) scale(1,1)"><path fill="none" stroke="#000000" d="M 440 1147 L 615 1151" stroke-miterlimit="10" stroke-dasharray="3"/></g><g transform="translate(-86,-838) scale(1,1)"><path fill="none" stroke="#000000" d="M 604.7437864179856 1154.976189502539 L 615 1151 L 604.9361712663318 1146.5593523873881" stroke-miterlimit="10"/></g><g transform="translate(-86,-838) scale(1,1)"><g><path fill="none" stroke="none"/><text fill="#000000" stroke="none" font-family="Arial" font-size="13px" font-style="normal" font-weight="normal" text-decoration="none" x="491.470947265625" y="1152.5">«include»</text></g></g><g transform="translate(-86,-838) scale(1,1)"><path fill="none" stroke="#000000" d="M 440 1191 L 615 1163" stroke-miterlimit="10" stroke-dasharray="3"/></g><g transform="translate(-86,-838) scale(1,1)"><path fill="none" stroke="#000000" d="M 605.630025736314 1168.7622549664052 L 615 1163 L 604.2998980969331 1160.4489572202751" stroke-miterlimit="10"/></g><g transform="translate(-86,-838) scale(1,1)"><g><path fill="none" stroke="none"/><text fill="#000000" stroke="none" font-family="Arial" font-size="13px" font-style="normal" font-weight="normal" text-decoration="none" x="506.470947265625" y="1185.5">«include»</text></g></g><g transform="translate(-86,-838) scale(1,1)"><path fill="#C0C0C0" stroke="none" d="M 515 1296 C 515 1286.6111584 537.6096176 1279 565.5 1279 C 593.3903824 1279 616 1286.6111584 616 1296 C 616 1305.3888416 593.3903824 1313 565.5 1313 C 537.6096176 1313 515 1305.3888416 515 1296 Z" opacity="0.2"/></g><g transform="translate(-86,-838) scale(1,1)"><path fill="#ffffff" stroke="none" d="M 508 1289 C 508 1279.6111584 530.6096176 1272 558.5 1272 C 586.3903824 1272 609 1279.6111584 609 1289 C 609 1298.3888416 586.3903824 1306 558.5 1306 C 530.6096176 1306 508 1298.3888416 508 1289 Z"/></g><g transform="translate(-86,-838) scale(1,1)"><path fill="none" stroke="#000000" d="M 508 1289 C 508 1279.6111584 530.6096176 1272 558.5 1272 C 586.3903824 1272 609 1279.6111584 609 1289 C 609 1298.3888416 586.3903824 1306 558.5 1306 C 530.6096176 1306 508 1298.3888416 508 1289 Z" stroke-miterlimit="10"/></g><g transform="translate(-86,-838) scale(1,1)"><g><path fill="none" stroke="none"/><text fill="#000000" stroke="none" font-family="Arial" font-size="13px" font-style="normal" font-weight="bold" text-decoration="none" x="532.5" y="1296">点数计算</text></g></g><g transform="translate(-86,-838) scale(1,1)"><path fill="#C0C0C0" stroke="none" d="M 506 1403 C 506 1393.6111584 532.4151968 1386 565 1386 C 597.5848032 1386 624 1393.6111584 624 1403 C 624 1412.3888416 597.5848032 1420 565 1420 C 532.4151968 1420 506 1412.3888416 506 1403 Z" opacity="0.2"/></g><g transform="translate(-86,-838) scale(1,1)"><path fill="#ffffff" stroke="none" d="M 499 1396 C 499 1386.6111584 525.4151968 1379 558 1379 C 590.5848032 1379 617 1386.6111584 617 1396 C 617 1405.3888416 590.5848032 1413 558 1413 C 525.4151968 1413 499 1405.3888416 499 1396 Z"/></g><g transform="translate(-86,-838) scale(1,1)"><path fill="none" stroke="#000000" d="M 499 1396 C 499 1386.6111584 525.4151968 1379 558 1379 C 590.5848032 1379 617 1386.6111584 617 1396 C 617 1405.3888416 590.5848032 1413 558 1413 C 525.4151968 1413 499 1405.3888416 499 1396 Z" stroke-miterlimit="10"/></g><g transform="translate(-86,-838) scale(1,1)"><g><path fill="none" stroke="none"/><text fill="#000000" stroke="none" font-family="Arial" font-size="13px" font-style="normal" font-weight="bold" text-decoration="none" x="521.16455078125" y="1403">A的点数处理</text></g></g><g transform="translate(-86,-838) scale(1,1)"><path fill="none" stroke="#000000" d="M 558 1378 L 558 1307" stroke-miterlimit="10" stroke-dasharray="3"/></g><g transform="translate(-86,-838) scale(1,1)"><path fill="none" stroke="#000000" d="M 562.209517756016 1317.162674857624 L 558 1307 L 553.790482243984 1317.162674857624" stroke-miterlimit="10"/></g><g transform="translate(-86,-838) scale(1,1)"><g><path fill="none" stroke="none"/><text fill="#000000" stroke="none" font-family="Arial" font-size="13px" font-style="normal" font-weight="normal" text-decoration="none" x="500.470947265625" y="1347.5">«include»</text></g></g><g transform="translate(-86,-838) scale(1,1)"><path fill="none" stroke="#000000" d="M 422 1217 L 524 1271" stroke-miterlimit="10" stroke-dasharray="3"/></g><g transform="translate(-86,-838) scale(1,1)"><path fill="none" stroke="#000000" d="M 513.0487690961419 1269.9653301539217 L 524 1271 L 516.9879324299934 1262.5246883010911" stroke-miterlimit="10"/></g><g transform="translate(-86,-838) scale(1,1)"><g><path fill="none" stroke="none"/><text fill="#000000" stroke="none" font-family="Arial" font-size="13px" font-style="normal" font-weight="normal" text-decoration="none" x="414.470947265625" y="1256.5">«include»</text></g></g><g transform="translate(-86,-838) scale(1,1)"><path fill="none" stroke="#000000" d="M 409 1164 L 537 1271" stroke-miterlimit="10" stroke-dasharray="3"/></g><g transform="translate(-86,-838) scale(1,1)"><path fill="none" stroke="#000000" d="M 526.5029841631576 1267.7117392863277 L 537 1271 L 531.9026403684932 1261.2523374705993" stroke-miterlimit="10"/></g><g transform="translate(-86,-838) scale(1,1)"><g><path fill="none" stroke="none"/><text fill="#000000" stroke="none" font-family="Arial" font-size="13px" font-style="normal" font-weight="normal" text-decoration="none" x="438.470947265625" y="1228.5">«include»</text></g></g><g transform="translate(-86,-838) scale(1,1)"><path fill="none" stroke="#000000" d="M 404 1111 L 542 1271" stroke-miterlimit="10" stroke-dasharray="3"/></g><g transform="translate(-86,-838) scale(1,1)"><path fill="none" stroke="#000000" d="M 532.1748331135102 1266.0536785736645 L 542 1271 L 538.5501352907637 1260.5549804457835" stroke-miterlimit="10"/></g><g transform="translate(-86,-838) scale(1,1)"><g><path fill="none" stroke="none"/><text fill="#000000" stroke="none" font-family="Arial" font-size="13px" font-style="normal" font-weight="normal" text-decoration="none" x="468.470947265625" y="1205.5">«include»</text></g></g><g transform="translate(-86,-838) scale(1,1)"><path fill="none" stroke="#000000" d="M 610 1289 L 687 1289" stroke-miterlimit="10" stroke-dasharray="3"/></g><g transform="translate(-86,-838) scale(1,1)"><path fill="none" stroke="#000000" d="M 676.8373251423759 1293.2095177560159 L 687 1289 L 676.8373251423758 1284.7904822439841" stroke-miterlimit="10"/></g><g transform="translate(-86,-838) scale(1,1)"><g><path fill="none" stroke="none"/><text fill="#000000" stroke="none" font-family="Arial" font-size="13px" font-style="normal" font-weight="normal" text-decoration="none" x="601.470947265625" y="1282.5">«include»</text></g></g><g transform="translate(-86,-838) scale(1,1)"><path fill="none" stroke="#000000" d="M 1109 1104 L 1109 1199" stroke-miterlimit="10"/></g><g transform="translate(-86,-838) scale(1,1)"><path fill="none" stroke="#000000" d="M 1104.7904822439841 1188.837325142376 L 1109 1199 L 1113.2095177560159 1188.837325142376" stroke-miterlimit="10"/></g><g transform="translate(-86,-838) scale(1,1)"><path fill="none" stroke="#000000" d="M 1078 1047 L 948 979" stroke-miterlimit="10"/></g><g transform="translate(-86,-838) scale(1,1)"><path fill="none" stroke="#000000" d="M 958.956229097211 979.9803285007723 L 948 979 L 955.0540269601847 987.4404208215578" stroke-miterlimit="10"/></g><g transform="translate(-86,-838) scale(1,1)"><path fill="none" stroke="#000000" d="M 976 1034 L 1078 1056" stroke-miterlimit="10"/></g><g transform="translate(-86,-838) scale(1,1)"><path fill="none" stroke="#000000" d="M 1067.1782456956162 1057.9722154485628 L 1078 1056 L 1068.953297229396 1049.7424310646752" stroke-miterlimit="10"/></g><g transform="translate(-86,-838) scale(1,1)"><path fill="none" stroke="#000000" d="M 952 1136 L 1078 1077" stroke-miterlimit="10"/></g><g transform="translate(-86,-838) scale(1,1)"><path fill="none" stroke="#000000" d="M 1070.581472957067 1085.1219121217403 L 1078 1077 L 1067.0112500840426 1077.4973683590101" stroke-miterlimit="10"/></g><g transform="translate(-86,-838) scale(1,1)"><path fill="#ffffff" stroke="none" d="M 1100.8207272727273 1281.6799999999998 C 1100.8207272727273 1276.8861679359998 1104.7065695976728 1273 1109.5 1273 C 1114.2934304023272 1273 1118.1792727272727 1276.8861679359998 1118.1792727272727 1281.6799999999998 C 1118.1792727272727 1286.473832064 1114.2934304023272 1290.36 1109.5 1290.36 C 1104.7065695976728 1290.36 1100.8207272727273 1286.473832064 1100.8207272727273 1281.6799999999998 Z"/></g><g transform="translate(-86,-838) scale(1,1)"><path fill="none" stroke="#000000" d="M 1100.8207272727273 1281.6799999999998 C 1100.8207272727273 1276.8861679359998 1104.7065695976728 1273 1109.5 1273 C 1114.2934304023272 1273 1118.1792727272727 1276.8861679359998 1118.1792727272727 1281.6799999999998 C 1118.1792727272727 1286.473832064 1114.2934304023272 1290.36 1109.5 1290.36 C 1104.7065695976728 1290.36 1100.8207272727273 1286.473832064 1100.8207272727273 1281.6799999999998 Z" stroke-miterlimit="10"/></g><g transform="translate(-86,-838) scale(1,1)"><path fill="none" stroke="#000000" d="M 1109.5 1290.36 L 1109.5 1307.64" stroke-miterlimit="10"/></g><g transform="translate(-86,-838) scale(1,1)"><path fill="none" stroke="#000000" d="M 1100.3101818181817 1296.84 L 1118.6898181818183 1296.84" stroke-miterlimit="10"/></g><g transform="translate(-86,-838) scale(1,1)"><path fill="none" stroke="#000000" d="M 1109.5 1307.64 L 1096.7363636363636 1325" stroke-miterlimit="10"/></g><g transform="translate(-86,-838) scale(1,1)"><path fill="none" stroke="#000000" d="M 1109.5 1307.64 L 1122.2636363636364 1325" stroke-miterlimit="10"/></g><g transform="translate(-86,-838) scale(1,1)"><g><path fill="none" stroke="none"/><text fill="#000000" stroke="none" font-family="Arial" font-size="13px" font-style="normal" font-weight="bold" text-decoration="none" x="1083.5" y="1345.5">硬件设备</text></g></g><g transform="translate(-86,-838) scale(1,1)"><path fill="none" stroke="#000000" d="M 1109 1235 L 1109 1271" stroke-miterlimit="10"/></g><g transform="translate(-86,-838) scale(1,1)"><path fill="none" stroke="#000000" d="M 1104.7904822439841 1260.837325142376 L 1109 1271 L 1113.2095177560159 1260.837325142376" stroke-miterlimit="10"/></g><g transform="translate(-86,-838) scale(1,1)"><path fill="none" stroke="#000000" d="M 862 975 L 740 1008" stroke-miterlimit="10" stroke-dasharray="3"/></g><g transform="translate(-86,-838) scale(1,1)"><path fill="none" stroke="#000000" d="M 748.710986620918 1001.282953618577 L 740 1008 L 750.9092667563251 1009.4099286646277" stroke-miterlimit="10"/></g><g transform="translate(-86,-838) scale(1,1)"><g><path fill="none" stroke="none"/><text fill="#000000" stroke="none" font-family="Arial" font-size="13px" font-style="normal" font-weight="normal" text-decoration="none" x="783.470947265625" y="997.5">«include»</text></g></g><g transform="translate(-86,-838) scale(1,1)"><path fill="none" stroke="#000000" d="M 709 1135 L 881 1038" stroke-miterlimit="10" stroke-dasharray="3"/></g><g transform="translate(-86,-838) scale(1,1)"><path fill="none" stroke="#000000" d="M 874.2157749639865 1046.6587695812239 L 881 1038 L 870.0801537843241 1039.3255031595545" stroke-miterlimit="10"/></g><g transform="translate(-86,-838) scale(1,1)"><g><path fill="none" stroke="none"/><text fill="#000000" stroke="none" font-family="Arial" font-size="13px" font-style="normal" font-weight="normal" text-decoration="none" x="758.470947265625" y="1090.5">«include»</text></g></g><g transform="translate(-86,-838) scale(1,1)"><path fill="none" stroke="#000000" d="M 740 1153 L 862 1154" stroke-miterlimit="10" stroke-dasharray="3"/></g><g transform="translate(-86,-838) scale(1,1)"><path fill="none" stroke="#000000" d="M 851.8031634362763 1158.126078536905 L 862 1154 L 851.8721696059863 1149.707325832294" stroke-miterlimit="10"/></g><g transform="translate(-86,-838) scale(1,1)"><g><path fill="none" stroke="none"/><text fill="#000000" stroke="none" font-family="Arial" font-size="13px" font-style="normal" font-weight="normal" text-decoration="none" x="767.470947265625" y="1154.5">«include»</text></g></g><g transform="translate(-86,-838) scale(1,1)"><path fill="none" stroke="#000000" d="M 419 1005 L 646 1135" stroke-miterlimit="10" stroke-dasharray="3"/></g><g transform="translate(-86,-838) scale(1,1)"><path fill="none" stroke="#000000" d="M 635.0891420029119 1133.6024386355587 L 646 1135 L 639.2730834396164 1126.2966332037747" stroke-miterlimit="10"/></g><g transform="translate(-86,-838) scale(1,1)"><g><path fill="none" stroke="none"/><text fill="#000000" stroke="none" font-family="Arial" font-size="13px" font-style="normal" font-weight="normal" text-decoration="none" x="518.470947265625" y="1049.5">«include»</text></g></g><g transform="translate(-86,-838) scale(1,1)"><path fill="none" stroke="#000000" d="M 412 952 L 653 1135" stroke-miterlimit="10" stroke-dasharray="3"/></g><g transform="translate(-86,-838) scale(1,1)"><path fill="none" stroke="#000000" d="M 642.3605768958884 1132.2066729493852 L 653 1135 L 647.4519722747315 1125.5016112756084" stroke-miterlimit="10"/></g><g transform="translate(-86,-838) scale(1,1)"><g><path fill="none" stroke="none"/><text fill="#000000" stroke="none" font-family="Arial" font-size="13px" font-style="normal" font-weight="normal" text-decoration="none" x="522.470947265625" y="1025.5">«include»</text></g></g><g transform="translate(-86,-838) scale(1,1)"><path fill="none" stroke="#000000" d="M 434 1058 L 631 1135" stroke-miterlimit="10" stroke-dasharray="3"/></g><g transform="translate(-86,-838) scale(1,1)"><path fill="none" stroke="#000000" d="M 620.0022206999096 1135.2210214163895 L 631 1135 L 623.0671099365965 1127.3796814212296" stroke-miterlimit="10"/></g><g transform="translate(-86,-838) scale(1,1)"><g><path fill="none" stroke="none"/><text fill="#000000" stroke="none" font-family="Arial" font-size="13px" font-style="normal" font-weight="normal" text-decoration="none" x="514.470947265625" y="1074.5">«include»</text></g></g><g transform="translate(-86,-838) scale(1,1)"><path fill="none" stroke="#000000" d="M 440 1104 L 615 1140" stroke-miterlimit="10" stroke-dasharray="3"/></g><g transform="translate(-86,-838) scale(1,1)"><path fill="none" stroke="#000000" d="M 604.197569483972 1142.075450540578 L 615 1140 L 605.89396297756 1133.82909328008" stroke-miterlimit="10"/></g><g transform="translate(-86,-838) scale(1,1)"><g><path fill="none" stroke="none"/><text fill="#000000" stroke="none" font-family="Arial" font-size="13px" font-style="normal" font-weight="normal" text-decoration="none" x="505.470947265625" y="1098.5">«include»</text></g></g><g transform="translate(-86,-838) scale(1,1)"><path fill="#C0C0C0" stroke="none" d="M 859 1094 C 859 1084.6111584 886.5344848 1077 920.5 1077 C 954.4655152 1077 982 1084.6111584 982 1094 C 982 1103.3888416 954.4655152 1111 920.5 1111 C 886.5344848 1111 859 1103.3888416 859 1094 Z" opacity="0.2"/></g><g transform="translate(-86,-838) scale(1,1)"><path fill="#ffffff" stroke="none" d="M 852 1087 C 852 1077.6111584 879.5344848 1070 913.5 1070 C 947.4655152 1070 975 1077.6111584 975 1087 C 975 1096.3888416 947.4655152 1104 913.5 1104 C 879.5344848 1104 852 1096.3888416 852 1087 Z"/></g><g transform="translate(-86,-838) scale(1,1)"><path fill="none" stroke="#000000" d="M 852 1087 C 852 1077.6111584 879.5344848 1070 913.5 1070 C 947.4655152 1070 975 1077.6111584 975 1087 C 975 1096.3888416 947.4655152 1104 913.5 1104 C 879.5344848 1104 852 1096.3888416 852 1087 Z" stroke-miterlimit="10"/></g><g transform="translate(-86,-838) scale(1,1)"><g><path fill="none" stroke="none"/><text fill="#000000" stroke="none" font-family="Arial" font-size="13px" font-style="normal" font-weight="bold" text-decoration="none" x="874.5" y="1094">玩家余额结算</text></g></g><g transform="translate(-86,-838) scale(1,1)"><path fill="none" stroke="#000000" d="M 740 1135 L 851 1104" stroke-miterlimit="10" stroke-dasharray="3"/></g><g transform="translate(-86,-838) scale(1,1)"><path fill="none" stroke="#000000" d="M 842.3441823671789 1110.7879909477947 L 851 1104 L 840.0795782252995 1102.6792470849366" stroke-miterlimit="10"/></g><g transform="translate(-86,-838) scale(1,1)"><g><path fill="none" stroke="none"/><text fill="#000000" stroke="none" font-family="Arial" font-size="13px" font-style="normal" font-weight="normal" text-decoration="none" x="776.470947265625" y="1123.5">«include»</text></g></g><g transform="translate(-86,-838) scale(1,1)"><path fill="none" stroke="#000000" d="M 976 1079 L 1078 1067" stroke-miterlimit="10"/></g><g transform="translate(-86,-838) scale(1,1)"><path fill="none" stroke="#000000" d="M 1068.3987786298837 1072.3681047122818 L 1078 1067 L 1067.4150880173436 1064.0067345056914" stroke-miterlimit="10"/></g><g transform="translate(-86,-838) scale(1,1)"><path fill="#C0C0C0" stroke="none" d="M 859 880 C 859 870.6111584 886.5344848 863 920.5 863 C 954.4655152 863 982 870.6111584 982 880 C 982 889.3888416 954.4655152 897 920.5 897 C 886.5344848 897 859 889.3888416 859 880 Z" opacity="0.2"/></g><g transform="translate(-86,-838) scale(1,1)"><path fill="#ffffff" stroke="none" d="M 852 873 C 852 863.6111584 879.5344848 856 913.5 856 C 947.4655152 856 975 863.6111584 975 873 C 975 882.3888416 947.4655152 890 913.5 890 C 879.5344848 890 852 882.3888416 852 873 Z"/></g><g transform="translate(-86,-838) scale(1,1)"><path fill="none" stroke="#000000" d="M 852 873 C 852 863.6111584 879.5344848 856 913.5 856 C 947.4655152 856 975 863.6111584 975 873 C 975 882.3888416 947.4655152 890 913.5 890 C 879.5344848 890 852 882.3888416 852 873 Z" stroke-miterlimit="10"/></g><g transform="translate(-86,-838) scale(1,1)"><g><path fill="none" stroke="none"/><text fill="#000000" stroke="none" font-family="Arial" font-size="13px" font-style="normal" font-weight="bold" text-decoration="none" x="874.5" y="880">已出过牌记录</text></g></g><g transform="translate(-86,-838) scale(1,1)"><path fill="none" stroke="#000000" d="M 913 891 L 913 943" stroke-miterlimit="10" stroke-dasharray="3"/></g><g transform="translate(-86,-838) scale(1,1)"><path fill="none" stroke="#000000" d="M 908.790482243984 932.8373251423759 L 913 943 L 917.209517756016 932.8373251423759" stroke-miterlimit="10"/></g><g transform="translate(-86,-838) scale(1,1)"><g><path fill="none" stroke="none"/><text fill="#000000" stroke="none" font-family="Arial" font-size="13px" font-style="normal" font-weight="normal" text-decoration="none" x="914.470947265625" y="922.5">«include»</text></g></g><g transform="translate(-86,-838) scale(1,1)"><path fill="#C0C0C0" stroke="none" d="M 343 888 C 343 878.6111584 366.505048 871 395.5 871 C 424.494952 871 448 878.6111584 448 888 C 448 897.3888416 424.494952 905 395.5 905 C 366.505048 905 343 897.3888416 343 888 Z" opacity="0.2"/></g><g transform="translate(-86,-838) scale(1,1)"><path fill="#ffffff" stroke="none" d="M 336 881 C 336 871.6111584 359.505048 864 388.5 864 C 417.494952 864 441 871.6111584 441 881 C 441 890.3888416 417.494952 898 388.5 898 C 359.505048 898 336 890.3888416 336 881 Z"/></g><g transform="translate(-86,-838) scale(1,1)"><path fill="none" stroke="#000000" d="M 336 881 C 336 871.6111584 359.505048 864 388.5 864 C 417.494952 864 441 871.6111584 441 881 C 441 890.3888416 417.494952 898 388.5 898 C 359.505048 898 336 890.3888416 336 881 Z" stroke-miterlimit="10"/></g><g transform="translate(-86,-838) scale(1,1)"><g><path fill="none" stroke="none"/><text fill="#000000" stroke="none" font-family="Arial" font-size="13px" font-style="normal" font-weight="bold" text-decoration="none" x="356" y="888">黑杰克判断</text></g></g><g transform="translate(-86,-838) scale(1,1)"><path fill="none" stroke="#000000" d="M 245 886 L 335 883" stroke-miterlimit="10"/></g><g transform="translate(-86,-838) scale(1,1)"><path fill="none" stroke="#000000" d="M 324.9832057416654 887.5457488696798 L 335 883 L 324.7027270028595 879.1313867055028" stroke-miterlimit="10"/></g><g transform="translate(-86,-838) scale(1,1)"><path fill="none" stroke="#000000" d="M 407 899 L 658 1135" stroke-miterlimit="10" stroke-dasharray="3"/></g><g transform="translate(-86,-838) scale(1,1)"><path fill="none" stroke="#000000" d="M 647.7125471860451 1131.105347948706 L 658 1135 L 653.479607229948 1124.9717374782836" stroke-miterlimit="10"/></g><g transform="translate(-86,-838) scale(1,1)"><g><path fill="none" stroke="none"/><text fill="#000000" stroke="none" font-family="Arial" font-size="13px" font-style="normal" font-weight="normal" text-decoration="none" x="524.470947265625" y="1001.5">«include»</text></g></g></g></svg>