<?xml version="1.0" encoding="utf-8"?>
<svg version="1.1" xmlns:xlink="http://www.w3.org/1999/xlink" width="8px" height="8px" xmlns="http://www.w3.org/2000/svg">
  <defs>
    <mask fill="white" id="clip83">
      <path d="M 0 4  C 0 6.2091389992  1.7908610008 8  4 8  C 6.2091389992 8  8 6.2091389992  8 4  C 8 1.7908610008  6.2091389992 0  4 0  C 1.7908610008 0  0 1.7908610008  0 4  Z " fill-rule="evenodd" />
    </mask>
  </defs>
  <g transform="matrix(1 0 0 1 -906 -490 )">
    <path d="M 0 4  C 0 6.2091389992  1.7908610008 8  4 8  C 6.2091389992 8  8 6.2091389992  8 4  C 8 1.7908610008  6.2091389992 0  4 0  C 1.7908610008 0  0 1.7908610008  0 4  Z " fill-rule="nonzero" fill="#5b8ff9" stroke="none" transform="matrix(1 0 0 1 906 490 )" />
    <path d="M 0 4  C 0 6.2091389992  1.7908610008 8  4 8  C 6.2091389992 8  8 6.2091389992  8 4  C 8 1.7908610008  6.2091389992 0  4 0  C 1.7908610008 0  0 1.7908610008  0 4  Z " stroke-width="2" stroke="#000000" fill="none" stroke-opacity="0.850980392156863" transform="matrix(1 0 0 1 906 490 )" mask="url(#clip83)" />
  </g>
</svg>