<?xml version="1.0" encoding="utf-8"?>
<svg version="1.1" xmlns:xlink="http://www.w3.org/1999/xlink" width="219px" height="173px" xmlns="http://www.w3.org/2000/svg">
  <defs>
    <mask fill="white" id="clip79">
      <path d="M 0 171  L 0 128.684210526317  L 0 2  C 0 0.879999999999996  0.879999999999996 0  2 0  L 217 0  C 218.12 0  219 0.879999999999996  219 2  L 219 171  C 219 172.12  218.12 173  217 173  L 2 173  C 0.879999999999996 173  0 172.12  0 171  Z " fill-rule="evenodd" />
    </mask>
  </defs>
  <g transform="matrix(1 0 0 1 -498 -97 )">
    <path d="M 0 171  L 0 128.684210526317  L 0 2  C 0 0.879999999999996  0.879999999999996 0  2 0  L 217 0  C 218.12 0  219 0.879999999999996  219 2  L 219 171  C 219 172.12  218.12 173  217 173  L 2 173  C 0.879999999999996 173  0 172.12  0 171  Z " fill-rule="nonzero" fill="#ffffff" stroke="none" transform="matrix(1 0 0 1 498 97 )" />
    <path d="M 0 171  L 0 128.684210526317  L 0 2  C 0 0.879999999999996  0.879999999999996 0  2 0  L 217 0  C 218.12 0  219 0.879999999999996  219 2  L 219 171  C 219 172.12  218.12 173  217 173  L 2 173  C 0.879999999999996 173  0 172.12  0 171  Z " stroke-width="2" stroke="#d7d7d7" fill="none" transform="matrix(1 0 0 1 498 97 )" mask="url(#clip79)" />
  </g>
</svg>