<?xml version="1.0" encoding="utf-8"?>
<svg version="1.1" xmlns:xlink="http://www.w3.org/1999/xlink" width="25px" height="11px" xmlns="http://www.w3.org/2000/svg">
  <defs>
    <mask fill="white" id="clip34">
      <path d="M 2.02862394957985 0.183333333332889  C 1.70036764705894 0.305555555555556  1.40931372548986 0.483796296297037  1.15546218487452 0.718055555555111  C 0.901610644257289 0.952314814815408  0.700280112044993 1.24004629629659  0.55147058823574 1.58125000000089  C 0.402661064426487 1.92245370370296  0.328256302520913 2.31712962963037  0.328256302520913 2.76527777777867  C 0.328256302520913 3.25416666666711  0.446428571427759 3.70486111111111  0.682773109243347 4.11736111111067  C 0.919117647058935 4.52986111111022  1.23424369747909 4.82777777777867  1.6281512605038 5.01111111111156  C 1.10294117647148 5.22499999999956  0.700280112044993 5.56874999999956  0.420168067226238 6.04236111111156  C 0.140056022409378 6.51597222222133  0 7.07361111111156  0 7.71527777777778  C 0 8.26527777777867  0.0809698879550069 8.74652777777778  0.242909663865021 9.15902777777733  C 0.404849439775035 9.57152777777689  0.628063725489862 9.91527777777689  0.912552521007607 10.1902777777773  C 1.19704131652725 10.4652777777778  1.53186274509759 10.6689814814807  1.91701680672243 10.8013888888884  C 2.30217086834728 10.9337962962961  2.71796218487452 11  3.16439075630228 11  C 3.59331232493029 11  3.99597338935488 10.9287037037047  4.37237394957985 10.786111111112  C 4.74877450980481 10.6435185185193  5.07484243697528 10.432175925927  5.35057773109315 10.1520833333329  C 5.62631302520913 9.87199074074104  5.84515056022497 9.52824074074104  6.00709033613498 9.12083333333289  C 6.16903011204499 8.71342592592696  6.25 8.24490740740637  6.25 7.71527777777778  C 6.25 7.04305555555645  6.11432072829151 6.47523148148119  5.84296218487452 6.01180555555645  C 5.57160364145564 5.54837962962948  5.15581232493029 5.21481481481452  4.59558823529468 5.01111111111156  C 4.98949579831939 4.80740740740637  5.3024334733891 4.50439814814874  5.5344012605038 4.10208333333422  C 5.76636904761851 3.69976851851748  5.88235294117681 3.25416666666711  5.88235294117681 2.76527777777867  C 5.88235294117681 2.41898148148074  5.82983193277376 2.08032407407437  5.72478991596578 1.74930555555511  C 5.6197478991597 1.41828703703807  5.45561974789924 1.12291666666756  5.23240546218441 0.863194444443555  C 5.00919117647148 0.603472222221778  4.71813725490241 0.394675925925185  4.35924369747909 0.236805555556  C 4.00035014005577 0.0789351851845923  3.56705182072877 0  3.0593487394962 0  C 2.70045518207288 0  2.35688025210076 0.0611111111102218  2.02862394957985 0.183333333332889  Z M 7.84313725490241 1.58125000000089  C 7.69432773109315 1.92245370370296  7.61992296918758 2.31712962963037  7.61992296918758 2.76527777777867  C 7.61992296918758 3.25416666666711  7.73809523809443 3.70486111111111  7.97443977591001 4.11736111111067  C 8.2107843137256 4.52986111111022  8.52591036414576 4.82777777777867  8.91981792717047 5.01111111111156  C 8.39460784313815 5.22499999999956  7.99194677871166 5.56874999999956  7.7118347338929 6.04236111111156  C 7.43172268907604 6.51597222222133  7.29166666666667 7.07361111111156  7.29166666666667 7.71527777777778  C 7.29166666666667 8.26527777777867  7.37263655462167 8.74652777777778  7.53457633053169 9.15902777777733  C 7.6965161064417 9.57152777777689  7.91973039215653 9.91527777777689  8.20421918767427 10.1902777777773  C 8.48870798319392 10.4652777777778  8.82352941176426 10.6689814814807  9.2086834733891 10.8013888888884  C 9.59383753501394 10.9337962962961  10.0096288515412 11  10.456057422969 11  C 10.884978991597 11  11.2876400560215 10.9287037037047  11.6640406162465 10.786111111112  C 12.0404411764715 10.6435185185193  12.3665091036419 10.432175925927  12.6422443977598 10.1520833333329  C 12.9179796918777 9.87199074074104  13.1368172268916 9.52824074074104  13.2987570028016 9.12083333333289  C 13.4606967787117 8.71342592592696  13.5416666666667 8.24490740740637  13.5416666666667 7.71527777777778  C 13.5416666666667 7.04305555555645  13.4059873949582 6.47523148148119  13.1346288515412 6.01180555555645  C 12.8632703081242 5.54837962962948  12.447478991597 5.21481481481452  11.8872549019613 5.01111111111156  C 12.2811624649861 4.80740740740637  12.5941001400558 4.50439814814874  12.8260679271705 4.10208333333422  C 13.0580357142852 3.69976851851748  13.1740196078435 3.25416666666711  13.1740196078435 2.76527777777867  C 13.1740196078435 2.41898148148074  13.1214985994404 2.08032407407437  13.0164565826324 1.74930555555511  C 12.9114145658264 1.41828703703807  12.7472864145659 1.12291666666756  12.5240721288511 0.863194444443555  C 12.3008578431381 0.603472222221778  12.0098039215691 0.394675925925185  11.6509103641458 0.236805555556  C 11.2920168067224 0.0789351851845923  10.8587184873954 0  10.3510154061629 0  C 9.99212184873954 0  9.64854691876743 0.0611111111102218  9.32029061624651 0.183333333332889  C 8.9920343137256 0.305555555555556  8.70098039215653 0.483796296297037  8.44712885154119 0.718055555555111  C 8.19327731092396 0.952314814815408  7.99194677871166 1.24004629629659  7.84313725490241 1.58125000000089  Z M 20.9433229813669 9.16666666666667  C 21.0166494133887 9.53333333333245  21.1352657004833 9.85162037037096  21.2991718426508 10.1215277777778  C 21.4630779848164 10.3914351851846  21.6787439613521 10.6053240740748  21.946169772256 10.763194444444  C 22.2135955831599 10.9210648148154  22.5414078674949 11  22.9296066252592 11  C 23.3091787439605 11  23.6283643892345 10.9159722222218  23.8871635610773 10.7479166666676  C 24.1459627329201 10.5798611111111  24.3594720496901 10.3557870370381  24.5276915113872 10.075694444444  C 24.6959109730843 9.79560185185215  24.8166839199447 9.46967592592652  24.8900103519664 9.09791666666711  C 24.9633367839882 8.7261574074077  25 8.34166666666756  25 7.94444444444444  C 25 7.52685185185126  24.9676501035196 7.13217592592607  24.9029503105589 6.76041666666667  C 24.8382505175982 6.38865740740726  24.7261042098008 6.06527777777733  24.5665113871629 5.79027777777689  C 24.4069185645268 5.51527777777867  24.1955659075226 5.29629629629704  23.9324534161483 5.13333333333422  C 23.6693409247759 4.97037037037141  23.3350586611455 4.88888888888889  22.9296066252592 4.88888888888889  C 22.5327812284339 4.88888888888889  22.2006556245693 4.97291666666711  21.9332298136654 5.14097222222133  C 21.6658040027596 5.30902777777778  21.4501380262258 5.53564814814874  21.2862318840583 5.82083333333422  C 21.1223257418908 6.10601851851748  21.0058661145619 6.43449074074104  20.9368530020697 6.80625000000044  C 20.8678398895794 7.17800925925985  20.8333333333333 7.57268518518504  20.8333333333333 7.99027777777822  C 20.8333333333333 8.40787037037141  20.8699965493452 8.80000000000089  20.9433229813669 9.16666666666667  Z M 14.6868530020697 1.91257966195553  C 14.6178398895794 2.28341184076797  14.5833333333333 2.67710353745355  14.5833333333333 3.09365475200785  C 14.5833333333333 3.51020596656437  14.6199965493452 3.90135771682011  14.6933229813669 4.2671100027706  C 14.7666494133887 4.63286228872332  14.8852657004833 4.95289553892973  15.0491718426508 5.22720975339426  C 15.2130779848164 5.5015239678588  15.4287439613521 5.71741941442775  15.696169772256 5.87489609310109  C 15.9635955831599 6.03237277177444  16.2914078674949 6.11111111111111  16.6796066252592 6.11111111111111  C 17.0591787439605 6.11111111111111  17.3783643892345 6.02475293248264  17.6371635610773 5.85203657522794  C 17.8959627329201 5.67932021797323  18.1094720496901 5.45326498568486  18.2776915113872 5.1738708783606  C 18.4459109730843 4.89447677103635  18.5666839199447 4.56936362796801  18.6400103519664 4.19853144915558  C 18.7133367839882 3.82769927034315  18.75 3.44416735937921  18.75 3.04793571626599  C 18.75 2.63138450170946  18.7176501035196 2.23769280502388  18.6529503105589 1.86686062621144  C 18.5882505175982 1.49602844739901  18.4761042097989 1.17345525076275  18.3165113871629 0.89914103629821  C 18.1569185645268 0.624826821833671  17.9455659075226 0.406391428834872  17.6824534161483 0.243834857301812  C 17.4193409247759 0.0812782857665297  17.0850586611455 0  16.6796066252592 0  C 16.2827812284339 0  15.9506556245693 0.0838182321963864  15.6832298136654 0.251454696591382  C 15.4158040027596 0.419091160986379  15.2001380262258 0.645146393276971  15.0362318840583 0.929620393460937  C 14.8723257418908 1.2140943936449  14.7558661145619 1.5417474831431  14.6868530020697 1.91257966195553  Z M 21.921816479401 0  L 15.625 11  L 16.6315543071164 11  L 22.9166666666667 0  L 21.921816479401 0  Z M 2.03189300411471 4.77379172894952  C 1.83470507544522 4.69706028898771  1.66323731138505 4.58196312904834  1.51748971193418 4.42850024912696  C 1.37174211248331 4.27503736920779  1.25600137174236 4.08046836073663  1.17026748971133 3.84479322371792  C 1.08453360768218 3.60911808669698  1.04166666666667 3.33233682112627  1.04166666666667 3.01444942700578  C 1.04166666666667 2.71848530144517  1.08453360768218 2.46088689586435  1.17026748971133 2.24165421026333  C 1.25600137174236 2.02242152466452  1.36959876543112 1.83607374190332  1.51105967078138 1.68261086198416  C 1.65252057613164 1.52914798206277  1.82184499314152 1.4140508221234  2.019032921811 1.33731938216159  C 2.21622085048049 1.26058794220201  2.42198216735308 1.22222222222222  2.63631687242878 1.22222222222222  C 3.08213305898448 1.22222222222222  3.44864540466385 1.3729446935714  3.73585390946497 1.67438963627198  C 4.0230624142661 1.97583457897256  4.16666666666667 2.42252117588456  4.16666666666667 3.01444942700578  C 4.16666666666667 3.606377678127  4.02520576131641 4.06676631788671  3.74228395061778 4.39561534628714  C 3.45936213991725 4.72446437468756  3.09927983539069 4.88888888888889  2.6620370370362 4.88888888888889  C 2.43912894375929 4.88888888888889  2.2290809327842 4.8505231689091  2.03189300411471 4.77379172894952  Z M 1.65399774774831 6.60805860805805  C 1.84637762762729 6.44688644688601  2.07160285285302 6.32376882376795  2.32967342342363 6.2387057387061  C 2.58774399399423 6.15364265364204  2.86223723723727 6.11111111111111  3.15315315315274 6.11111111111111  C 3.43468468468397 6.11111111111111  3.69979354354276 6.15811965811897  3.94847972972912 6.25213675213692  C 4.19716591591547 6.34615384615487  4.41535285285302 6.47374847374764  4.60304054053987 6.63492063491968  C 4.79072822822862 6.79609279609172  4.93853228228242 6.98636548636609  5.04645270270316 7.20573870573834  C 5.15437312312391 7.42511192511281  5.20833333333333 7.66463166463129  5.20833333333333 7.92429792429822  C 5.20833333333333 8.19291819291902  5.15906531531603 8.43915343915291  5.06052927927954 8.66300366300432  C 4.96199324324304 8.88685388685351  4.82122747747743 9.0816035816026  4.6382319819827 9.2472527472538  C 4.45523648648608 9.41290191290278  4.23939564564648 9.54273504273402  3.99070945946013 9.63675213675197  C 3.74202327327377 9.73076923076991  3.46753003003073 9.77777777777778  3.16722972972912 9.77777777777778  C 2.54786036036118 9.77777777777778  2.03875750750816 9.61436711436727  1.63992117117194 9.28754578754625  C 1.24108483483572 8.96072446072523  1.04166666666667 8.51078551078616  1.04166666666667 7.93772893772904  C 1.04166666666667 7.66015466015435  1.09562687687609 7.4094424094413  1.20354729729684 7.18559218559211  C 1.31146771771758 6.96174196174292  1.46161786786744 6.76923076923009  1.65399774774831 6.60805860805805  Z M 8.33333333333333 3.01444942700578  C 8.33333333333333 2.71848530144517  8.37620027434885 2.46088689586435  8.46193415637799 2.24165421026333  C 8.54766803840903 2.02242152466452  8.66126543209968 1.83607374190332  8.80272633744805 1.68261086198416  C 8.94418724279831 1.52914798206277  9.11351165980818 1.4140508221234  9.31069958847767 1.33731938216159  C 9.50788751714716 1.26058794220201  9.71364883401975 1.22222222222222  9.92798353909545 1.22222222222222  C 10.3737997256511 1.22222222222222  10.7403120713305 1.3729446935714  11.0275205761316 1.67438963627198  C 11.3147290809328 1.97583457897256  11.4583333333333 2.42252117588456  11.4583333333333 3.01444942700578  C 11.4583333333333 3.606377678127  11.3168724279831 4.06676631788671  11.0339506172844 4.39561534628714  C 10.7510288065839 4.72446437468756  10.3909465020574 4.88888888888889  9.95370370370286 4.88888888888889  C 9.73079561042596 4.88888888888889  9.52074759945087 4.8505231689091  9.32355967078138 4.77379172894952  C 9.12637174211189 4.69706028898771  8.95490397805171 4.58196312904834  8.80915637860085 4.42850024912696  C 8.66340877914998 4.27503736920779  8.54766803840903 4.08046836073663  8.46193415637799 3.84479322371792  C 8.37620027434885 3.60911808669698  8.33333333333333 3.33233682112627  8.33333333333333 3.01444942700578  Z M 11.2401463963958 6.25213675213692  C 11.4888325825821 6.34615384615487  11.7070195195197 6.47374847374764  11.8947072072065 6.63492063491968  C 12.0823948948953 6.79609279609172  12.2301989489491 6.98636548636609  12.3381193693698 7.20573870573834  C 12.4460397897906 7.42511192511281  12.5 7.66463166463129  12.5 7.92429792429822  C 12.5 8.19291819291902  12.4507319819827 8.43915343915291  12.3521959459462 8.66300366300432  C 12.2536599099097 8.88685388685351  12.1128941441441 9.0816035816026  11.9298986486494 9.2472527472538  C 11.7469031531527 9.41290191290278  11.5310623123131 9.54273504273402  11.2823761261268 9.63675213675197  C 11.0336899399404 9.73076923076991  10.7591966966974 9.77777777777778  10.4588963963958 9.77777777777778  C 9.83952702702785 9.77777777777778  9.33042417417482 9.61436711436727  8.93158783783861 9.28754578754625  C 8.53275150150239 8.96072446072523  8.33333333333333 8.51078551078616  8.33333333333333 7.93772893772904  C 8.33333333333333 7.66015466015435  8.38729354354276 7.4094424094413  8.4952139639635 7.18559218559211  C 8.60313438438425 6.96174196174292  8.75328453453411 6.76923076923009  8.94566441441498 6.60805860805805  C 9.13804429429395 6.44688644688601  9.36326951951969 6.32376882376795  9.6213400900903 6.2387057387061  C 9.8794106606609 6.15364265364204  10.1539039039039 6.11111111111111  10.4448198198194 6.11111111111111  C 10.7263513513506 6.11111111111111  10.9914602102094 6.15811965811897  11.2401463963958 6.25213675213692  Z M 23.7705910852715 9.154066437572  C 23.6938791989663 9.33466972126735  23.5868863049101 9.48377243222603  23.4496124031011 9.60137457044584  C 23.3123385012921 9.71897670866787  23.1266149870805 9.77777777777778  22.8924418604644 9.77777777777778  C 22.6663436692509 9.77777777777778  22.4866763565899 9.71687667048395  22.3534399224813 9.59507445589851  C 22.2202034883727 9.47327224131307  22.117248062015 9.32206949217268  22.0445736434101 9.14146620847734  C 21.9718992248071 8.96086292477978  21.9254683462528 8.76345933562415  21.9052810077528 8.54925544100822  C 21.8850936692509 8.3350515463923  21.875 8.13554791905274  21.875 7.95074455899177  C 21.875 7.75754104620177  21.8871124031011 7.55383734249659  21.9113372093015 7.33963344788066  C 21.9355620155037 7.12542955326474  21.9860303617565 6.92802596410911  22.0627422480618 6.74742268041155  C 22.139454134367 6.5668193967162  22.2464470284232 6.41561664757582  22.3837209302322 6.29381443299038  C 22.5209948320412 6.17201221840494  22.7026808785524 6.11111111111111  22.9287790697678 6.11111111111111  C 23.162952196382 6.11111111111111  23.3466569767434 6.17201221840494  23.4798934108521 6.29381443299038  C 23.6131298449607 6.41561664757582  23.7160852713184 6.5668193967162  23.7887596899232 6.74742268041155  C 23.8614341085262 6.92802596410911  23.9078649870805 7.12542955326474  23.9280523255805 7.33963344788066  C 23.9482396640824 7.55383734249659  23.9583333333333 7.75334096983614  23.9583333333333 7.93814432989711  C 23.9583333333333 8.13134784268712  23.9462209302322 8.33715158457401  23.9219961240318 8.55555555555556  C 23.8977713178296 8.77395952653711  23.8473029715768 8.97346315387444  23.7705910852715 9.154066437572  Z " fill-rule="evenodd" />
    </mask>
  </defs>
  <g transform="matrix(1 0 0 1 -1250 -387 )">
    <path d="M 2.02862394957985 0.183333333332889  C 1.70036764705894 0.305555555555556  1.40931372548986 0.483796296297037  1.15546218487452 0.718055555555111  C 0.901610644257289 0.952314814815408  0.700280112044993 1.24004629629659  0.55147058823574 1.58125000000089  C 0.402661064426487 1.92245370370296  0.328256302520913 2.31712962963037  0.328256302520913 2.76527777777867  C 0.328256302520913 3.25416666666711  0.446428571427759 3.70486111111111  0.682773109243347 4.11736111111067  C 0.919117647058935 4.52986111111022  1.23424369747909 4.82777777777867  1.6281512605038 5.01111111111156  C 1.10294117647148 5.22499999999956  0.700280112044993 5.56874999999956  0.420168067226238 6.04236111111156  C 0.140056022409378 6.51597222222133  0 7.07361111111156  0 7.71527777777778  C 0 8.26527777777867  0.0809698879550069 8.74652777777778  0.242909663865021 9.15902777777733  C 0.404849439775035 9.57152777777689  0.628063725489862 9.91527777777689  0.912552521007607 10.1902777777773  C 1.19704131652725 10.4652777777778  1.53186274509759 10.6689814814807  1.91701680672243 10.8013888888884  C 2.30217086834728 10.9337962962961  2.71796218487452 11  3.16439075630228 11  C 3.59331232493029 11  3.99597338935488 10.9287037037047  4.37237394957985 10.786111111112  C 4.74877450980481 10.6435185185193  5.07484243697528 10.432175925927  5.35057773109315 10.1520833333329  C 5.62631302520913 9.87199074074104  5.84515056022497 9.52824074074104  6.00709033613498 9.12083333333289  C 6.16903011204499 8.71342592592696  6.25 8.24490740740637  6.25 7.71527777777778  C 6.25 7.04305555555645  6.11432072829151 6.47523148148119  5.84296218487452 6.01180555555645  C 5.57160364145564 5.54837962962948  5.15581232493029 5.21481481481452  4.59558823529468 5.01111111111156  C 4.98949579831939 4.80740740740637  5.3024334733891 4.50439814814874  5.5344012605038 4.10208333333422  C 5.76636904761851 3.69976851851748  5.88235294117681 3.25416666666711  5.88235294117681 2.76527777777867  C 5.88235294117681 2.41898148148074  5.82983193277376 2.08032407407437  5.72478991596578 1.74930555555511  C 5.6197478991597 1.41828703703807  5.45561974789924 1.12291666666756  5.23240546218441 0.863194444443555  C 5.00919117647148 0.603472222221778  4.71813725490241 0.394675925925185  4.35924369747909 0.236805555556  C 4.00035014005577 0.0789351851845923  3.56705182072877 0  3.0593487394962 0  C 2.70045518207288 0  2.35688025210076 0.0611111111102218  2.02862394957985 0.183333333332889  Z M 7.84313725490241 1.58125000000089  C 7.69432773109315 1.92245370370296  7.61992296918758 2.31712962963037  7.61992296918758 2.76527777777867  C 7.61992296918758 3.25416666666711  7.73809523809443 3.70486111111111  7.97443977591001 4.11736111111067  C 8.2107843137256 4.52986111111022  8.52591036414576 4.82777777777867  8.91981792717047 5.01111111111156  C 8.39460784313815 5.22499999999956  7.99194677871166 5.56874999999956  7.7118347338929 6.04236111111156  C 7.43172268907604 6.51597222222133  7.29166666666667 7.07361111111156  7.29166666666667 7.71527777777778  C 7.29166666666667 8.26527777777867  7.37263655462167 8.74652777777778  7.53457633053169 9.15902777777733  C 7.6965161064417 9.57152777777689  7.91973039215653 9.91527777777689  8.20421918767427 10.1902777777773  C 8.48870798319392 10.4652777777778  8.82352941176426 10.6689814814807  9.2086834733891 10.8013888888884  C 9.59383753501394 10.9337962962961  10.0096288515412 11  10.456057422969 11  C 10.884978991597 11  11.2876400560215 10.9287037037047  11.6640406162465 10.786111111112  C 12.0404411764715 10.6435185185193  12.3665091036419 10.432175925927  12.6422443977598 10.1520833333329  C 12.9179796918777 9.87199074074104  13.1368172268916 9.52824074074104  13.2987570028016 9.12083333333289  C 13.4606967787117 8.71342592592696  13.5416666666667 8.24490740740637  13.5416666666667 7.71527777777778  C 13.5416666666667 7.04305555555645  13.4059873949582 6.47523148148119  13.1346288515412 6.01180555555645  C 12.8632703081242 5.54837962962948  12.447478991597 5.21481481481452  11.8872549019613 5.01111111111156  C 12.2811624649861 4.80740740740637  12.5941001400558 4.50439814814874  12.8260679271705 4.10208333333422  C 13.0580357142852 3.69976851851748  13.1740196078435 3.25416666666711  13.1740196078435 2.76527777777867  C 13.1740196078435 2.41898148148074  13.1214985994404 2.08032407407437  13.0164565826324 1.74930555555511  C 12.9114145658264 1.41828703703807  12.7472864145659 1.12291666666756  12.5240721288511 0.863194444443555  C 12.3008578431381 0.603472222221778  12.0098039215691 0.394675925925185  11.6509103641458 0.236805555556  C 11.2920168067224 0.0789351851845923  10.8587184873954 0  10.3510154061629 0  C 9.99212184873954 0  9.64854691876743 0.0611111111102218  9.32029061624651 0.183333333332889  C 8.9920343137256 0.305555555555556  8.70098039215653 0.483796296297037  8.44712885154119 0.718055555555111  C 8.19327731092396 0.952314814815408  7.99194677871166 1.24004629629659  7.84313725490241 1.58125000000089  Z M 20.9433229813669 9.16666666666667  C 21.0166494133887 9.53333333333245  21.1352657004833 9.85162037037096  21.2991718426508 10.1215277777778  C 21.4630779848164 10.3914351851846  21.6787439613521 10.6053240740748  21.946169772256 10.763194444444  C 22.2135955831599 10.9210648148154  22.5414078674949 11  22.9296066252592 11  C 23.3091787439605 11  23.6283643892345 10.9159722222218  23.8871635610773 10.7479166666676  C 24.1459627329201 10.5798611111111  24.3594720496901 10.3557870370381  24.5276915113872 10.075694444444  C 24.6959109730843 9.79560185185215  24.8166839199447 9.46967592592652  24.8900103519664 9.09791666666711  C 24.9633367839882 8.7261574074077  25 8.34166666666756  25 7.94444444444444  C 25 7.52685185185126  24.9676501035196 7.13217592592607  24.9029503105589 6.76041666666667  C 24.8382505175982 6.38865740740726  24.7261042098008 6.06527777777733  24.5665113871629 5.79027777777689  C 24.4069185645268 5.51527777777867  24.1955659075226 5.29629629629704  23.9324534161483 5.13333333333422  C 23.6693409247759 4.97037037037141  23.3350586611455 4.88888888888889  22.9296066252592 4.88888888888889  C 22.5327812284339 4.88888888888889  22.2006556245693 4.97291666666711  21.9332298136654 5.14097222222133  C 21.6658040027596 5.30902777777778  21.4501380262258 5.53564814814874  21.2862318840583 5.82083333333422  C 21.1223257418908 6.10601851851748  21.0058661145619 6.43449074074104  20.9368530020697 6.80625000000044  C 20.8678398895794 7.17800925925985  20.8333333333333 7.57268518518504  20.8333333333333 7.99027777777822  C 20.8333333333333 8.40787037037141  20.8699965493452 8.80000000000089  20.9433229813669 9.16666666666667  Z M 14.6868530020697 1.91257966195553  C 14.6178398895794 2.28341184076797  14.5833333333333 2.67710353745355  14.5833333333333 3.09365475200785  C 14.5833333333333 3.51020596656437  14.6199965493452 3.90135771682011  14.6933229813669 4.2671100027706  C 14.7666494133887 4.63286228872332  14.8852657004833 4.95289553892973  15.0491718426508 5.22720975339426  C 15.2130779848164 5.5015239678588  15.4287439613521 5.71741941442775  15.696169772256 5.87489609310109  C 15.9635955831599 6.03237277177444  16.2914078674949 6.11111111111111  16.6796066252592 6.11111111111111  C 17.0591787439605 6.11111111111111  17.3783643892345 6.02475293248264  17.6371635610773 5.85203657522794  C 17.8959627329201 5.67932021797323  18.1094720496901 5.45326498568486  18.2776915113872 5.1738708783606  C 18.4459109730843 4.89447677103635  18.5666839199447 4.56936362796801  18.6400103519664 4.19853144915558  C 18.7133367839882 3.82769927034315  18.75 3.44416735937921  18.75 3.04793571626599  C 18.75 2.63138450170946  18.7176501035196 2.23769280502388  18.6529503105589 1.86686062621144  C 18.5882505175982 1.49602844739901  18.4761042097989 1.17345525076275  18.3165113871629 0.89914103629821  C 18.1569185645268 0.624826821833671  17.9455659075226 0.406391428834872  17.6824534161483 0.243834857301812  C 17.4193409247759 0.0812782857665297  17.0850586611455 0  16.6796066252592 0  C 16.2827812284339 0  15.9506556245693 0.0838182321963864  15.6832298136654 0.251454696591382  C 15.4158040027596 0.419091160986379  15.2001380262258 0.645146393276971  15.0362318840583 0.929620393460937  C 14.8723257418908 1.2140943936449  14.7558661145619 1.5417474831431  14.6868530020697 1.91257966195553  Z M 21.921816479401 0  L 15.625 11  L 16.6315543071164 11  L 22.9166666666667 0  L 21.921816479401 0  Z M 2.03189300411471 4.77379172894952  C 1.83470507544522 4.69706028898771  1.66323731138505 4.58196312904834  1.51748971193418 4.42850024912696  C 1.37174211248331 4.27503736920779  1.25600137174236 4.08046836073663  1.17026748971133 3.84479322371792  C 1.08453360768218 3.60911808669698  1.04166666666667 3.33233682112627  1.04166666666667 3.01444942700578  C 1.04166666666667 2.71848530144517  1.08453360768218 2.46088689586435  1.17026748971133 2.24165421026333  C 1.25600137174236 2.02242152466452  1.36959876543112 1.83607374190332  1.51105967078138 1.68261086198416  C 1.65252057613164 1.52914798206277  1.82184499314152 1.4140508221234  2.019032921811 1.33731938216159  C 2.21622085048049 1.26058794220201  2.42198216735308 1.22222222222222  2.63631687242878 1.22222222222222  C 3.08213305898448 1.22222222222222  3.44864540466385 1.3729446935714  3.73585390946497 1.67438963627198  C 4.0230624142661 1.97583457897256  4.16666666666667 2.42252117588456  4.16666666666667 3.01444942700578  C 4.16666666666667 3.606377678127  4.02520576131641 4.06676631788671  3.74228395061778 4.39561534628714  C 3.45936213991725 4.72446437468756  3.09927983539069 4.88888888888889  2.6620370370362 4.88888888888889  C 2.43912894375929 4.88888888888889  2.2290809327842 4.8505231689091  2.03189300411471 4.77379172894952  Z M 1.65399774774831 6.60805860805805  C 1.84637762762729 6.44688644688601  2.07160285285302 6.32376882376795  2.32967342342363 6.2387057387061  C 2.58774399399423 6.15364265364204  2.86223723723727 6.11111111111111  3.15315315315274 6.11111111111111  C 3.43468468468397 6.11111111111111  3.69979354354276 6.15811965811897  3.94847972972912 6.25213675213692  C 4.19716591591547 6.34615384615487  4.41535285285302 6.47374847374764  4.60304054053987 6.63492063491968  C 4.79072822822862 6.79609279609172  4.93853228228242 6.98636548636609  5.04645270270316 7.20573870573834  C 5.15437312312391 7.42511192511281  5.20833333333333 7.66463166463129  5.20833333333333 7.92429792429822  C 5.20833333333333 8.19291819291902  5.15906531531603 8.43915343915291  5.06052927927954 8.66300366300432  C 4.96199324324304 8.88685388685351  4.82122747747743 9.0816035816026  4.6382319819827 9.2472527472538  C 4.45523648648608 9.41290191290278  4.23939564564648 9.54273504273402  3.99070945946013 9.63675213675197  C 3.74202327327377 9.73076923076991  3.46753003003073 9.77777777777778  3.16722972972912 9.77777777777778  C 2.54786036036118 9.77777777777778  2.03875750750816 9.61436711436727  1.63992117117194 9.28754578754625  C 1.24108483483572 8.96072446072523  1.04166666666667 8.51078551078616  1.04166666666667 7.93772893772904  C 1.04166666666667 7.66015466015435  1.09562687687609 7.4094424094413  1.20354729729684 7.18559218559211  C 1.31146771771758 6.96174196174292  1.46161786786744 6.76923076923009  1.65399774774831 6.60805860805805  Z M 8.33333333333333 3.01444942700578  C 8.33333333333333 2.71848530144517  8.37620027434885 2.46088689586435  8.46193415637799 2.24165421026333  C 8.54766803840903 2.02242152466452  8.66126543209968 1.83607374190332  8.80272633744805 1.68261086198416  C 8.94418724279831 1.52914798206277  9.11351165980818 1.4140508221234  9.31069958847767 1.33731938216159  C 9.50788751714716 1.26058794220201  9.71364883401975 1.22222222222222  9.92798353909545 1.22222222222222  C 10.3737997256511 1.22222222222222  10.7403120713305 1.3729446935714  11.0275205761316 1.67438963627198  C 11.3147290809328 1.97583457897256  11.4583333333333 2.42252117588456  11.4583333333333 3.01444942700578  C 11.4583333333333 3.606377678127  11.3168724279831 4.06676631788671  11.0339506172844 4.39561534628714  C 10.7510288065839 4.72446437468756  10.3909465020574 4.88888888888889  9.95370370370286 4.88888888888889  C 9.73079561042596 4.88888888888889  9.52074759945087 4.8505231689091  9.32355967078138 4.77379172894952  C 9.12637174211189 4.69706028898771  8.95490397805171 4.58196312904834  8.80915637860085 4.42850024912696  C 8.66340877914998 4.27503736920779  8.54766803840903 4.08046836073663  8.46193415637799 3.84479322371792  C 8.37620027434885 3.60911808669698  8.33333333333333 3.33233682112627  8.33333333333333 3.01444942700578  Z M 11.2401463963958 6.25213675213692  C 11.4888325825821 6.34615384615487  11.7070195195197 6.47374847374764  11.8947072072065 6.63492063491968  C 12.0823948948953 6.79609279609172  12.2301989489491 6.98636548636609  12.3381193693698 7.20573870573834  C 12.4460397897906 7.42511192511281  12.5 7.66463166463129  12.5 7.92429792429822  C 12.5 8.19291819291902  12.4507319819827 8.43915343915291  12.3521959459462 8.66300366300432  C 12.2536599099097 8.88685388685351  12.1128941441441 9.0816035816026  11.9298986486494 9.2472527472538  C 11.7469031531527 9.41290191290278  11.5310623123131 9.54273504273402  11.2823761261268 9.63675213675197  C 11.0336899399404 9.73076923076991  10.7591966966974 9.77777777777778  10.4588963963958 9.77777777777778  C 9.83952702702785 9.77777777777778  9.33042417417482 9.61436711436727  8.93158783783861 9.28754578754625  C 8.53275150150239 8.96072446072523  8.33333333333333 8.51078551078616  8.33333333333333 7.93772893772904  C 8.33333333333333 7.66015466015435  8.38729354354276 7.4094424094413  8.4952139639635 7.18559218559211  C 8.60313438438425 6.96174196174292  8.75328453453411 6.76923076923009  8.94566441441498 6.60805860805805  C 9.13804429429395 6.44688644688601  9.36326951951969 6.32376882376795  9.6213400900903 6.2387057387061  C 9.8794106606609 6.15364265364204  10.1539039039039 6.11111111111111  10.4448198198194 6.11111111111111  C 10.7263513513506 6.11111111111111  10.9914602102094 6.15811965811897  11.2401463963958 6.25213675213692  Z M 23.7705910852715 9.154066437572  C 23.6938791989663 9.33466972126735  23.5868863049101 9.48377243222603  23.4496124031011 9.60137457044584  C 23.3123385012921 9.71897670866787  23.1266149870805 9.77777777777778  22.8924418604644 9.77777777777778  C 22.6663436692509 9.77777777777778  22.4866763565899 9.71687667048395  22.3534399224813 9.59507445589851  C 22.2202034883727 9.47327224131307  22.117248062015 9.32206949217268  22.0445736434101 9.14146620847734  C 21.9718992248071 8.96086292477978  21.9254683462528 8.76345933562415  21.9052810077528 8.54925544100822  C 21.8850936692509 8.3350515463923  21.875 8.13554791905274  21.875 7.95074455899177  C 21.875 7.75754104620177  21.8871124031011 7.55383734249659  21.9113372093015 7.33963344788066  C 21.9355620155037 7.12542955326474  21.9860303617565 6.92802596410911  22.0627422480618 6.74742268041155  C 22.139454134367 6.5668193967162  22.2464470284232 6.41561664757582  22.3837209302322 6.29381443299038  C 22.5209948320412 6.17201221840494  22.7026808785524 6.11111111111111  22.9287790697678 6.11111111111111  C 23.162952196382 6.11111111111111  23.3466569767434 6.17201221840494  23.4798934108521 6.29381443299038  C 23.6131298449607 6.41561664757582  23.7160852713184 6.5668193967162  23.7887596899232 6.74742268041155  C 23.8614341085262 6.92802596410911  23.9078649870805 7.12542955326474  23.9280523255805 7.33963344788066  C 23.9482396640824 7.55383734249659  23.9583333333333 7.75334096983614  23.9583333333333 7.93814432989711  C 23.9583333333333 8.13134784268712  23.9462209302322 8.33715158457401  23.9219961240318 8.55555555555556  C 23.8977713178296 8.77395952653711  23.8473029715768 8.97346315387444  23.7705910852715 9.154066437572  Z " fill-rule="nonzero" fill="#ffffff" stroke="none" fill-opacity="0" transform="matrix(1 0 0 1 1250 387 )" />
    <path d="M 2.02862394957985 0.183333333332889  C 1.70036764705894 0.305555555555556  1.40931372548986 0.483796296297037  1.15546218487452 0.718055555555111  C 0.901610644257289 0.952314814815408  0.700280112044993 1.24004629629659  0.55147058823574 1.58125000000089  C 0.402661064426487 1.92245370370296  0.328256302520913 2.31712962963037  0.328256302520913 2.76527777777867  C 0.328256302520913 3.25416666666711  0.446428571427759 3.70486111111111  0.682773109243347 4.11736111111067  C 0.919117647058935 4.52986111111022  1.23424369747909 4.82777777777867  1.6281512605038 5.01111111111156  C 1.10294117647148 5.22499999999956  0.700280112044993 5.56874999999956  0.420168067226238 6.04236111111156  C 0.140056022409378 6.51597222222133  0 7.07361111111156  0 7.71527777777778  C 0 8.26527777777867  0.0809698879550069 8.74652777777778  0.242909663865021 9.15902777777733  C 0.404849439775035 9.57152777777689  0.628063725489862 9.91527777777689  0.912552521007607 10.1902777777773  C 1.19704131652725 10.4652777777778  1.53186274509759 10.6689814814807  1.91701680672243 10.8013888888884  C 2.30217086834728 10.9337962962961  2.71796218487452 11  3.16439075630228 11  C 3.59331232493029 11  3.99597338935488 10.9287037037047  4.37237394957985 10.786111111112  C 4.74877450980481 10.6435185185193  5.07484243697528 10.432175925927  5.35057773109315 10.1520833333329  C 5.62631302520913 9.87199074074104  5.84515056022497 9.52824074074104  6.00709033613498 9.12083333333289  C 6.16903011204499 8.71342592592696  6.25 8.24490740740637  6.25 7.71527777777778  C 6.25 7.04305555555645  6.11432072829151 6.47523148148119  5.84296218487452 6.01180555555645  C 5.57160364145564 5.54837962962948  5.15581232493029 5.21481481481452  4.59558823529468 5.01111111111156  C 4.98949579831939 4.80740740740637  5.3024334733891 4.50439814814874  5.5344012605038 4.10208333333422  C 5.76636904761851 3.69976851851748  5.88235294117681 3.25416666666711  5.88235294117681 2.76527777777867  C 5.88235294117681 2.41898148148074  5.82983193277376 2.08032407407437  5.72478991596578 1.74930555555511  C 5.6197478991597 1.41828703703807  5.45561974789924 1.12291666666756  5.23240546218441 0.863194444443555  C 5.00919117647148 0.603472222221778  4.71813725490241 0.394675925925185  4.35924369747909 0.236805555556  C 4.00035014005577 0.0789351851845923  3.56705182072877 0  3.0593487394962 0  C 2.70045518207288 0  2.35688025210076 0.0611111111102218  2.02862394957985 0.183333333332889  Z " stroke-width="3" stroke="#ffffff" fill="none" transform="matrix(1 0 0 1 1250 387 )" mask="url(#clip34)" />
    <path d="M 7.84313725490241 1.58125000000089  C 7.69432773109315 1.92245370370296  7.61992296918758 2.31712962963037  7.61992296918758 2.76527777777867  C 7.61992296918758 3.25416666666711  7.73809523809443 3.70486111111111  7.97443977591001 4.11736111111067  C 8.2107843137256 4.52986111111022  8.52591036414576 4.82777777777867  8.91981792717047 5.01111111111156  C 8.39460784313815 5.22499999999956  7.99194677871166 5.56874999999956  7.7118347338929 6.04236111111156  C 7.43172268907604 6.51597222222133  7.29166666666667 7.07361111111156  7.29166666666667 7.71527777777778  C 7.29166666666667 8.26527777777867  7.37263655462167 8.74652777777778  7.53457633053169 9.15902777777733  C 7.6965161064417 9.57152777777689  7.91973039215653 9.91527777777689  8.20421918767427 10.1902777777773  C 8.48870798319392 10.4652777777778  8.82352941176426 10.6689814814807  9.2086834733891 10.8013888888884  C 9.59383753501394 10.9337962962961  10.0096288515412 11  10.456057422969 11  C 10.884978991597 11  11.2876400560215 10.9287037037047  11.6640406162465 10.786111111112  C 12.0404411764715 10.6435185185193  12.3665091036419 10.432175925927  12.6422443977598 10.1520833333329  C 12.9179796918777 9.87199074074104  13.1368172268916 9.52824074074104  13.2987570028016 9.12083333333289  C 13.4606967787117 8.71342592592696  13.5416666666667 8.24490740740637  13.5416666666667 7.71527777777778  C 13.5416666666667 7.04305555555645  13.4059873949582 6.47523148148119  13.1346288515412 6.01180555555645  C 12.8632703081242 5.54837962962948  12.447478991597 5.21481481481452  11.8872549019613 5.01111111111156  C 12.2811624649861 4.80740740740637  12.5941001400558 4.50439814814874  12.8260679271705 4.10208333333422  C 13.0580357142852 3.69976851851748  13.1740196078435 3.25416666666711  13.1740196078435 2.76527777777867  C 13.1740196078435 2.41898148148074  13.1214985994404 2.08032407407437  13.0164565826324 1.74930555555511  C 12.9114145658264 1.41828703703807  12.7472864145659 1.12291666666756  12.5240721288511 0.863194444443555  C 12.3008578431381 0.603472222221778  12.0098039215691 0.394675925925185  11.6509103641458 0.236805555556  C 11.2920168067224 0.0789351851845923  10.8587184873954 0  10.3510154061629 0  C 9.99212184873954 0  9.64854691876743 0.0611111111102218  9.32029061624651 0.183333333332889  C 8.9920343137256 0.305555555555556  8.70098039215653 0.483796296297037  8.44712885154119 0.718055555555111  C 8.19327731092396 0.952314814815408  7.99194677871166 1.24004629629659  7.84313725490241 1.58125000000089  Z " stroke-width="3" stroke="#ffffff" fill="none" transform="matrix(1 0 0 1 1250 387 )" mask="url(#clip34)" />
    <path d="M 20.9433229813669 9.16666666666667  C 21.0166494133887 9.53333333333245  21.1352657004833 9.85162037037096  21.2991718426508 10.1215277777778  C 21.4630779848164 10.3914351851846  21.6787439613521 10.6053240740748  21.946169772256 10.763194444444  C 22.2135955831599 10.9210648148154  22.5414078674949 11  22.9296066252592 11  C 23.3091787439605 11  23.6283643892345 10.9159722222218  23.8871635610773 10.7479166666676  C 24.1459627329201 10.5798611111111  24.3594720496901 10.3557870370381  24.5276915113872 10.075694444444  C 24.6959109730843 9.79560185185215  24.8166839199447 9.46967592592652  24.8900103519664 9.09791666666711  C 24.9633367839882 8.7261574074077  25 8.34166666666756  25 7.94444444444444  C 25 7.52685185185126  24.9676501035196 7.13217592592607  24.9029503105589 6.76041666666667  C 24.8382505175982 6.38865740740726  24.7261042098008 6.06527777777733  24.5665113871629 5.79027777777689  C 24.4069185645268 5.51527777777867  24.1955659075226 5.29629629629704  23.9324534161483 5.13333333333422  C 23.6693409247759 4.97037037037141  23.3350586611455 4.88888888888889  22.9296066252592 4.88888888888889  C 22.5327812284339 4.88888888888889  22.2006556245693 4.97291666666711  21.9332298136654 5.14097222222133  C 21.6658040027596 5.30902777777778  21.4501380262258 5.53564814814874  21.2862318840583 5.82083333333422  C 21.1223257418908 6.10601851851748  21.0058661145619 6.43449074074104  20.9368530020697 6.80625000000044  C 20.8678398895794 7.17800925925985  20.8333333333333 7.57268518518504  20.8333333333333 7.99027777777822  C 20.8333333333333 8.40787037037141  20.8699965493452 8.80000000000089  20.9433229813669 9.16666666666667  Z " stroke-width="3" stroke="#ffffff" fill="none" transform="matrix(1 0 0 1 1250 387 )" mask="url(#clip34)" />
    <path d="M 14.6868530020697 1.91257966195553  C 14.6178398895794 2.28341184076797  14.5833333333333 2.67710353745355  14.5833333333333 3.09365475200785  C 14.5833333333333 3.51020596656437  14.6199965493452 3.90135771682011  14.6933229813669 4.2671100027706  C 14.7666494133887 4.63286228872332  14.8852657004833 4.95289553892973  15.0491718426508 5.22720975339426  C 15.2130779848164 5.5015239678588  15.4287439613521 5.71741941442775  15.696169772256 5.87489609310109  C 15.9635955831599 6.03237277177444  16.2914078674949 6.11111111111111  16.6796066252592 6.11111111111111  C 17.0591787439605 6.11111111111111  17.3783643892345 6.02475293248264  17.6371635610773 5.85203657522794  C 17.8959627329201 5.67932021797323  18.1094720496901 5.45326498568486  18.2776915113872 5.1738708783606  C 18.4459109730843 4.89447677103635  18.5666839199447 4.56936362796801  18.6400103519664 4.19853144915558  C 18.7133367839882 3.82769927034315  18.75 3.44416735937921  18.75 3.04793571626599  C 18.75 2.63138450170946  18.7176501035196 2.23769280502388  18.6529503105589 1.86686062621144  C 18.5882505175982 1.49602844739901  18.4761042097989 1.17345525076275  18.3165113871629 0.89914103629821  C 18.1569185645268 0.624826821833671  17.9455659075226 0.406391428834872  17.6824534161483 0.243834857301812  C 17.4193409247759 0.0812782857665297  17.0850586611455 0  16.6796066252592 0  C 16.2827812284339 0  15.9506556245693 0.0838182321963864  15.6832298136654 0.251454696591382  C 15.4158040027596 0.419091160986379  15.2001380262258 0.645146393276971  15.0362318840583 0.929620393460937  C 14.8723257418908 1.2140943936449  14.7558661145619 1.5417474831431  14.6868530020697 1.91257966195553  Z " stroke-width="3" stroke="#ffffff" fill="none" transform="matrix(1 0 0 1 1250 387 )" mask="url(#clip34)" />
    <path d="M 21.921816479401 0  L 15.625 11  L 16.6315543071164 11  L 22.9166666666667 0  L 21.921816479401 0  Z " stroke-width="3" stroke="#ffffff" fill="none" transform="matrix(1 0 0 1 1250 387 )" mask="url(#clip34)" />
    <path d="M 2.03189300411471 4.77379172894952  C 1.83470507544522 4.69706028898771  1.66323731138505 4.58196312904834  1.51748971193418 4.42850024912696  C 1.37174211248331 4.27503736920779  1.25600137174236 4.08046836073663  1.17026748971133 3.84479322371792  C 1.08453360768218 3.60911808669698  1.04166666666667 3.33233682112627  1.04166666666667 3.01444942700578  C 1.04166666666667 2.71848530144517  1.08453360768218 2.46088689586435  1.17026748971133 2.24165421026333  C 1.25600137174236 2.02242152466452  1.36959876543112 1.83607374190332  1.51105967078138 1.68261086198416  C 1.65252057613164 1.52914798206277  1.82184499314152 1.4140508221234  2.019032921811 1.33731938216159  C 2.21622085048049 1.26058794220201  2.42198216735308 1.22222222222222  2.63631687242878 1.22222222222222  C 3.08213305898448 1.22222222222222  3.44864540466385 1.3729446935714  3.73585390946497 1.67438963627198  C 4.0230624142661 1.97583457897256  4.16666666666667 2.42252117588456  4.16666666666667 3.01444942700578  C 4.16666666666667 3.606377678127  4.02520576131641 4.06676631788671  3.74228395061778 4.39561534628714  C 3.45936213991725 4.72446437468756  3.09927983539069 4.88888888888889  2.6620370370362 4.88888888888889  C 2.43912894375929 4.88888888888889  2.2290809327842 4.8505231689091  2.03189300411471 4.77379172894952  Z " stroke-width="3" stroke="#ffffff" fill="none" transform="matrix(1 0 0 1 1250 387 )" mask="url(#clip34)" />
    <path d="M 1.65399774774831 6.60805860805805  C 1.84637762762729 6.44688644688601  2.07160285285302 6.32376882376795  2.32967342342363 6.2387057387061  C 2.58774399399423 6.15364265364204  2.86223723723727 6.11111111111111  3.15315315315274 6.11111111111111  C 3.43468468468397 6.11111111111111  3.69979354354276 6.15811965811897  3.94847972972912 6.25213675213692  C 4.19716591591547 6.34615384615487  4.41535285285302 6.47374847374764  4.60304054053987 6.63492063491968  C 4.79072822822862 6.79609279609172  4.93853228228242 6.98636548636609  5.04645270270316 7.20573870573834  C 5.15437312312391 7.42511192511281  5.20833333333333 7.66463166463129  5.20833333333333 7.92429792429822  C 5.20833333333333 8.19291819291902  5.15906531531603 8.43915343915291  5.06052927927954 8.66300366300432  C 4.96199324324304 8.88685388685351  4.82122747747743 9.0816035816026  4.6382319819827 9.2472527472538  C 4.45523648648608 9.41290191290278  4.23939564564648 9.54273504273402  3.99070945946013 9.63675213675197  C 3.74202327327377 9.73076923076991  3.46753003003073 9.77777777777778  3.16722972972912 9.77777777777778  C 2.54786036036118 9.77777777777778  2.03875750750816 9.61436711436727  1.63992117117194 9.28754578754625  C 1.24108483483572 8.96072446072523  1.04166666666667 8.51078551078616  1.04166666666667 7.93772893772904  C 1.04166666666667 7.66015466015435  1.09562687687609 7.4094424094413  1.20354729729684 7.18559218559211  C 1.31146771771758 6.96174196174292  1.46161786786744 6.76923076923009  1.65399774774831 6.60805860805805  Z " stroke-width="3" stroke="#ffffff" fill="none" transform="matrix(1 0 0 1 1250 387 )" mask="url(#clip34)" />
    <path d="M 8.33333333333333 3.01444942700578  C 8.33333333333333 2.71848530144517  8.37620027434885 2.46088689586435  8.46193415637799 2.24165421026333  C 8.54766803840903 2.02242152466452  8.66126543209968 1.83607374190332  8.80272633744805 1.68261086198416  C 8.94418724279831 1.52914798206277  9.11351165980818 1.4140508221234  9.31069958847767 1.33731938216159  C 9.50788751714716 1.26058794220201  9.71364883401975 1.22222222222222  9.92798353909545 1.22222222222222  C 10.3737997256511 1.22222222222222  10.7403120713305 1.3729446935714  11.0275205761316 1.67438963627198  C 11.3147290809328 1.97583457897256  11.4583333333333 2.42252117588456  11.4583333333333 3.01444942700578  C 11.4583333333333 3.606377678127  11.3168724279831 4.06676631788671  11.0339506172844 4.39561534628714  C 10.7510288065839 4.72446437468756  10.3909465020574 4.88888888888889  9.95370370370286 4.88888888888889  C 9.73079561042596 4.88888888888889  9.52074759945087 4.8505231689091  9.32355967078138 4.77379172894952  C 9.12637174211189 4.69706028898771  8.95490397805171 4.58196312904834  8.80915637860085 4.42850024912696  C 8.66340877914998 4.27503736920779  8.54766803840903 4.08046836073663  8.46193415637799 3.84479322371792  C 8.37620027434885 3.60911808669698  8.33333333333333 3.33233682112627  8.33333333333333 3.01444942700578  Z " stroke-width="3" stroke="#ffffff" fill="none" transform="matrix(1 0 0 1 1250 387 )" mask="url(#clip34)" />
    <path d="M 11.2401463963958 6.25213675213692  C 11.4888325825821 6.34615384615487  11.7070195195197 6.47374847374764  11.8947072072065 6.63492063491968  C 12.0823948948953 6.79609279609172  12.2301989489491 6.98636548636609  12.3381193693698 7.20573870573834  C 12.4460397897906 7.42511192511281  12.5 7.66463166463129  12.5 7.92429792429822  C 12.5 8.19291819291902  12.4507319819827 8.43915343915291  12.3521959459462 8.66300366300432  C 12.2536599099097 8.88685388685351  12.1128941441441 9.0816035816026  11.9298986486494 9.2472527472538  C 11.7469031531527 9.41290191290278  11.5310623123131 9.54273504273402  11.2823761261268 9.63675213675197  C 11.0336899399404 9.73076923076991  10.7591966966974 9.77777777777778  10.4588963963958 9.77777777777778  C 9.83952702702785 9.77777777777778  9.33042417417482 9.61436711436727  8.93158783783861 9.28754578754625  C 8.53275150150239 8.96072446072523  8.33333333333333 8.51078551078616  8.33333333333333 7.93772893772904  C 8.33333333333333 7.66015466015435  8.38729354354276 7.4094424094413  8.4952139639635 7.18559218559211  C 8.60313438438425 6.96174196174292  8.75328453453411 6.76923076923009  8.94566441441498 6.60805860805805  C 9.13804429429395 6.44688644688601  9.36326951951969 6.32376882376795  9.6213400900903 6.2387057387061  C 9.8794106606609 6.15364265364204  10.1539039039039 6.11111111111111  10.4448198198194 6.11111111111111  C 10.7263513513506 6.11111111111111  10.9914602102094 6.15811965811897  11.2401463963958 6.25213675213692  Z " stroke-width="3" stroke="#ffffff" fill="none" transform="matrix(1 0 0 1 1250 387 )" mask="url(#clip34)" />
    <path d="M 23.7705910852715 9.154066437572  C 23.6938791989663 9.33466972126735  23.5868863049101 9.48377243222603  23.4496124031011 9.60137457044584  C 23.3123385012921 9.71897670866787  23.1266149870805 9.77777777777778  22.8924418604644 9.77777777777778  C 22.6663436692509 9.77777777777778  22.4866763565899 9.71687667048395  22.3534399224813 9.59507445589851  C 22.2202034883727 9.47327224131307  22.117248062015 9.32206949217268  22.0445736434101 9.14146620847734  C 21.9718992248071 8.96086292477978  21.9254683462528 8.76345933562415  21.9052810077528 8.54925544100822  C 21.8850936692509 8.3350515463923  21.875 8.13554791905274  21.875 7.95074455899177  C 21.875 7.75754104620177  21.8871124031011 7.55383734249659  21.9113372093015 7.33963344788066  C 21.9355620155037 7.12542955326474  21.9860303617565 6.92802596410911  22.0627422480618 6.74742268041155  C 22.139454134367 6.5668193967162  22.2464470284232 6.41561664757582  22.3837209302322 6.29381443299038  C 22.5209948320412 6.17201221840494  22.7026808785524 6.11111111111111  22.9287790697678 6.11111111111111  C 23.162952196382 6.11111111111111  23.3466569767434 6.17201221840494  23.4798934108521 6.29381443299038  C 23.6131298449607 6.41561664757582  23.7160852713184 6.5668193967162  23.7887596899232 6.74742268041155  C 23.8614341085262 6.92802596410911  23.9078649870805 7.12542955326474  23.9280523255805 7.33963344788066  C 23.9482396640824 7.55383734249659  23.9583333333333 7.75334096983614  23.9583333333333 7.93814432989711  C 23.9583333333333 8.13134784268712  23.9462209302322 8.33715158457401  23.9219961240318 8.55555555555556  C 23.8977713178296 8.77395952653711  23.8473029715768 8.97346315387444  23.7705910852715 9.154066437572  Z " stroke-width="3" stroke="#ffffff" fill="none" transform="matrix(1 0 0 1 1250 387 )" mask="url(#clip34)" />
  </g>
</svg>