<?xml version="1.0" encoding="utf-8"?>
<svg version="1.1" xmlns:xlink="http://www.w3.org/1999/xlink" width="156px" height="47px" xmlns="http://www.w3.org/2000/svg">
  <defs>
    <mask fill="white" id="clip61">
      <path d="M 156 8.40931372549021  L 156 39.281862745098  C 156 43.6040196078432  149.203960396039 47  140.554455445545 47  L 1.54455445544554 47  C 1.86060190177616 46.7554649582605  1.54455445544554 43.6040196078432  1.54455445544554 39.281862745098  L 1.54455445544554 8.40931372549021  C 1.39009900990113 8.40931372549021  1.56545436721634 0.485359477124946  1.54455445544554 0.691176470588235  L 140.554455445545 0.691176470588235  C 149.203960396039 0.691176470588235  156 4.08715686274507  156 8.40931372549021  Z " fill-rule="evenodd" />
    </mask>
  </defs>
  <g transform="matrix(1 0 0 1 -1133 -755 )">
    <path d="M 156 8.40931372549021  L 156 39.281862745098  C 156 43.6040196078432  149.203960396039 47  140.554455445545 47  L 1.54455445544554 47  C 1.86060190177616 46.7554649582605  1.54455445544554 43.6040196078432  1.54455445544554 39.281862745098  L 1.54455445544554 8.40931372549021  C 1.39009900990113 8.40931372549021  1.56545436721634 0.485359477124946  1.54455445544554 0.691176470588235  L 140.554455445545 0.691176470588235  C 149.203960396039 0.691176470588235  156 4.08715686274507  156 8.40931372549021  Z " fill-rule="nonzero" fill="#feffff" stroke="none" transform="matrix(1 0 0 1 1133 755 )" />
    <path d="M 156 8.40931372549021  L 156 39.281862745098  C 156 43.6040196078432  149.203960396039 47  140.554455445545 47  L 1.54455445544554 47  C 1.86060190177616 46.7554649582605  1.54455445544554 43.6040196078432  1.54455445544554 39.281862745098  L 1.54455445544554 8.40931372549021  C 1.39009900990113 8.40931372549021  1.56545436721634 0.485359477124946  1.54455445544554 0.691176470588235  L 140.554455445545 0.691176470588235  C 149.203960396039 0.691176470588235  156 4.08715686274507  156 8.40931372549021  Z " stroke-width="4" stroke="#e6e7e8" fill="none" transform="matrix(1 0 0 1 1133 755 )" mask="url(#clip61)" />
  </g>
</svg>