<?xml version="1.0" encoding="utf-8"?>
<svg version="1.1" xmlns:xlink="http://www.w3.org/1999/xlink" width="137px" height="47px" xmlns="http://www.w3.org/2000/svg">
  <defs>
    <mask fill="white" id="clip77">
      <path d="M 137 8.40931372549021  L 137 39.281862745098  C 137 43.6040196078432  131.031683168317 47  123.435643564356 47  L 1.35643564356436 47  C 1.63399013168804 46.7554649582605  1.35643564356436 43.6040196078432  1.35643564356436 39.281862745098  L 1.35643564356436 8.40931372549021  C 1.22079207920804 8.40931372549021  1.37479005326051 0.485359477124946  1.35643564356436 0.691176470588235  L 123.435643564356 0.691176470588235  C 131.031683168317 0.691176470588235  137 4.08715686274507  137 8.40931372549021  Z " fill-rule="evenodd" />
    </mask>
  </defs>
  <g transform="matrix(1 0 0 1 -1290 -88 )">
    <path d="M 137 8.40931372549021  L 137 39.281862745098  C 137 43.6040196078432  131.031683168317 47  123.435643564356 47  L 1.35643564356436 47  C 1.63399013168804 46.7554649582605  1.35643564356436 43.6040196078432  1.35643564356436 39.281862745098  L 1.35643564356436 8.40931372549021  C 1.22079207920804 8.40931372549021  1.37479005326051 0.485359477124946  1.35643564356436 0.691176470588235  L 123.435643564356 0.691176470588235  C 131.031683168317 0.691176470588235  137 4.08715686274507  137 8.40931372549021  Z " fill-rule="nonzero" fill="#feffff" stroke="none" transform="matrix(1 0 0 1 1290 88 )" />
    <path d="M 137 8.40931372549021  L 137 39.281862745098  C 137 43.6040196078432  131.031683168317 47  123.435643564356 47  L 1.35643564356436 47  C 1.63399013168804 46.7554649582605  1.35643564356436 43.6040196078432  1.35643564356436 39.281862745098  L 1.35643564356436 8.40931372549021  C 1.22079207920804 8.40931372549021  1.37479005326051 0.485359477124946  1.35643564356436 0.691176470588235  L 123.435643564356 0.691176470588235  C 131.031683168317 0.691176470588235  137 4.08715686274507  137 8.40931372549021  Z " stroke-width="4" stroke="#e6e7e8" fill="none" transform="matrix(1 0 0 1 1290 88 )" mask="url(#clip77)" />
  </g>
</svg>