<?xml version="1.0" encoding="utf-8"?>
<svg version="1.1" xmlns:xlink="http://www.w3.org/1999/xlink" width="224px" height="140px" xmlns="http://www.w3.org/2000/svg">
  <defs>
    <mask fill="white" id="clip27">
      <path d="M 0 138.709677419355  L 0 1.29032258064516  C 0 0.567741935483868  0.749505703422049 0  1.70342205323194 0  L 222.296577946768 0  C 223.250494296578 0  224 0.567741935483868  224 1.29032258064516  L 224 90.4594330400786  L 224 138.709677419355  C 224 139.432258064516  223.250494296578 140  222.296577946768 140  L 1.70342205323194 140  C 0.749505703422049 140  0 139.432258064516  0 138.709677419355  Z " fill-rule="evenodd" />
    </mask>
  </defs>
  <g transform="matrix(1 0 0 1 -494 -90 )">
    <path d="M 0 138.709677419355  L 0 1.29032258064516  C 0 0.567741935483868  0.749505703422049 0  1.70342205323194 0  L 222.296577946768 0  C 223.250494296578 0  224 0.567741935483868  224 1.29032258064516  L 224 90.4594330400786  L 224 138.709677419355  C 224 139.432258064516  223.250494296578 140  222.296577946768 140  L 1.70342205323194 140  C 0.749505703422049 140  0 139.432258064516  0 138.709677419355  Z " fill-rule="nonzero" fill="#33ab9f" stroke="none" fill-opacity="0.8" transform="matrix(1 0 0 1 494 90 )" />
    <path d="M 0 138.709677419355  L 0 1.29032258064516  C 0 0.567741935483868  0.749505703422049 0  1.70342205323194 0  L 222.296577946768 0  C 223.250494296578 0  224 0.567741935483868  224 1.29032258064516  L 224 90.4594330400786  L 224 138.709677419355  C 224 139.432258064516  223.250494296578 140  222.296577946768 140  L 1.70342205323194 140  C 0.749505703422049 140  0 139.432258064516  0 138.709677419355  Z " stroke-width="2" stroke="#33ab9f" fill="none" stroke-opacity="0.8" transform="matrix(1 0 0 1 494 90 )" mask="url(#clip27)" />
  </g>
</svg>