<?xml version="1.0" encoding="utf-8"?>
<svg version="1.1" xmlns:xlink="http://www.w3.org/1999/xlink" width="235px" height="155px" xmlns="http://www.w3.org/2000/svg">
  <g transform="matrix(1 0 0 1 -275 -95 )">
    <path d="M 276 97  A 1 1 0 0 1 277 96 L 508 96  A 1 1 0 0 1 509 97 L 509 248  A 1 1 0 0 1 508 249 L 277 249  A 1 1 0 0 1 276 248 L 276 97  Z " fill-rule="nonzero" fill="#33ab9f" stroke="none" fill-opacity="0.8" />
    <path d="M 275.5 97  A 1.5 1.5 0 0 1 277 95.5 L 508 95.5  A 1.5 1.5 0 0 1 509.5 97 L 509.5 248  A 1.5 1.5 0 0 1 508 249.5 L 277 249.5  A 1.5 1.5 0 0 1 275.5 248 L 275.5 97  Z " stroke-width="1" stroke="#33ab9f" fill="none" stroke-opacity="0.8" />
  </g>
</svg>