<?xml version="1.0" encoding="utf-8"?>
<svg version="1.1" xmlns:xlink="http://www.w3.org/1999/xlink" width="188px" height="300px" xmlns="http://www.w3.org/2000/svg">
  <defs>
    <mask fill="white" id="clip97">
      <path d="M 0 0  C 0 0  0 178.089400969651  0 178.089400969651  C 0 178.089400969651  137.043005393289 300  137.043005393289 300  C 188.359076609738 248.233481611864  202.305581092189 172.534424610251  172.533971128799 107.361576398222  C 142.762361165408 42.1887281861921  74.9635354119725 0  0 0  Z " fill-rule="evenodd" />
    </mask>
  </defs>
  <g transform="matrix(1 0 0 1 -707 -326 )">
    <path d="M 0 0  C 0 0  0 178.089400969651  0 178.089400969651  C 0 178.089400969651  137.043005393289 300  137.043005393289 300  C 188.359076609738 248.233481611864  202.305581092189 172.534424610251  172.533971128799 107.361576398222  C 142.762361165408 42.1887281861921  74.9635354119725 0  0 0  Z " fill-rule="nonzero" fill="#ffffff" stroke="none" fill-opacity="0" transform="matrix(1 0 0 1 707 326 )" />
    <path d="M 0 0  C 0 0  0 178.089400969651  0 178.089400969651  C 0 178.089400969651  137.043005393289 300  137.043005393289 300  C 188.359076609738 248.233481611864  202.305581092189 172.534424610251  172.533971128799 107.361576398222  C 142.762361165408 42.1887281861921  74.9635354119725 0  0 0  Z " stroke-width="2" stroke="#000000" fill="none" stroke-opacity="0.850980392156863" transform="matrix(1 0 0 1 707 326 )" mask="url(#clip97)" />
  </g>
</svg>