<?xml version="1.0" encoding="utf-8"?>
<svg version="1.1" xmlns:xlink="http://www.w3.org/1999/xlink" width="62px" height="30px" xmlns="http://www.w3.org/2000/svg">
  <defs>
    <mask fill="white" id="clip78">
      <path d="M 0 28  L 0 2  C 0 0.879999999999995  0.879999999999995 0  2 0  L 60 0  C 61.12 0  62 0.879999999999995  62 2  L 62 28  C 62 29.12  61.12 30  60 30  L 27.5862068965524 30  L 2 30  C 0.879999999999995 30  0 29.12  0 28  Z " fill-rule="evenodd" />
    </mask>
  </defs>
  <g transform="matrix(1 0 0 1 -728 -437 )">
    <path d="M 0 28  L 0 2  C 0 0.879999999999995  0.879999999999995 0  2 0  L 60 0  C 61.12 0  62 0.879999999999995  62 2  L 62 28  C 62 29.12  61.12 30  60 30  L 27.5862068965524 30  L 2 30  C 0.879999999999995 30  0 29.12  0 28  Z " fill-rule="nonzero" fill="#2e8ded" stroke="none" transform="matrix(1 0 0 1 728 437 )" />
    <path d="M 0 28  L 0 2  C 0 0.879999999999995  0.879999999999995 0  2 0  L 60 0  C 61.12 0  62 0.879999999999995  62 2  L 62 28  C 62 29.12  61.12 30  60 30  L 27.5862068965524 30  L 2 30  C 0.879999999999995 30  0 29.12  0 28  Z " stroke-width="2" stroke="#2e8ded" fill="none" transform="matrix(1 0 0 1 728 437 )" mask="url(#clip78)" />
  </g>
</svg>