<?xml version="1.0" encoding="utf-8"?>
<svg version="1.1" xmlns:xlink="http://www.w3.org/1999/xlink" width="7px" height="7px" xmlns="http://www.w3.org/2000/svg">
  <defs>
    <mask fill="white" id="clip85">
      <path d="M 0 3.5  C 0 5.4329966243  1.5670033757 7  3.5 7  C 5.4329966243 7  7 5.4329966243  7 3.5  C 7 1.5670033757  5.4329966243 0  3.5 0  C 1.5670033757 0  0 1.5670033757  0 3.5  Z " fill-rule="evenodd" />
    </mask>
  </defs>
  <g transform="matrix(1 0 0 1 -893 -501 )">
    <path d="M 0 3.5  C 0 5.4329966243  1.5670033757 7  3.5 7  C 5.4329966243 7  7 5.4329966243  7 3.5  C 7 1.5670033757  5.4329966243 0  3.5 0  C 1.5670033757 0  0 1.5670033757  0 3.5  Z " fill-rule="nonzero" fill="#5ad8a6" stroke="none" transform="matrix(1 0 0 1 893 501 )" />
    <path d="M 0 3.5  C 0 5.4329966243  1.5670033757 7  3.5 7  C 5.4329966243 7  7 5.4329966243  7 3.5  C 7 1.5670033757  5.4329966243 0  3.5 0  C 1.5670033757 0  0 1.5670033757  0 3.5  Z " stroke-width="2" stroke="#000000" fill="none" stroke-opacity="0.850980392156863" transform="matrix(1 0 0 1 893 501 )" mask="url(#clip85)" />
  </g>
</svg>