<?xml version="1.0" encoding="utf-8"?>
<svg version="1.1" xmlns:xlink="http://www.w3.org/1999/xlink" width="12px" height="12px" viewBox="201 267  12 12" xmlns="http://www.w3.org/2000/svg">
  <path d="M 207 267  C 210.36 267  213 269.64  213 273  C 213 276.36  210.36 279  207 279  C 203.64 279  201 276.36  201 273  C 201 269.64  203.64 267  207 267  Z " fill-rule="nonzero" fill="#f0f0f0" stroke="none" />
  <path d="M 207 267.5  C 210.08 267.5  212.5 269.92  212.5 273  C 212.5 276.08  210.08 278.5  207 278.5  C 203.92 278.5  201.5 276.08  201.5 273  C 201.5 269.92  203.92 267.5  207 267.5  Z " stroke-width="1" stroke="#797979" fill="none" />
  <path d="M 207 276  C 205.32 276  204 274.68  204 273  C 204 271.32  205.32 270  207 270  C 208.68 270  210 271.32  210 273  C 210 274.68  208.68 276  207 276  " fill-rule="nonzero" fill="#797979" stroke="none" />
</svg>