<?xml version="1.0" encoding="utf-8"?>
<svg version="1.1" xmlns:xlink="http://www.w3.org/1999/xlink" width="12px" height="12px" viewBox="161 267  12 12" xmlns="http://www.w3.org/2000/svg">
  <path d="M 167 267  C 170.36 267  173 269.64  173 273  C 173 276.36  170.36 279  167 279  C 163.64 279  161 276.36  161 273  C 161 269.64  163.64 267  167 267  Z " fill-rule="nonzero" fill="#f0f0f0" stroke="none" />
  <path d="M 167 267.5  C 170.08 267.5  172.5 269.92  172.5 273  C 172.5 276.08  170.08 278.5  167 278.5  C 163.92 278.5  161.5 276.08  161.5 273  C 161.5 269.92  163.92 267.5  167 267.5  Z " stroke-width="1" stroke="#797979" fill="none" />
  <path d="M 167 276  C 165.32 276  164 274.68  164 273  C 164 271.32  165.32 270  167 270  C 168.68 270  170 271.32  170 273  C 170 274.68  168.68 276  167 276  " fill-rule="nonzero" fill="#797979" stroke="none" />
</svg>