<?xml version="1.0" encoding="utf-8"?>
<svg version="1.1" xmlns:xlink="http://www.w3.org/1999/xlink" width="12px" height="12px" viewBox="201 289  12 12" xmlns="http://www.w3.org/2000/svg">
  <path d="M 207 289  C 210.36 289  213 291.64  213 295  C 213 298.36  210.36 301  207 301  C 203.64 301  201 298.36  201 295  C 201 291.64  203.64 289  207 289  Z " fill-rule="nonzero" fill="#f0f0f0" stroke="none" />
  <path d="M 207 289.5  C 210.08 289.5  212.5 291.92  212.5 295  C 212.5 298.08  210.08 300.5  207 300.5  C 203.92 300.5  201.5 298.08  201.5 295  C 201.5 291.92  203.92 289.5  207 289.5  Z " stroke-width="1" stroke="#797979" fill="none" />
  <path d="M 207 298  C 205.32 298  204 296.68  204 295  C 204 293.32  205.32 292  207 292  C 208.68 292  210 293.32  210 295  C 210 296.68  208.68 298  207 298  " fill-rule="nonzero" fill="#797979" stroke="none" />
</svg>