<?xml version="1.0" encoding="utf-8"?>
<svg version="1.1" xmlns:xlink="http://www.w3.org/1999/xlink" width="12px" height="12px" viewBox="181 289  12 12" xmlns="http://www.w3.org/2000/svg">
  <path d="M 187 289  C 190.36 289  193 291.64  193 295  C 193 298.36  190.36 301  187 301  C 183.64 301  181 298.36  181 295  C 181 291.64  183.64 289  187 289  Z " fill-rule="nonzero" fill="#ffffff" stroke="none" />
  <path d="M 187 289.5  C 190.08 289.5  192.5 291.92  192.5 295  C 192.5 298.08  190.08 300.5  187 300.5  C 183.92 300.5  181.5 298.08  181.5 295  C 181.5 291.92  183.92 289.5  187 289.5  Z " stroke-width="1" stroke="#797979" fill="none" />
  <path d="M 187 298  C 185.32 298  184 296.68  184 295  C 184 293.32  185.32 292  187 292  C 188.68 292  190 293.32  190 295  C 190 296.68  188.68 298  187 298  " fill-rule="nonzero" fill="#797979" stroke="none" />
</svg>