<?xml version="1.0" encoding="utf-8"?>
<svg version="1.1" xmlns:xlink="http://www.w3.org/1999/xlink" width="12px" height="12px" viewBox="221 267  12 12" xmlns="http://www.w3.org/2000/svg">
  <path d="M 227 267  C 230.36 267  233 269.64  233 273  C 233 276.36  230.36 279  227 279  C 223.64 279  221 276.36  221 273  C 221 269.64  223.64 267  227 267  Z " fill-rule="nonzero" fill="#ffffff" stroke="none" />
  <path d="M 227 267.5  C 230.08 267.5  232.5 269.92  232.5 273  C 232.5 276.08  230.08 278.5  227 278.5  C 223.92 278.5  221.5 276.08  221.5 273  C 221.5 269.92  223.92 267.5  227 267.5  Z " stroke-width="1" stroke="#797979" fill="none" />
  <path d="M 227 276  C 225.32 276  224 274.68  224 273  C 224 271.32  225.32 270  227 270  C 228.68 270  230 271.32  230 273  C 230 274.68  228.68 276  227 276  " fill-rule="nonzero" fill="#797979" stroke="none" />
</svg>