<?xml version="1.0" encoding="utf-8"?>
<svg version="1.1" xmlns:xlink="http://www.w3.org/1999/xlink" width="12px" height="12px" viewBox="240 267  12 12" xmlns="http://www.w3.org/2000/svg">
  <path d="M 246 267  C 249.36 267  252 269.64  252 273  C 252 276.36  249.36 279  246 279  C 242.64 279  240 276.36  240 273  C 240 269.64  242.64 267  246 267  Z " fill-rule="nonzero" fill="#ffffff" stroke="none" />
  <path d="M 246 267.5  C 249.08 267.5  251.5 269.92  251.5 273  C 251.5 276.08  249.08 278.5  246 278.5  C 242.92 278.5  240.5 276.08  240.5 273  C 240.5 269.92  242.92 267.5  246 267.5  Z " stroke-width="1" stroke="#797979" fill="none" />
  <path d="M 246 276  C 244.32 276  243 274.68  243 273  C 243 271.32  244.32 270  246 270  C 247.68 270  249 271.32  249 273  C 249 274.68  247.68 276  246 276  " fill-rule="nonzero" fill="#797979" stroke="none" />
</svg>