<?xml version="1.0" encoding="utf-8"?>
<svg version="1.1" xmlns:xlink="http://www.w3.org/1999/xlink" width="12px" height="12px" viewBox="221 289  12 12" xmlns="http://www.w3.org/2000/svg">
  <path d="M 227 289  C 230.36 289  233 291.64  233 295  C 233 298.36  230.36 301  227 301  C 223.64 301  221 298.36  221 295  C 221 291.64  223.64 289  227 289  Z " fill-rule="nonzero" fill="#f0f0f0" stroke="none" />
  <path d="M 227 289.5  C 230.08 289.5  232.5 291.92  232.5 295  C 232.5 298.08  230.08 300.5  227 300.5  C 223.92 300.5  221.5 298.08  221.5 295  C 221.5 291.92  223.92 289.5  227 289.5  Z " stroke-width="1" stroke="#797979" fill="none" />
  <path d="M 227 298  C 225.32 298  224 296.68  224 295  C 224 293.32  225.32 292  227 292  C 228.68 292  230 293.32  230 295  C 230 296.68  228.68 298  227 298  " fill-rule="nonzero" fill="#797979" stroke="none" />
</svg>