<?xml version="1.0" encoding="utf-8"?>
<svg version="1.1" xmlns:xlink="http://www.w3.org/1999/xlink" width="12px" height="12px" viewBox="181 311  12 12" xmlns="http://www.w3.org/2000/svg">
  <path d="M 187 311  C 190.36 311  193 313.64  193 317  C 193 320.36  190.36 323  187 323  C 183.64 323  181 320.36  181 317  C 181 313.64  183.64 311  187 311  Z " fill-rule="nonzero" fill="#f0f0f0" stroke="none" />
  <path d="M 187 311.5  C 190.08 311.5  192.5 313.92  192.5 317  C 192.5 320.08  190.08 322.5  187 322.5  C 183.92 322.5  181.5 320.08  181.5 317  C 181.5 313.92  183.92 311.5  187 311.5  Z " stroke-width="1" stroke="#797979" fill="none" />
  <path d="M 187 320  C 185.32 320  184 318.68  184 317  C 184 315.32  185.32 314  187 314  C 188.68 314  190 315.32  190 317  C 190 318.68  188.68 320  187 320  " fill-rule="nonzero" fill="#797979" stroke="none" />
</svg>