<?xml version="1.0" encoding="utf-8"?>
<svg version="1.1" xmlns:xlink="http://www.w3.org/1999/xlink" width="42px" height="18px" xmlns="http://www.w3.org/2000/svg">
  <defs>
    <mask fill="white" id="clip98">
      <path d="M 0 13  L 0 5  C 0 2.19999999999999  2.20000000000005 0  5 0  L 18.8571428571421 0  L 37 0  C 39.8 0  42 2.19999999999999  42 5  L 42 13  C 42 15.8  39.8 18  37 18  L 5 18  C 2.20000000000005 18  0 15.8  0 13  Z " fill-rule="evenodd" />
    </mask>
  </defs>
  <g transform="matrix(1 0 0 1 -714 -430 )">
    <path d="M 0 13  L 0 5  C 0 2.19999999999999  2.20000000000005 0  5 0  L 18.8571428571421 0  L 37 0  C 39.8 0  42 2.19999999999999  42 5  L 42 13  C 42 15.8  39.8 18  37 18  L 5 18  C 2.20000000000005 18  0 15.8  0 13  Z " fill-rule="nonzero" fill="#ffffff" stroke="none" transform="matrix(1 0 0 1 714 430 )" />
    <path d="M 0 13  L 0 5  C 0 2.19999999999999  2.20000000000005 0  5 0  L 18.8571428571421 0  L 37 0  C 39.8 0  42 2.19999999999999  42 5  L 42 13  C 42 15.8  39.8 18  37 18  L 5 18  C 2.20000000000005 18  0 15.8  0 13  Z " stroke-width="2" stroke="#797979" fill="none" transform="matrix(1 0 0 1 714 430 )" mask="url(#clip98)" />
  </g>
</svg>