<?xml version="1.0" encoding="utf-8"?>
<svg version="1.1" xmlns:xlink="http://www.w3.org/1999/xlink" width="137px" height="48px" xmlns="http://www.w3.org/2000/svg">
  <defs>
    <mask fill="white" id="clip76">
      <path d="M 1.23423423423423 39.536231884058  L 1.23423423423423 8.46376811594205  C 1.19309309309201 3  8.10480480480361 0.733333333334301  14.6763892605476 0.695652173913047  L 135.765765765766 1.13333333333429  C 135.806906906908 0.799999999999997  135.916888175305 1.2  135.765765765766 8.46376811594205  L 135.765765765766 39.536231884058  C 135.900187316029 39.536231884058  135.747576711112 48.1404830917876  135.765765765766 47.9333333333343  L 14.6763892605476 47.9333333333343  C 7.14878244581213 47.9333333333343  1.23423423423423 43.8863768115942  1.23423423423423 39.536231884058  Z " fill-rule="evenodd" />
    </mask>
  </defs>
  <g transform="matrix(1 0 0 1 -1025 -87 )">
    <path d="M 1.23423423423423 39.536231884058  L 1.23423423423423 8.46376811594205  C 1.19309309309201 3  8.10480480480361 0.733333333334301  14.6763892605476 0.695652173913047  L 135.765765765766 1.13333333333429  C 135.806906906908 0.799999999999997  135.916888175305 1.2  135.765765765766 8.46376811594205  L 135.765765765766 39.536231884058  C 135.900187316029 39.536231884058  135.747576711112 48.1404830917876  135.765765765766 47.9333333333343  L 14.6763892605476 47.9333333333343  C 7.14878244581213 47.9333333333343  1.23423423423423 43.8863768115942  1.23423423423423 39.536231884058  Z " fill-rule="nonzero" fill="#feffff" stroke="none" transform="matrix(1 0 0 1 1025 87 )" />
    <path d="M 1.23423423423423 39.536231884058  L 1.23423423423423 8.46376811594205  C 1.19309309309201 3  8.10480480480361 0.733333333334301  14.6763892605476 0.695652173913047  L 135.765765765766 1.13333333333429  C 135.806906906908 0.799999999999997  135.916888175305 1.2  135.765765765766 8.46376811594205  L 135.765765765766 39.536231884058  C 135.900187316029 39.536231884058  135.747576711112 48.1404830917876  135.765765765766 47.9333333333343  L 14.6763892605476 47.9333333333343  C 7.14878244581213 47.9333333333343  1.23423423423423 43.8863768115942  1.23423423423423 39.536231884058  Z " stroke-width="4" stroke="#e6e7e8" fill="none" transform="matrix(1 0 0 1 1025 87 )" mask="url(#clip76)" />
  </g>
</svg>