<?xml version="1.0" encoding="utf-8"?>
<svg version="1.1" xmlns:xlink="http://www.w3.org/1999/xlink" width="145px" height="177px" xmlns="http://www.w3.org/2000/svg">
  <defs>
    <mask fill="white" id="clip95">
      <path d="M 118.640981558202 0.22665867501996  L 120.387270044221 0  C 120.387270044221 0  129.246308777879 65.7023657589368  129.246308777879 65.7023657589368  C 139.125140296246 138.580258044942  144.376370703619 175.67946945863  145 177  C 145 177  0 63.2076019807071  0 63.2076019807071  C 30.0922827312258 28.7008561612444  72.5180936344735 6.42212830901403  118.640981558202 0.226658675019996  Z " fill-rule="evenodd" />
    </mask>
  </defs>
  <g transform="matrix(1 0 0 1 -562 -327 )">
    <path d="M 118.640981558202 0.22665867501996  L 120.387270044221 0  C 120.387270044221 0  129.246308777879 65.7023657589368  129.246308777879 65.7023657589368  C 139.125140296246 138.580258044942  144.376370703619 175.67946945863  145 177  C 145 177  0 63.2076019807071  0 63.2076019807071  C 30.0922827312258 28.7008561612444  72.5180936344735 6.42212830901403  118.640981558202 0.226658675019996  Z " fill-rule="nonzero" fill="#5d7092" stroke="none" transform="matrix(1 0 0 1 562 327 )" />
    <path d="M 118.640981558202 0.22665867501996  L 120.387270044221 0  C 120.387270044221 0  129.246308777879 65.7023657589368  129.246308777879 65.7023657589368  C 139.125140296246 138.580258044942  144.376370703619 175.67946945863  145 177  C 145 177  0 63.2076019807071  0 63.2076019807071  C 30.0922827312258 28.7008561612444  72.5180936344735 6.42212830901403  118.640981558202 0.226658675019996  Z " stroke-width="2" stroke="#797979" fill="none" transform="matrix(1 0 0 1 562 327 )" mask="url(#clip95)" />
  </g>
</svg>