<?xml version="1.0" encoding="utf-8"?>
<svg version="1.1" xmlns:xlink="http://www.w3.org/1999/xlink" width="143px" height="48px" xmlns="http://www.w3.org/2000/svg">
  <defs>
    <mask fill="white" id="clip49">
      <path d="M 143 8.58823529411766  L 143 40.1176470588235  C 143 44.5317647058824  136.770297029703 48  128.841584158416 48  L 1.41584158415842 48  C 1.70555174329482 47.750262085032  1.41584158415842 44.5317647058824  1.41584158415842 40.1176470588235  L 1.41584158415842 8.58823529411766  C 1.2742574257427 8.58823529411766  1.43499983661498 0.495686274510584  1.41584158415842 0.705882352941176  L 128.841584158416 0.705882352941176  C 136.770297029703 0.705882352941176  143 4.1741176470588  143 8.58823529411766  Z " fill-rule="evenodd" />
    </mask>
  </defs>
  <g transform="matrix(1 0 0 1 -1270 -91 )">
    <path d="M 143 8.58823529411766  L 143 40.1176470588235  C 143 44.5317647058824  136.770297029703 48  128.841584158416 48  L 1.41584158415842 48  C 1.70555174329482 47.750262085032  1.41584158415842 44.5317647058824  1.41584158415842 40.1176470588235  L 1.41584158415842 8.58823529411766  C 1.2742574257427 8.58823529411766  1.43499983661498 0.495686274510584  1.41584158415842 0.705882352941176  L 128.841584158416 0.705882352941176  C 136.770297029703 0.705882352941176  143 4.1741176470588  143 8.58823529411766  Z " fill-rule="nonzero" fill="#235bdb" stroke="none" transform="matrix(1 0 0 1 1270 91 )" />
    <path d="M 143 8.58823529411766  L 143 40.1176470588235  C 143 44.5317647058824  136.770297029703 48  128.841584158416 48  L 1.41584158415842 48  C 1.70555174329482 47.750262085032  1.41584158415842 44.5317647058824  1.41584158415842 40.1176470588235  L 1.41584158415842 8.58823529411766  C 1.2742574257427 8.58823529411766  1.43499983661498 0.495686274510584  1.41584158415842 0.705882352941176  L 128.841584158416 0.705882352941176  C 136.770297029703 0.705882352941176  143 4.1741176470588  143 8.58823529411766  Z " stroke-width="4" stroke="#e6e7e8" fill="none" transform="matrix(1 0 0 1 1270 91 )" mask="url(#clip49)" />
  </g>
</svg>