<?xml version="1.0" encoding="utf-8"?>
<svg version="1.1" xmlns:xlink="http://www.w3.org/1999/xlink" width="148px" height="48px" xmlns="http://www.w3.org/2000/svg">
  <defs>
    <mask fill="white" id="clip54">
      <path d="M 148 8.58823529411766  L 148 40.1176470588235  C 148 44.5317647058824  141.552475247525 48  133.346534653465 48  L 1.46534653465347 48  C 1.7651864196338 47.750262085032  1.46534653465347 44.5317647058824  1.46534653465347 40.1176470588235  L 1.46534653465347 8.58823529411766  C 1.31881188118825 8.58823529411766  1.48517465607704 0.495686274510584  1.46534653465347 0.705882352941176  L 133.346534653465 0.705882352941176  C 141.552475247525 0.705882352941176  148 4.1741176470588  148 8.58823529411766  Z " fill-rule="evenodd" />
    </mask>
  </defs>
  <g transform="matrix(1 0 0 1 -591 -92 )">
    <path d="M 148 8.58823529411766  L 148 40.1176470588235  C 148 44.5317647058824  141.552475247525 48  133.346534653465 48  L 1.46534653465347 48  C 1.7651864196338 47.750262085032  1.46534653465347 44.5317647058824  1.46534653465347 40.1176470588235  L 1.46534653465347 8.58823529411766  C 1.31881188118825 8.58823529411766  1.48517465607704 0.495686274510584  1.46534653465347 0.705882352941176  L 133.346534653465 0.705882352941176  C 141.552475247525 0.705882352941176  148 4.1741176470588  148 8.58823529411766  Z " fill-rule="nonzero" fill="#235bdb" stroke="none" fill-opacity="0.690196078431373" transform="matrix(1 0 0 1 591 92 )" />
    <path d="M 148 8.58823529411766  L 148 40.1176470588235  C 148 44.5317647058824  141.552475247525 48  133.346534653465 48  L 1.46534653465347 48  C 1.7651864196338 47.750262085032  1.46534653465347 44.5317647058824  1.46534653465347 40.1176470588235  L 1.46534653465347 8.58823529411766  C 1.31881188118825 8.58823529411766  1.48517465607704 0.495686274510584  1.46534653465347 0.705882352941176  L 133.346534653465 0.705882352941176  C 141.552475247525 0.705882352941176  148 4.1741176470588  148 8.58823529411766  Z " stroke-width="4" stroke="#e6e7e8" fill="none" transform="matrix(1 0 0 1 591 92 )" mask="url(#clip54)" />
  </g>
</svg>