<?xml version="1.0" encoding="utf-8"?>
<svg version="1.1" xmlns:xlink="http://www.w3.org/1999/xlink" width="442px" height="200px" xmlns="http://www.w3.org/2000/svg">
  <defs>
    <linearGradient gradientUnits="userSpaceOnUse" x1="220.5" y1="-5.20261437908495" x2="220.5" y2="199" id="LinearGradient40">
      <stop id="Stop41" stop-color="#ccddfa" offset="0" />
      <stop id="Stop42" stop-color="#f8fdff" offset="1" />
    </linearGradient>
  </defs>
  <g transform="matrix(1 0 0 1 -260 -174 )">
    <path d="M 1.5 199  L 1.5 33  C 0.5 31.04  2.04000000000002 29.5  4 29.5  C 4 29.5  1.22448979591837 30.0816326530612  440.5 0.693877551021217  L 440.5 199  L 1.5 199  Z " fill-rule="nonzero" fill="url(#LinearGradient40)" stroke="none" transform="matrix(1 0 0 1 260 174 )" />
    <path d="M 1.5 199  L 1.5 33  C 0.5 31.04  2.04000000000002 29.5  4 29.5  C 4 29.5  1.22448979591837 30.0816326530612  440.5 0.693877551021217  L 440.5 199  " stroke-width="1" stroke="#e0eafa" fill="none" transform="matrix(1 0 0 1 260 174 )" />
  </g>
</svg>