<svg version="1.1" xmlns="http://www.w3.org/2000/svg" xmlns:xlink="http://www.w3.org/1999/xlink" width="690.40625" height="330"><defs/><g><text fill="#eeeeee" stroke="none" font-family="Arial" font-size="24px" font-style="normal" font-weight="normal" text-decoration="none" x="0" y="0">UNREGISTERED</text><text fill="#eeeeee" stroke="none" font-family="Arial" font-size="24px" font-style="normal" font-weight="normal" text-decoration="none" x="0" y="30">UNREGISTERED</text><text fill="#eeeeee" stroke="none" font-family="Arial" font-size="24px" font-style="normal" font-weight="normal" text-decoration="none" x="0" y="60">UNREGISTERED</text><text fill="#eeeeee" stroke="none" font-family="Arial" font-size="24px" font-style="normal" font-weight="normal" text-decoration="none" x="0" y="90">UNREGISTERED</text><text fill="#eeeeee" stroke="none" font-family="Arial" font-size="24px" font-style="normal" font-weight="normal" text-decoration="none" x="0" y="120">UNREGISTERED</text><text fill="#eeeeee" stroke="none" font-family="Arial" font-size="24px" font-style="normal" font-weight="normal" text-decoration="none" x="0" y="150">UNREGISTERED</text><text fill="#eeeeee" stroke="none" font-family="Arial" font-size="24px" font-style="normal" font-weight="normal" text-decoration="none" x="0" y="180">UNREGISTERED</text><text fill="#eeeeee" stroke="none" font-family="Arial" font-size="24px" font-style="normal" font-weight="normal" text-decoration="none" x="0" y="210">UNREGISTERED</text><text fill="#eeeeee" stroke="none" font-family="Arial" font-size="24px" font-style="normal" font-weight="normal" text-decoration="none" x="0" y="240">UNREGISTERED</text><text fill="#eeeeee" stroke="none" font-family="Arial" font-size="24px" font-style="normal" font-weight="normal" text-decoration="none" x="0" y="270">UNREGISTERED</text><text fill="#eeeeee" stroke="none" font-family="Arial" font-size="24px" font-style="normal" font-weight="normal" text-decoration="none" x="0" y="300">UNREGISTERED</text><text fill="#eeeeee" stroke="none" font-family="Arial" font-size="24px" font-style="normal" font-weight="normal" text-decoration="none" x="200" y="0">UNREGISTERED</text><text fill="#eeeeee" stroke="none" font-family="Arial" font-size="24px" font-style="normal" font-weight="normal" text-decoration="none" x="200" y="30">UNREGISTERED</text><text fill="#eeeeee" stroke="none" font-family="Arial" font-size="24px" font-style="normal" font-weight="normal" text-decoration="none" x="200" y="60">UNREGISTERED</text><text fill="#eeeeee" stroke="none" font-family="Arial" font-size="24px" font-style="normal" font-weight="normal" text-decoration="none" x="200" y="90">UNREGISTERED</text><text fill="#eeeeee" stroke="none" font-family="Arial" font-size="24px" font-style="normal" font-weight="normal" text-decoration="none" x="200" y="120">UNREGISTERED</text><text fill="#eeeeee" stroke="none" font-family="Arial" font-size="24px" font-style="normal" font-weight="normal" text-decoration="none" x="200" y="150">UNREGISTERED</text><text fill="#eeeeee" stroke="none" font-family="Arial" font-size="24px" font-style="normal" font-weight="normal" text-decoration="none" x="200" y="180">UNREGISTERED</text><text fill="#eeeeee" stroke="none" font-family="Arial" font-size="24px" font-style="normal" font-weight="normal" text-decoration="none" x="200" y="210">UNREGISTERED</text><text fill="#eeeeee" stroke="none" font-family="Arial" font-size="24px" font-style="normal" font-weight="normal" text-decoration="none" x="200" y="240">UNREGISTERED</text><text fill="#eeeeee" stroke="none" font-family="Arial" font-size="24px" font-style="normal" font-weight="normal" text-decoration="none" x="200" y="270">UNREGISTERED</text><text fill="#eeeeee" stroke="none" font-family="Arial" font-size="24px" font-style="normal" font-weight="normal" text-decoration="none" x="200" y="300">UNREGISTERED</text><text fill="#eeeeee" stroke="none" font-family="Arial" font-size="24px" font-style="normal" font-weight="normal" text-decoration="none" x="400" y="0">UNREGISTERED</text><text fill="#eeeeee" stroke="none" font-family="Arial" font-size="24px" font-style="normal" font-weight="normal" text-decoration="none" x="400" y="30">UNREGISTERED</text><text fill="#eeeeee" stroke="none" font-family="Arial" font-size="24px" font-style="normal" font-weight="normal" text-decoration="none" x="400" y="60">UNREGISTERED</text><text fill="#eeeeee" stroke="none" font-family="Arial" font-size="24px" font-style="normal" font-weight="normal" text-decoration="none" x="400" y="90">UNREGISTERED</text><text fill="#eeeeee" stroke="none" font-family="Arial" font-size="24px" font-style="normal" font-weight="normal" text-decoration="none" x="400" y="120">UNREGISTERED</text><text fill="#eeeeee" stroke="none" font-family="Arial" font-size="24px" font-style="normal" font-weight="normal" text-decoration="none" x="400" y="150">UNREGISTERED</text><text fill="#eeeeee" stroke="none" font-family="Arial" font-size="24px" font-style="normal" font-weight="normal" text-decoration="none" x="400" y="180">UNREGISTERED</text><text fill="#eeeeee" stroke="none" font-family="Arial" font-size="24px" font-style="normal" font-weight="normal" text-decoration="none" x="400" y="210">UNREGISTERED</text><text fill="#eeeeee" stroke="none" font-family="Arial" font-size="24px" font-style="normal" font-weight="normal" text-decoration="none" x="400" y="240">UNREGISTERED</text><text fill="#eeeeee" stroke="none" font-family="Arial" font-size="24px" font-style="normal" font-weight="normal" text-decoration="none" x="400" y="270">UNREGISTERED</text><text fill="#eeeeee" stroke="none" font-family="Arial" font-size="24px" font-style="normal" font-weight="normal" text-decoration="none" x="400" y="300">UNREGISTERED</text><text fill="#eeeeee" stroke="none" font-family="Arial" font-size="24px" font-style="normal" font-weight="normal" text-decoration="none" x="600" y="0">UNREGISTERED</text><text fill="#eeeeee" stroke="none" font-family="Arial" font-size="24px" font-style="normal" font-weight="normal" text-decoration="none" x="600" y="30">UNREGISTERED</text><text fill="#eeeeee" stroke="none" font-family="Arial" font-size="24px" font-style="normal" font-weight="normal" text-decoration="none" x="600" y="60">UNREGISTERED</text><text fill="#eeeeee" stroke="none" font-family="Arial" font-size="24px" font-style="normal" font-weight="normal" text-decoration="none" x="600" y="90">UNREGISTERED</text><text fill="#eeeeee" stroke="none" font-family="Arial" font-size="24px" font-style="normal" font-weight="normal" text-decoration="none" x="600" y="120">UNREGISTERED</text><text fill="#eeeeee" stroke="none" font-family="Arial" font-size="24px" font-style="normal" font-weight="normal" text-decoration="none" x="600" y="150">UNREGISTERED</text><text fill="#eeeeee" stroke="none" font-family="Arial" font-size="24px" font-style="normal" font-weight="normal" text-decoration="none" x="600" y="180">UNREGISTERED</text><text fill="#eeeeee" stroke="none" font-family="Arial" font-size="24px" font-style="normal" font-weight="normal" text-decoration="none" x="600" y="210">UNREGISTERED</text><text fill="#eeeeee" stroke="none" font-family="Arial" font-size="24px" font-style="normal" font-weight="normal" text-decoration="none" x="600" y="240">UNREGISTERED</text><text fill="#eeeeee" stroke="none" font-family="Arial" font-size="24px" font-style="normal" font-weight="normal" text-decoration="none" x="600" y="270">UNREGISTERED</text><text fill="#eeeeee" stroke="none" font-family="Arial" font-size="24px" font-style="normal" font-weight="normal" text-decoration="none" x="600" y="300">UNREGISTERED</text><g transform="translate(-70,-142) scale(1,1)"><rect fill="#C0C0C0" stroke="none" x="269" y="237" width="35" height="24" opacity="0.2"/></g><g transform="translate(-70,-142) scale(1,1)"><rect fill="#ffffff" stroke="none" x="262" y="230" width="35" height="24"/></g><g transform="translate(-70,-142) scale(1,1)"><path fill="none" stroke="#000000" d="M 262 230 L 297 230 L 297 254 L 262 254 L 262 230 Z Z" stroke-miterlimit="10"/></g><g transform="translate(-70,-142) scale(1,1)"><g><path fill="none" stroke="none"/><text fill="#000000" stroke="none" font-family="Arial" font-size="13px" font-style="normal" font-weight="bold" text-decoration="none" x="266.5" y="249.5">庄家</text></g></g><g transform="translate(-70,-142) scale(1,1)"><path fill="#C0C0C0" stroke="none" d="M 274 178.5 C 274 172.1487248 279.1487248 167 285.5 167 C 291.8512752 167 297 172.1487248 297 178.5 C 297 184.8512752 291.8512752 190 285.5 190 C 279.1487248 190 274 184.8512752 274 178.5 Z" opacity="0.2"/></g><g transform="translate(-70,-142) scale(1,1)"><path fill="#ffffff" stroke="none" d="M 267 171.5 C 267 165.1487248 272.1487248 160 278.5 160 C 284.8512752 160 290 165.1487248 290 171.5 C 290 177.8512752 284.8512752 183 278.5 183 C 272.1487248 183 267 177.8512752 267 171.5 Z"/></g><g transform="translate(-70,-142) scale(1,1)"><path fill="none" stroke="#000000" d="M 267 171.5 C 267 165.1487248 272.1487248 160 278.5 160 C 284.8512752 160 290 165.1487248 290 171.5 C 290 177.8512752 284.8512752 183 278.5 183 C 272.1487248 183 267 177.8512752 267 171.5 Z" stroke-miterlimit="10"/></g><g transform="translate(-70,-142) scale(1,1)"><g><path fill="none" stroke="none"/><text fill="#000000" stroke="none" font-family="Arial" font-size="13px" font-style="normal" font-weight="bold" text-decoration="none" x="252.5" y="202.5">纸牌显示</text></g></g><g transform="translate(-70,-142) scale(1,1)"><path fill="none" stroke="#000000" d="M 279 229 L 278 183" stroke-miterlimit="10"/></g><g transform="translate(-70,-142) scale(1,1)"><path fill="none" stroke="#000000" d="M 264 229 Q 248 216 270.7368421052632 183" stroke-miterlimit="10"/></g><g transform="translate(-70,-142) scale(1,1)"><rect fill="#C0C0C0" stroke="none" x="87" y="159" width="106.919921875" height="175" opacity="0.2"/></g><g transform="translate(-70,-142) scale(1,1)"><rect fill="#ffffff" stroke="none" x="80" y="152" width="106.919921875" height="175"/></g><g transform="translate(-70,-142) scale(1,1)"><path fill="none" stroke="#000000" d="M 80 152 L 186.919921875 152 L 186.919921875 327 L 80 327 L 80 152 Z Z" stroke-miterlimit="10"/></g><g transform="translate(-70,-142) scale(1,1)"><path fill="none" stroke="#000000" d="M 80 177 L 186.919921875 177" stroke-miterlimit="10"/></g><g transform="translate(-70,-142) scale(1,1)"><path fill="none" stroke="#000000" d="M 80 230 L 186.919921875 230" stroke-miterlimit="10"/></g><g transform="translate(-70,-142) scale(1,1)"><g><path fill="none" stroke="none"/><text fill="#000000" stroke="none" font-family="Arial" font-size="13px" font-style="normal" font-weight="bold" text-decoration="none" x="115.035888671875" y="171.5">Player</text></g></g><g transform="translate(-70,-142) scale(1,1)"><g><path fill="none" stroke="none"/><text fill="#000000" stroke="none" font-family="Arial" font-size="13px" font-style="normal" font-weight="normal" text-decoration="none" x="85" y="194.5">-betMoney</text></g></g><g transform="translate(-70,-142) scale(1,1)"><g><path fill="none" stroke="none"/><text fill="#000000" stroke="none" font-family="Arial" font-size="13px" font-style="normal" font-weight="normal" text-decoration="none" x="85" y="209.5">-remainMoney</text></g></g><g transform="translate(-70,-142) scale(1,1)"><g><path fill="none" stroke="none"/><text fill="#000000" stroke="none" font-family="Arial" font-size="13px" font-style="normal" font-weight="normal" text-decoration="none" x="85" y="224.5">-Cards</text></g></g><g transform="translate(-70,-142) scale(1,1)"><g><path fill="none" stroke="none"/><text fill="#000000" stroke="none" font-family="Arial" font-size="13px" font-style="normal" font-weight="normal" text-decoration="none" x="85" y="247.5">+start()</text></g></g><g transform="translate(-70,-142) scale(1,1)"><g><path fill="none" stroke="none"/><text fill="#000000" stroke="none" font-family="Arial" font-size="13px" font-style="normal" font-weight="normal" text-decoration="none" x="85" y="262.5">+double()</text></g></g><g transform="translate(-70,-142) scale(1,1)"><g><path fill="none" stroke="none"/><text fill="#000000" stroke="none" font-family="Arial" font-size="13px" font-style="normal" font-weight="normal" text-decoration="none" x="85" y="277.5">+insurance()</text></g></g><g transform="translate(-70,-142) scale(1,1)"><g><path fill="none" stroke="none"/><text fill="#000000" stroke="none" font-family="Arial" font-size="13px" font-style="normal" font-weight="normal" text-decoration="none" x="85" y="292.5">+devide()</text></g></g><g transform="translate(-70,-142) scale(1,1)"><g><path fill="none" stroke="none"/><text fill="#000000" stroke="none" font-family="Arial" font-size="13px" font-style="normal" font-weight="normal" text-decoration="none" x="85" y="307.5">+in()</text></g></g><g transform="translate(-70,-142) scale(1,1)"><g><path fill="none" stroke="none"/><text fill="#000000" stroke="none" font-family="Arial" font-size="13px" font-style="normal" font-weight="normal" text-decoration="none" x="85" y="322.5">+out()</text></g></g><g transform="translate(-70,-142) scale(1,1)"><path fill="none" stroke="#000000" d="M 188 240 L 261 242" stroke-miterlimit="10"/></g><g transform="translate(-70,-142) scale(1,1)"><path fill="#FFFFFF" stroke="none" d="M 240.45170220853507 249.8592275621258 L 261 242 L 240.91284618574724 233.02747239388196"/></g><g transform="translate(-70,-142) scale(1,1)"><path fill="none" stroke="#000000" d="M 240.45170220853507 249.8592275621258 L 261 242 L 240.91284618574724 233.02747239388196 L 240.45170220853507 249.8592275621258" stroke-miterlimit="10"/></g><g transform="translate(-70,-142) scale(1,1)"><rect fill="#C0C0C0" stroke="none" x="87" y="351" width="138.67626953125" height="115" opacity="0.2"/></g><g transform="translate(-70,-142) scale(1,1)"><rect fill="#ffffff" stroke="none" x="80" y="344" width="138.67626953125" height="115"/></g><g transform="translate(-70,-142) scale(1,1)"><path fill="none" stroke="#000000" d="M 80 344 L 218.67626953125 344 L 218.67626953125 459 L 80 459 L 80 344 Z Z" stroke-miterlimit="10"/></g><g transform="translate(-70,-142) scale(1,1)"><path fill="none" stroke="#000000" d="M 80 369 L 218.67626953125 369" stroke-miterlimit="10"/></g><g transform="translate(-70,-142) scale(1,1)"><path fill="none" stroke="#000000" d="M 80 392 L 218.67626953125 392" stroke-miterlimit="10"/></g><g transform="translate(-70,-142) scale(1,1)"><g><path fill="none" stroke="none"/><text fill="#000000" stroke="none" font-family="Arial" font-size="13px" font-style="normal" font-weight="bold" text-decoration="none" x="134.522705078125" y="363.5">Point</text></g></g><g transform="translate(-70,-142) scale(1,1)"><g><path fill="none" stroke="none"/><text fill="#000000" stroke="none" font-family="Arial" font-size="13px" font-style="normal" font-weight="normal" text-decoration="none" x="85" y="386.5">-result</text></g></g><g transform="translate(-70,-142) scale(1,1)"><g><path fill="none" stroke="none"/><text fill="#000000" stroke="none" font-family="Arial" font-size="13px" font-style="normal" font-weight="normal" text-decoration="none" x="85" y="409.5">+getCardsContent()</text></g></g><g transform="translate(-70,-142) scale(1,1)"><g><path fill="none" stroke="none"/><text fill="#000000" stroke="none" font-family="Arial" font-size="13px" font-style="normal" font-weight="normal" text-decoration="none" x="85" y="424.5">+compareWithPlayer()</text></g></g><g transform="translate(-70,-142) scale(1,1)"><g><path fill="none" stroke="none"/><text fill="#000000" stroke="none" font-family="Arial" font-size="13px" font-style="normal" font-weight="normal" text-decoration="none" x="85" y="439.5">+compareWith21()</text></g></g><g transform="translate(-70,-142) scale(1,1)"><g><path fill="none" stroke="none"/><text fill="#000000" stroke="none" font-family="Arial" font-size="13px" font-style="normal" font-weight="normal" text-decoration="none" x="85" y="454.5">+getResult()</text></g></g><g transform="translate(-70,-142) scale(1,1)"><rect fill="#C0C0C0" stroke="none" x="631" y="166" width="126.40625" height="145" opacity="0.2"/></g><g transform="translate(-70,-142) scale(1,1)"><rect fill="#ffffff" stroke="none" x="624" y="159" width="126.40625" height="145"/></g><g transform="translate(-70,-142) scale(1,1)"><path fill="none" stroke="#000000" d="M 624 159 L 750.40625 159 L 750.40625 304 L 624 304 L 624 159 Z Z" stroke-miterlimit="10"/></g><g transform="translate(-70,-142) scale(1,1)"><path fill="none" stroke="#000000" d="M 624 184 L 750.40625 184" stroke-miterlimit="10"/></g><g transform="translate(-70,-142) scale(1,1)"><path fill="none" stroke="#000000" d="M 624 237 L 750.40625 237" stroke-miterlimit="10"/></g><g transform="translate(-70,-142) scale(1,1)"><g><path fill="none" stroke="none"/><text fill="#000000" stroke="none" font-family="Arial" font-size="13px" font-style="normal" font-weight="bold" text-decoration="none" x="668.05859375" y="178.5">Server</text></g></g><g transform="translate(-70,-142) scale(1,1)"><g><path fill="none" stroke="none"/><text fill="#000000" stroke="none" font-family="Arial" font-size="13px" font-style="normal" font-weight="normal" text-decoration="none" x="629" y="201.5">-outCardLog</text></g></g><g transform="translate(-70,-142) scale(1,1)"><g><path fill="none" stroke="none"/><text fill="#000000" stroke="none" font-family="Arial" font-size="13px" font-style="normal" font-weight="normal" text-decoration="none" x="629" y="216.5">-playerState</text></g></g><g transform="translate(-70,-142) scale(1,1)"><g><path fill="none" stroke="none"/><text fill="#000000" stroke="none" font-family="Arial" font-size="13px" font-style="normal" font-weight="normal" text-decoration="none" x="629" y="231.5">-rate</text></g></g><g transform="translate(-70,-142) scale(1,1)"><g><path fill="none" stroke="none"/><text fill="#000000" stroke="none" font-family="Arial" font-size="13px" font-style="normal" font-weight="normal" text-decoration="none" x="629" y="254.5">+outCard()</text></g></g><g transform="translate(-70,-142) scale(1,1)"><g><path fill="none" stroke="none"/><text fill="#000000" stroke="none" font-family="Arial" font-size="13px" font-style="normal" font-weight="normal" text-decoration="none" x="629" y="269.5">+getBetMoney()</text></g></g><g transform="translate(-70,-142) scale(1,1)"><g><path fill="none" stroke="none"/><text fill="#000000" stroke="none" font-family="Arial" font-size="13px" font-style="normal" font-weight="normal" text-decoration="none" x="629" y="284.5">+setRemainMoney()</text></g></g><g transform="translate(-70,-142) scale(1,1)"><g><path fill="none" stroke="none"/><text fill="#000000" stroke="none" font-family="Arial" font-size="13px" font-style="normal" font-weight="normal" text-decoration="none" x="629" y="299.5">+setInfo()</text></g></g><g transform="translate(-70,-142) scale(1,1)"><rect fill="#C0C0C0" stroke="none" x="215" y="367" width="124.97802734375" height="102" opacity="0.2"/></g><g transform="translate(-70,-142) scale(1,1)"><rect fill="#ffffff" stroke="none" x="208" y="360" width="124.97802734375" height="102"/></g><g transform="translate(-70,-142) scale(1,1)"><path fill="none" stroke="#000000" d="M 208 360 L 332.97802734375 360 L 332.97802734375 462 L 208 462 L 208 360 Z Z" stroke-miterlimit="10"/></g><g transform="translate(-70,-142) scale(1,1)"><path fill="none" stroke="#000000" d="M 208 385 L 332.97802734375 385" stroke-miterlimit="10"/></g><g transform="translate(-70,-142) scale(1,1)"><path fill="none" stroke="#000000" d="M 208 395 L 332.97802734375 395" stroke-miterlimit="10"/></g><g transform="translate(-70,-142) scale(1,1)"><g><path fill="none" stroke="none"/><text fill="#000000" stroke="none" font-family="Arial" font-size="13px" font-style="normal" font-weight="bold" text-decoration="none" x="263.989013671875" y="379.5">UI</text></g></g><g transform="translate(-70,-142) scale(1,1)"><g><path fill="none" stroke="none"/><text fill="#000000" stroke="none" font-family="Arial" font-size="13px" font-style="normal" font-weight="normal" text-decoration="none" x="213" y="412.5">+showCards()</text></g></g><g transform="translate(-70,-142) scale(1,1)"><g><path fill="none" stroke="none"/><text fill="#000000" stroke="none" font-family="Arial" font-size="13px" font-style="normal" font-weight="normal" text-decoration="none" x="213" y="427.5">+showBackground()</text></g></g><g transform="translate(-70,-142) scale(1,1)"><g><path fill="none" stroke="none"/><text fill="#000000" stroke="none" font-family="Arial" font-size="13px" font-style="normal" font-weight="normal" text-decoration="none" x="213" y="442.5">+showButton()</text></g></g><g transform="translate(-70,-142) scale(1,1)"><g><path fill="none" stroke="none"/><text fill="#000000" stroke="none" font-family="Arial" font-size="13px" font-style="normal" font-weight="normal" text-decoration="none" x="213" y="457.5">+showHints()</text></g></g><g transform="translate(-70,-142) scale(1,1)"><rect fill="#C0C0C0" stroke="none" x="351" y="166" width="131.32568359375" height="145" opacity="0.2"/></g><g transform="translate(-70,-142) scale(1,1)"><rect fill="#ffffff" stroke="none" x="344" y="159" width="131.32568359375" height="145"/></g><g transform="translate(-70,-142) scale(1,1)"><path fill="none" stroke="#000000" d="M 344 159 L 475.32568359375 159 L 475.32568359375 304 L 344 304 L 344 159 Z Z" stroke-miterlimit="10"/></g><g transform="translate(-70,-142) scale(1,1)"><path fill="none" stroke="#000000" d="M 344 184 L 475.32568359375 184" stroke-miterlimit="10"/></g><g transform="translate(-70,-142) scale(1,1)"><path fill="none" stroke="#000000" d="M 344 237 L 475.32568359375 237" stroke-miterlimit="10"/></g><g transform="translate(-70,-142) scale(1,1)"><g><path fill="none" stroke="none"/><text fill="#000000" stroke="none" font-family="Arial" font-size="13px" font-style="normal" font-weight="bold" text-decoration="none" x="387.991943359375" y="178.5">System</text></g></g><g transform="translate(-70,-142) scale(1,1)"><g><path fill="none" stroke="none"/><text fill="#000000" stroke="none" font-family="Arial" font-size="13px" font-style="normal" font-weight="normal" text-decoration="none" x="349" y="201.5">-terminalIformation</text></g></g><g transform="translate(-70,-142) scale(1,1)"><g><path fill="none" stroke="none"/><text fill="#000000" stroke="none" font-family="Arial" font-size="13px" font-style="normal" font-weight="normal" text-decoration="none" x="349" y="216.5">-timestamp</text></g></g><g transform="translate(-70,-142) scale(1,1)"><g><path fill="none" stroke="none"/><text fill="#000000" stroke="none" font-family="Arial" font-size="13px" font-style="normal" font-weight="normal" text-decoration="none" x="349" y="231.5">-logs</text></g></g><g transform="translate(-70,-142) scale(1,1)"><g><path fill="none" stroke="none"/><text fill="#000000" stroke="none" font-family="Arial" font-size="13px" font-style="normal" font-weight="normal" text-decoration="none" x="349" y="254.5">+control()</text></g></g><g transform="translate(-70,-142) scale(1,1)"><g><path fill="none" stroke="none"/><text fill="#000000" stroke="none" font-family="Arial" font-size="13px" font-style="normal" font-weight="normal" text-decoration="none" x="349" y="269.5">+sendInfo()</text></g></g><g transform="translate(-70,-142) scale(1,1)"><g><path fill="none" stroke="none"/><text fill="#000000" stroke="none" font-family="Arial" font-size="13px" font-style="normal" font-weight="normal" text-decoration="none" x="349" y="284.5">+acceptInfo()</text></g></g><g transform="translate(-70,-142) scale(1,1)"><g><path fill="none" stroke="none"/><text fill="#000000" stroke="none" font-family="Arial" font-size="13px" font-style="normal" font-weight="normal" text-decoration="none" x="349" y="299.5">+writeLog()</text></g></g><g transform="translate(-70,-142) scale(1,1)"><rect fill="#C0C0C0" stroke="none" x="503" y="166" width="105.32568359375" height="87" opacity="0.2"/></g><g transform="translate(-70,-142) scale(1,1)"><rect fill="#ffffff" stroke="none" x="496" y="159" width="105.32568359375" height="87"/></g><g transform="translate(-70,-142) scale(1,1)"><path fill="none" stroke="#000000" d="M 496 159 L 601.32568359375 159 L 601.32568359375 246 L 496 246 L 496 159 Z Z" stroke-miterlimit="10"/></g><g transform="translate(-70,-142) scale(1,1)"><path fill="none" stroke="#000000" d="M 496 184 L 601.32568359375 184" stroke-miterlimit="10"/></g><g transform="translate(-70,-142) scale(1,1)"><path fill="none" stroke="#000000" d="M 496 194 L 601.32568359375 194" stroke-miterlimit="10"/></g><g transform="translate(-70,-142) scale(1,1)"><g><path fill="none" stroke="none"/><text fill="#000000" stroke="none" font-family="Arial" font-size="13px" font-style="normal" font-weight="bold" text-decoration="none" x="525.538330078125" y="178.5">outCard</text></g></g><g transform="translate(-70,-142) scale(1,1)"><g><path fill="none" stroke="none"/><text fill="#000000" stroke="none" font-family="Arial" font-size="13px" font-style="normal" font-weight="normal" text-decoration="none" x="501" y="211.5">+randomGet()</text></g></g><g transform="translate(-70,-142) scale(1,1)"><g><path fill="none" stroke="none"/><text fill="#000000" stroke="none" font-family="Arial" font-size="13px" font-style="normal" font-weight="normal" text-decoration="none" x="501" y="226.5">+getCurPlayer()</text></g></g><g transform="translate(-70,-142) scale(1,1)"><g><path fill="none" stroke="none"/><text fill="#000000" stroke="none" font-family="Arial" font-size="13px" font-style="normal" font-weight="normal" text-decoration="none" x="501" y="241.5">+addCard()</text></g></g><g transform="translate(-70,-142) scale(1,1)"><path fill="none" stroke="#000000" d="M 476 217 L 495 213" stroke-miterlimit="10"/></g><g transform="translate(-70,-142) scale(1,1)"><path fill="none" stroke="#000000" d="M 485.92252148108633 219.21284023121964 L 495 213 L 484.1881119252769 210.97439484112493" stroke-miterlimit="10"/></g><g transform="translate(-70,-142) scale(1,1)"><path fill="none" stroke="#000000" d="M 623 218 L 602 213" stroke-miterlimit="10"/></g><g transform="translate(-70,-142) scale(1,1)"><path fill="none" stroke="#000000" d="M 612.861323981676 211.25883907548197 L 602 213 L 610.911302536971 219.4489291432435" stroke-miterlimit="10"/></g></g></svg>