<svg version="1.1" xmlns="http://www.w3.org/2000/svg" xmlns:xlink="http://www.w3.org/1999/xlink" width="707.25" height="323"><defs/><g><text fill="#eeeeee" stroke="none" font-family="Arial" font-size="24px" font-style="normal" font-weight="normal" text-decoration="none" x="0" y="0">UNREGISTERED</text><text fill="#eeeeee" stroke="none" font-family="Arial" font-size="24px" font-style="normal" font-weight="normal" text-decoration="none" x="0" y="30">UNREGISTERED</text><text fill="#eeeeee" stroke="none" font-family="Arial" font-size="24px" font-style="normal" font-weight="normal" text-decoration="none" x="0" y="60">UNREGISTERED</text><text fill="#eeeeee" stroke="none" font-family="Arial" font-size="24px" font-style="normal" font-weight="normal" text-decoration="none" x="0" y="90">UNREGISTERED</text><text fill="#eeeeee" stroke="none" font-family="Arial" font-size="24px" font-style="normal" font-weight="normal" text-decoration="none" x="0" y="120">UNREGISTERED</text><text fill="#eeeeee" stroke="none" font-family="Arial" font-size="24px" font-style="normal" font-weight="normal" text-decoration="none" x="0" y="150">UNREGISTERED</text><text fill="#eeeeee" stroke="none" font-family="Arial" font-size="24px" font-style="normal" font-weight="normal" text-decoration="none" x="0" y="180">UNREGISTERED</text><text fill="#eeeeee" stroke="none" font-family="Arial" font-size="24px" font-style="normal" font-weight="normal" text-decoration="none" x="0" y="210">UNREGISTERED</text><text fill="#eeeeee" stroke="none" font-family="Arial" font-size="24px" font-style="normal" font-weight="normal" text-decoration="none" x="0" y="240">UNREGISTERED</text><text fill="#eeeeee" stroke="none" font-family="Arial" font-size="24px" font-style="normal" font-weight="normal" text-decoration="none" x="0" y="270">UNREGISTERED</text><text fill="#eeeeee" stroke="none" font-family="Arial" font-size="24px" font-style="normal" font-weight="normal" text-decoration="none" x="0" y="300">UNREGISTERED</text><text fill="#eeeeee" stroke="none" font-family="Arial" font-size="24px" font-style="normal" font-weight="normal" text-decoration="none" x="200" y="0">UNREGISTERED</text><text fill="#eeeeee" stroke="none" font-family="Arial" font-size="24px" font-style="normal" font-weight="normal" text-decoration="none" x="200" y="30">UNREGISTERED</text><text fill="#eeeeee" stroke="none" font-family="Arial" font-size="24px" font-style="normal" font-weight="normal" text-decoration="none" x="200" y="60">UNREGISTERED</text><text fill="#eeeeee" stroke="none" font-family="Arial" font-size="24px" font-style="normal" font-weight="normal" text-decoration="none" x="200" y="90">UNREGISTERED</text><text fill="#eeeeee" stroke="none" font-family="Arial" font-size="24px" font-style="normal" font-weight="normal" text-decoration="none" x="200" y="120">UNREGISTERED</text><text fill="#eeeeee" stroke="none" font-family="Arial" font-size="24px" font-style="normal" font-weight="normal" text-decoration="none" x="200" y="150">UNREGISTERED</text><text fill="#eeeeee" stroke="none" font-family="Arial" font-size="24px" font-style="normal" font-weight="normal" text-decoration="none" x="200" y="180">UNREGISTERED</text><text fill="#eeeeee" stroke="none" font-family="Arial" font-size="24px" font-style="normal" font-weight="normal" text-decoration="none" x="200" y="210">UNREGISTERED</text><text fill="#eeeeee" stroke="none" font-family="Arial" font-size="24px" font-style="normal" font-weight="normal" text-decoration="none" x="200" y="240">UNREGISTERED</text><text fill="#eeeeee" stroke="none" font-family="Arial" font-size="24px" font-style="normal" font-weight="normal" text-decoration="none" x="200" y="270">UNREGISTERED</text><text fill="#eeeeee" stroke="none" font-family="Arial" font-size="24px" font-style="normal" font-weight="normal" text-decoration="none" x="200" y="300">UNREGISTERED</text><text fill="#eeeeee" stroke="none" font-family="Arial" font-size="24px" font-style="normal" font-weight="normal" text-decoration="none" x="400" y="0">UNREGISTERED</text><text fill="#eeeeee" stroke="none" font-family="Arial" font-size="24px" font-style="normal" font-weight="normal" text-decoration="none" x="400" y="30">UNREGISTERED</text><text fill="#eeeeee" stroke="none" font-family="Arial" font-size="24px" font-style="normal" font-weight="normal" text-decoration="none" x="400" y="60">UNREGISTERED</text><text fill="#eeeeee" stroke="none" font-family="Arial" font-size="24px" font-style="normal" font-weight="normal" text-decoration="none" x="400" y="90">UNREGISTERED</text><text fill="#eeeeee" stroke="none" font-family="Arial" font-size="24px" font-style="normal" font-weight="normal" text-decoration="none" x="400" y="120">UNREGISTERED</text><text fill="#eeeeee" stroke="none" font-family="Arial" font-size="24px" font-style="normal" font-weight="normal" text-decoration="none" x="400" y="150">UNREGISTERED</text><text fill="#eeeeee" stroke="none" font-family="Arial" font-size="24px" font-style="normal" font-weight="normal" text-decoration="none" x="400" y="180">UNREGISTERED</text><text fill="#eeeeee" stroke="none" font-family="Arial" font-size="24px" font-style="normal" font-weight="normal" text-decoration="none" x="400" y="210">UNREGISTERED</text><text fill="#eeeeee" stroke="none" font-family="Arial" font-size="24px" font-style="normal" font-weight="normal" text-decoration="none" x="400" y="240">UNREGISTERED</text><text fill="#eeeeee" stroke="none" font-family="Arial" font-size="24px" font-style="normal" font-weight="normal" text-decoration="none" x="400" y="270">UNREGISTERED</text><text fill="#eeeeee" stroke="none" font-family="Arial" font-size="24px" font-style="normal" font-weight="normal" text-decoration="none" x="400" y="300">UNREGISTERED</text><text fill="#eeeeee" stroke="none" font-family="Arial" font-size="24px" font-style="normal" font-weight="normal" text-decoration="none" x="600" y="0">UNREGISTERED</text><text fill="#eeeeee" stroke="none" font-family="Arial" font-size="24px" font-style="normal" font-weight="normal" text-decoration="none" x="600" y="30">UNREGISTERED</text><text fill="#eeeeee" stroke="none" font-family="Arial" font-size="24px" font-style="normal" font-weight="normal" text-decoration="none" x="600" y="60">UNREGISTERED</text><text fill="#eeeeee" stroke="none" font-family="Arial" font-size="24px" font-style="normal" font-weight="normal" text-decoration="none" x="600" y="90">UNREGISTERED</text><text fill="#eeeeee" stroke="none" font-family="Arial" font-size="24px" font-style="normal" font-weight="normal" text-decoration="none" x="600" y="120">UNREGISTERED</text><text fill="#eeeeee" stroke="none" font-family="Arial" font-size="24px" font-style="normal" font-weight="normal" text-decoration="none" x="600" y="150">UNREGISTERED</text><text fill="#eeeeee" stroke="none" font-family="Arial" font-size="24px" font-style="normal" font-weight="normal" text-decoration="none" x="600" y="180">UNREGISTERED</text><text fill="#eeeeee" stroke="none" font-family="Arial" font-size="24px" font-style="normal" font-weight="normal" text-decoration="none" x="600" y="210">UNREGISTERED</text><text fill="#eeeeee" stroke="none" font-family="Arial" font-size="24px" font-style="normal" font-weight="normal" text-decoration="none" x="600" y="240">UNREGISTERED</text><text fill="#eeeeee" stroke="none" font-family="Arial" font-size="24px" font-style="normal" font-weight="normal" text-decoration="none" x="600" y="270">UNREGISTERED</text><text fill="#eeeeee" stroke="none" font-family="Arial" font-size="24px" font-style="normal" font-weight="normal" text-decoration="none" x="600" y="300">UNREGISTERED</text><g transform="translate(-46,-1078) scale(1,1)"><rect fill="#C0C0C0" stroke="none" x="63" y="1215" width="106.919921875" height="175" opacity="0.2"/></g><g transform="translate(-46,-1078) scale(1,1)"><rect fill="#ffffff" stroke="none" x="56" y="1208" width="106.919921875" height="175"/></g><g transform="translate(-46,-1078) scale(1,1)"><path fill="none" stroke="#000000" d="M 56 1208 L 162.919921875 1208 L 162.919921875 1383 L 56 1383 L 56 1208 Z Z" stroke-miterlimit="10"/></g><g transform="translate(-46,-1078) scale(1,1)"><path fill="none" stroke="#000000" d="M 56 1233 L 162.919921875 1233" stroke-miterlimit="10"/></g><g transform="translate(-46,-1078) scale(1,1)"><path fill="none" stroke="#000000" d="M 56 1286 L 162.919921875 1286" stroke-miterlimit="10"/></g><g transform="translate(-46,-1078) scale(1,1)"><g><path fill="none" stroke="none"/><text fill="#000000" stroke="none" font-family="Arial" font-size="13px" font-style="normal" font-weight="bold" text-decoration="none" x="96.4599609375" y="1227.5">闲家</text></g></g><g transform="translate(-46,-1078) scale(1,1)"><g><path fill="none" stroke="none"/><text fill="#000000" stroke="none" font-family="Arial" font-size="13px" font-style="normal" font-weight="normal" text-decoration="none" x="61" y="1250.5">-本局赌注</text></g></g><g transform="translate(-46,-1078) scale(1,1)"><g><path fill="none" stroke="none"/><text fill="#000000" stroke="none" font-family="Arial" font-size="13px" font-style="normal" font-weight="normal" text-decoration="none" x="61" y="1265.5">-当前剩余金额</text></g></g><g transform="translate(-46,-1078) scale(1,1)"><g><path fill="none" stroke="none"/><text fill="#000000" stroke="none" font-family="Arial" font-size="13px" font-style="normal" font-weight="normal" text-decoration="none" x="61" y="1280.5">-当前拥有纸牌</text></g></g><g transform="translate(-46,-1078) scale(1,1)"><g><path fill="none" stroke="none"/><text fill="#000000" stroke="none" font-family="Arial" font-size="13px" font-style="normal" font-weight="normal" text-decoration="none" x="61" y="1303.5">+开始()</text></g></g><g transform="translate(-46,-1078) scale(1,1)"><g><path fill="none" stroke="none"/><text fill="#000000" stroke="none" font-family="Arial" font-size="13px" font-style="normal" font-weight="normal" text-decoration="none" x="61" y="1318.5">+加倍()</text></g></g><g transform="translate(-46,-1078) scale(1,1)"><g><path fill="none" stroke="none"/><text fill="#000000" stroke="none" font-family="Arial" font-size="13px" font-style="normal" font-weight="normal" text-decoration="none" x="61" y="1333.5">+保险()</text></g></g><g transform="translate(-46,-1078) scale(1,1)"><g><path fill="none" stroke="none"/><text fill="#000000" stroke="none" font-family="Arial" font-size="13px" font-style="normal" font-weight="normal" text-decoration="none" x="61" y="1348.5">+拆牌()</text></g></g><g transform="translate(-46,-1078) scale(1,1)"><g><path fill="none" stroke="none"/><text fill="#000000" stroke="none" font-family="Arial" font-size="13px" font-style="normal" font-weight="normal" text-decoration="none" x="61" y="1363.5">+拿牌()</text></g></g><g transform="translate(-46,-1078) scale(1,1)"><g><path fill="none" stroke="none"/><text fill="#000000" stroke="none" font-family="Arial" font-size="13px" font-style="normal" font-weight="normal" text-decoration="none" x="61" y="1378.5">+听牌()</text></g></g><g transform="translate(-46,-1078) scale(1,1)"><rect fill="#C0C0C0" stroke="none" x="63" y="1095" width="104" height="57" opacity="0.2"/></g><g transform="translate(-46,-1078) scale(1,1)"><rect fill="#ffffff" stroke="none" x="56" y="1088" width="104" height="57"/></g><g transform="translate(-46,-1078) scale(1,1)"><path fill="none" stroke="#000000" d="M 56 1088 L 160 1088 L 160 1145 L 56 1145 L 56 1088 Z Z" stroke-miterlimit="10"/></g><g transform="translate(-46,-1078) scale(1,1)"><path fill="none" stroke="#000000" d="M 56 1113 L 160 1113" stroke-miterlimit="10"/></g><g transform="translate(-46,-1078) scale(1,1)"><path fill="none" stroke="#000000" d="M 56 1123 L 160 1123" stroke-miterlimit="10"/></g><g transform="translate(-46,-1078) scale(1,1)"><g><path fill="none" stroke="none"/><text fill="#000000" stroke="none" font-family="Arial" font-size="13px" font-style="normal" font-weight="bold" text-decoration="none" x="95" y="1107.5">庄家</text></g></g><g transform="translate(-46,-1078) scale(1,1)"><g><path fill="none" stroke="none"/><text fill="#000000" stroke="none" font-family="Arial" font-size="13px" font-style="normal" font-weight="normal" text-decoration="none" x="61" y="1140.5">+判断黑杰克()</text></g></g><g transform="translate(-46,-1078) scale(1,1)"><path fill="none" stroke="#000000" d="M 109 1207 L 108 1146" stroke-miterlimit="10"/></g><g transform="translate(-46,-1078) scale(1,1)"><path fill="#FFFFFF" stroke="none" d="M 116.75106214344676 1166.1846206642963 L 108 1146 L 99.91525323681412 1166.460617531618"/></g><g transform="translate(-46,-1078) scale(1,1)"><path fill="none" stroke="#000000" d="M 116.75106214344676 1166.1846206642963 L 108 1146 L 99.91525323681412 1166.460617531618 L 116.75106214344676 1166.1846206642963" stroke-miterlimit="10"/></g><g transform="translate(-46,-1078) scale(1,1)"><rect fill="#C0C0C0" stroke="none" x="223" y="1095" width="103.25" height="113" opacity="0.2"/></g><g transform="translate(-46,-1078) scale(1,1)"><rect fill="#ffffff" stroke="none" x="216" y="1088" width="103.25" height="113"/></g><g transform="translate(-46,-1078) scale(1,1)"><path fill="none" stroke="#000000" d="M 216 1088 L 319.25 1088 L 319.25 1201 L 216 1201 L 216 1088 Z Z" stroke-miterlimit="10"/></g><g transform="translate(-46,-1078) scale(1,1)"><path fill="none" stroke="#000000" d="M 216 1126 L 319.25 1126" stroke-miterlimit="10"/></g><g transform="translate(-46,-1078) scale(1,1)"><path fill="none" stroke="#000000" d="M 216 1149 L 319.25 1149" stroke-miterlimit="10"/></g><g transform="translate(-46,-1078) scale(1,1)"><g><path fill="none" stroke="none"/><text fill="#000000" stroke="none" font-family="Arial" font-size="13px" font-style="normal" font-weight="normal" text-decoration="none" x="235.464599609375" y="1105.5">«interface»</text></g></g><g transform="translate(-46,-1078) scale(1,1)"><g><path fill="none" stroke="none"/><text fill="#000000" stroke="none" font-family="Arial" font-size="13px" font-style="normal" font-weight="bold" text-decoration="none" x="241.625" y="1120.5">纸牌显示</text></g></g><g transform="translate(-46,-1078) scale(1,1)"><g><path fill="none" stroke="none"/><text fill="#000000" stroke="none" font-family="Arial" font-size="13px" font-style="normal" font-weight="normal" text-decoration="none" x="221" y="1143.5">-玩家类型</text></g></g><g transform="translate(-46,-1078) scale(1,1)"><g><path fill="none" stroke="none"/><text fill="#000000" stroke="none" font-family="Arial" font-size="13px" font-style="normal" font-weight="normal" text-decoration="none" x="221" y="1166.5">+获取玩家类型()</text></g></g><g transform="translate(-46,-1078) scale(1,1)"><g><path fill="none" stroke="none"/><text fill="#000000" stroke="none" font-family="Arial" font-size="13px" font-style="normal" font-weight="normal" text-decoration="none" x="221" y="1181.5">+闲家纸牌显示()</text></g></g><g transform="translate(-46,-1078) scale(1,1)"><g><path fill="none" stroke="none"/><text fill="#000000" stroke="none" font-family="Arial" font-size="13px" font-style="normal" font-weight="normal" text-decoration="none" x="221" y="1196.5">+庄家纸牌显示()</text></g></g><g transform="translate(-46,-1078) scale(1,1)"><rect fill="#C0C0C0" stroke="none" x="223" y="1279" width="104.7099609375" height="115" opacity="0.2"/></g><g transform="translate(-46,-1078) scale(1,1)"><rect fill="#ffffff" stroke="none" x="216" y="1272" width="104.7099609375" height="115"/></g><g transform="translate(-46,-1078) scale(1,1)"><path fill="none" stroke="#000000" d="M 216 1272 L 320.7099609375 1272 L 320.7099609375 1387 L 216 1387 L 216 1272 Z Z" stroke-miterlimit="10"/></g><g transform="translate(-46,-1078) scale(1,1)"><path fill="none" stroke="#000000" d="M 216 1297 L 320.7099609375 1297" stroke-miterlimit="10"/></g><g transform="translate(-46,-1078) scale(1,1)"><path fill="none" stroke="#000000" d="M 216 1320 L 320.7099609375 1320" stroke-miterlimit="10"/></g><g transform="translate(-46,-1078) scale(1,1)"><g><path fill="none" stroke="none"/><text fill="#000000" stroke="none" font-family="Arial" font-size="13px" font-style="normal" font-weight="bold" text-decoration="none" x="242.35498046875" y="1291.5">点数计算</text></g></g><g transform="translate(-46,-1078) scale(1,1)"><g><path fill="none" stroke="none"/><text fill="#000000" stroke="none" font-family="Arial" font-size="13px" font-style="normal" font-weight="normal" text-decoration="none" x="221" y="1314.5">-比较结果状态</text></g></g><g transform="translate(-46,-1078) scale(1,1)"><g><path fill="none" stroke="none"/><text fill="#000000" stroke="none" font-family="Arial" font-size="13px" font-style="normal" font-weight="normal" text-decoration="none" x="221" y="1337.5">+获取纸牌内容()</text></g></g><g transform="translate(-46,-1078) scale(1,1)"><g><path fill="none" stroke="none"/><text fill="#000000" stroke="none" font-family="Arial" font-size="13px" font-style="normal" font-weight="normal" text-decoration="none" x="221" y="1352.5">+玩家比较大小()</text></g></g><g transform="translate(-46,-1078) scale(1,1)"><g><path fill="none" stroke="none"/><text fill="#000000" stroke="none" font-family="Arial" font-size="13px" font-style="normal" font-weight="normal" text-decoration="none" x="221" y="1367.5">+与21比较大小()</text></g></g><g transform="translate(-46,-1078) scale(1,1)"><g><path fill="none" stroke="none"/><text fill="#000000" stroke="none" font-family="Arial" font-size="13px" font-style="normal" font-weight="normal" text-decoration="none" x="221" y="1382.5">+获取比较结果()</text></g></g><g transform="translate(-46,-1078) scale(1,1)"><rect fill="#C0C0C0" stroke="none" x="647" y="1095" width="103.25" height="145" opacity="0.2"/></g><g transform="translate(-46,-1078) scale(1,1)"><rect fill="#ffffff" stroke="none" x="640" y="1088" width="103.25" height="145"/></g><g transform="translate(-46,-1078) scale(1,1)"><path fill="none" stroke="#000000" d="M 640 1088 L 743.25 1088 L 743.25 1233 L 640 1233 L 640 1088 Z Z" stroke-miterlimit="10"/></g><g transform="translate(-46,-1078) scale(1,1)"><path fill="none" stroke="#000000" d="M 640 1113 L 743.25 1113" stroke-miterlimit="10"/></g><g transform="translate(-46,-1078) scale(1,1)"><path fill="none" stroke="#000000" d="M 640 1166 L 743.25 1166" stroke-miterlimit="10"/></g><g transform="translate(-46,-1078) scale(1,1)"><g><path fill="none" stroke="none"/><text fill="#000000" stroke="none" font-family="Arial" font-size="13px" font-style="normal" font-weight="bold" text-decoration="none" x="672.125" y="1107.5">服务器</text></g></g><g transform="translate(-46,-1078) scale(1,1)"><g><path fill="none" stroke="none"/><text fill="#000000" stroke="none" font-family="Arial" font-size="13px" font-style="normal" font-weight="normal" text-decoration="none" x="645" y="1130.5">-出牌记录</text></g></g><g transform="translate(-46,-1078) scale(1,1)"><g><path fill="none" stroke="none"/><text fill="#000000" stroke="none" font-family="Arial" font-size="13px" font-style="normal" font-weight="normal" text-decoration="none" x="645" y="1145.5">-玩家状态记录</text></g></g><g transform="translate(-46,-1078) scale(1,1)"><g><path fill="none" stroke="none"/><text fill="#000000" stroke="none" font-family="Arial" font-size="13px" font-style="normal" font-weight="normal" text-decoration="none" x="645" y="1160.5">-赔率</text></g></g><g transform="translate(-46,-1078) scale(1,1)"><g><path fill="none" stroke="none"/><text fill="#000000" stroke="none" font-family="Arial" font-size="13px" font-style="normal" font-weight="normal" text-decoration="none" x="645" y="1183.5">+出牌()</text></g></g><g transform="translate(-46,-1078) scale(1,1)"><g><path fill="none" stroke="none"/><text fill="#000000" stroke="none" font-family="Arial" font-size="13px" font-style="normal" font-weight="normal" text-decoration="none" x="645" y="1198.5">+获取玩家赌注()</text></g></g><g transform="translate(-46,-1078) scale(1,1)"><g><path fill="none" stroke="none"/><text fill="#000000" stroke="none" font-family="Arial" font-size="13px" font-style="normal" font-weight="normal" text-decoration="none" x="645" y="1213.5">+玩家余额结算()</text></g></g><g transform="translate(-46,-1078) scale(1,1)"><g><path fill="none" stroke="none"/><text fill="#000000" stroke="none" font-family="Arial" font-size="13px" font-style="normal" font-weight="normal" text-decoration="none" x="645" y="1228.5">+显示提示消息()</text></g></g><g transform="translate(-46,-1078) scale(1,1)"><rect fill="#C0C0C0" stroke="none" x="391" y="1311" width="89.57080078125" height="87" opacity="0.2"/></g><g transform="translate(-46,-1078) scale(1,1)"><rect fill="#ffffff" stroke="none" x="384" y="1304" width="89.57080078125" height="87"/></g><g transform="translate(-46,-1078) scale(1,1)"><path fill="none" stroke="#000000" d="M 384 1304 L 473.57080078125 1304 L 473.57080078125 1391 L 384 1391 L 384 1304 Z Z" stroke-miterlimit="10"/></g><g transform="translate(-46,-1078) scale(1,1)"><path fill="none" stroke="#000000" d="M 384 1329 L 473.57080078125 1329" stroke-miterlimit="10"/></g><g transform="translate(-46,-1078) scale(1,1)"><path fill="none" stroke="#000000" d="M 384 1339 L 473.57080078125 1339" stroke-miterlimit="10"/></g><g transform="translate(-46,-1078) scale(1,1)"><g><path fill="none" stroke="none"/><text fill="#000000" stroke="none" font-family="Arial" font-size="13px" font-style="normal" font-weight="bold" text-decoration="none" x="409.285400390625" y="1323.5">界面UI</text></g></g><g transform="translate(-46,-1078) scale(1,1)"><g><path fill="none" stroke="none"/><text fill="#000000" stroke="none" font-family="Arial" font-size="13px" font-style="normal" font-weight="normal" text-decoration="none" x="389" y="1356.5">+接收信息()</text></g></g><g transform="translate(-46,-1078) scale(1,1)"><g><path fill="none" stroke="none"/><text fill="#000000" stroke="none" font-family="Arial" font-size="13px" font-style="normal" font-weight="normal" text-decoration="none" x="389" y="1371.5">+显示背景()</text></g></g><g transform="translate(-46,-1078) scale(1,1)"><g><path fill="none" stroke="none"/><text fill="#000000" stroke="none" font-family="Arial" font-size="13px" font-style="normal" font-weight="normal" text-decoration="none" x="389" y="1386.5">+显示按钮()</text></g></g><g transform="translate(-46,-1078) scale(1,1)"><rect fill="#C0C0C0" stroke="none" x="367" y="1095" width="129.25" height="145" opacity="0.2"/></g><g transform="translate(-46,-1078) scale(1,1)"><rect fill="#ffffff" stroke="none" x="360" y="1088" width="129.25" height="145"/></g><g transform="translate(-46,-1078) scale(1,1)"><path fill="none" stroke="#000000" d="M 360 1088 L 489.25 1088 L 489.25 1233 L 360 1233 L 360 1088 Z Z" stroke-miterlimit="10"/></g><g transform="translate(-46,-1078) scale(1,1)"><path fill="none" stroke="#000000" d="M 360 1113 L 489.25 1113" stroke-miterlimit="10"/></g><g transform="translate(-46,-1078) scale(1,1)"><path fill="none" stroke="#000000" d="M 360 1166 L 489.25 1166" stroke-miterlimit="10"/></g><g transform="translate(-46,-1078) scale(1,1)"><g><path fill="none" stroke="none"/><text fill="#000000" stroke="none" font-family="Arial" font-size="13px" font-style="normal" font-weight="bold" text-decoration="none" x="398.625" y="1107.5">游戏系统</text></g></g><g transform="translate(-46,-1078) scale(1,1)"><g><path fill="none" stroke="none"/><text fill="#000000" stroke="none" font-family="Arial" font-size="13px" font-style="normal" font-weight="normal" text-decoration="none" x="365" y="1130.5">-终端信息</text></g></g><g transform="translate(-46,-1078) scale(1,1)"><g><path fill="none" stroke="none"/><text fill="#000000" stroke="none" font-family="Arial" font-size="13px" font-style="normal" font-weight="normal" text-decoration="none" x="365" y="1145.5">-时间戳</text></g></g><g transform="translate(-46,-1078) scale(1,1)"><g><path fill="none" stroke="none"/><text fill="#000000" stroke="none" font-family="Arial" font-size="13px" font-style="normal" font-weight="normal" text-decoration="none" x="365" y="1160.5">-本地日志</text></g></g><g transform="translate(-46,-1078) scale(1,1)"><g><path fill="none" stroke="none"/><text fill="#000000" stroke="none" font-family="Arial" font-size="13px" font-style="normal" font-weight="normal" text-decoration="none" x="365" y="1183.5">+控制执行对应操作()</text></g></g><g transform="translate(-46,-1078) scale(1,1)"><g><path fill="none" stroke="none"/><text fill="#000000" stroke="none" font-family="Arial" font-size="13px" font-style="normal" font-weight="normal" text-decoration="none" x="365" y="1198.5">+通信发送()</text></g></g><g transform="translate(-46,-1078) scale(1,1)"><g><path fill="none" stroke="none"/><text fill="#000000" stroke="none" font-family="Arial" font-size="13px" font-style="normal" font-weight="normal" text-decoration="none" x="365" y="1213.5">+通信接受()</text></g></g><g transform="translate(-46,-1078) scale(1,1)"><g><path fill="none" stroke="none"/><text fill="#000000" stroke="none" font-family="Arial" font-size="13px" font-style="normal" font-weight="normal" text-decoration="none" x="365" y="1228.5">+记录日志()</text></g></g><g transform="translate(-46,-1078) scale(1,1)"><rect fill="#C0C0C0" stroke="none" x="519" y="1095" width="103.25" height="87" opacity="0.2"/></g><g transform="translate(-46,-1078) scale(1,1)"><rect fill="#ffffff" stroke="none" x="512" y="1088" width="103.25" height="87"/></g><g transform="translate(-46,-1078) scale(1,1)"><path fill="none" stroke="#000000" d="M 512 1088 L 615.25 1088 L 615.25 1175 L 512 1175 L 512 1088 Z Z" stroke-miterlimit="10"/></g><g transform="translate(-46,-1078) scale(1,1)"><path fill="none" stroke="#000000" d="M 512 1113 L 615.25 1113" stroke-miterlimit="10"/></g><g transform="translate(-46,-1078) scale(1,1)"><path fill="none" stroke="#000000" d="M 512 1123 L 615.25 1123" stroke-miterlimit="10"/></g><g transform="translate(-46,-1078) scale(1,1)"><g><path fill="none" stroke="none"/><text fill="#000000" stroke="none" font-family="Arial" font-size="13px" font-style="normal" font-weight="bold" text-decoration="none" x="550.625" y="1107.5">出牌</text></g></g><g transform="translate(-46,-1078) scale(1,1)"><g><path fill="none" stroke="none"/><text fill="#000000" stroke="none" font-family="Arial" font-size="13px" font-style="normal" font-weight="normal" text-decoration="none" x="517" y="1140.5">+随机抽取纸牌()</text></g></g><g transform="translate(-46,-1078) scale(1,1)"><g><path fill="none" stroke="none"/><text fill="#000000" stroke="none" font-family="Arial" font-size="13px" font-style="normal" font-weight="normal" text-decoration="none" x="517" y="1155.5">+获取当前玩家()</text></g></g><g transform="translate(-46,-1078) scale(1,1)"><g><path fill="none" stroke="none"/><text fill="#000000" stroke="none" font-family="Arial" font-size="13px" font-style="normal" font-weight="normal" text-decoration="none" x="517" y="1170.5">+修改拥有纸牌()</text></g></g><g transform="translate(-46,-1078) scale(1,1)"><path fill="none" stroke="#000000" d="M 490 1146 L 511 1142" stroke-miterlimit="10"/></g><g transform="translate(-46,-1078) scale(1,1)"><path fill="none" stroke="#000000" d="M 501.80446428987227 1148.0367311521854 L 511 1142 L 500.22916080881527 1139.766387876636" stroke-miterlimit="10"/></g><g transform="translate(-46,-1078) scale(1,1)"><path fill="none" stroke="#000000" d="M 639 1148 L 616 1143" stroke-miterlimit="10"/></g><g transform="translate(-46,-1078) scale(1,1)"><path fill="none" stroke="#000000" d="M 626.8249520248186 1141.045412150765 L 616 1143 L 625.0364993053871 1149.2722946601493" stroke-miterlimit="10"/></g><g transform="translate(-46,-1078) scale(1,1)"><path fill="none" stroke="#000000" d="M 161 1125 L 215 1135" stroke-miterlimit="10" stroke-dasharray="3"/></g><g transform="translate(-46,-1078) scale(1,1)"><path fill="#FFFFFF" stroke="none" d="M 193.48143343214585 1139.57725822571 L 215 1135 L 196.5474653278148 1123.0206859890975"/></g><g transform="translate(-46,-1078) scale(1,1)"><path fill="none" stroke="#000000" d="M 193.48143343214585 1139.57725822571 L 215 1135 L 196.5474653278148 1123.0206859890975 L 193.48143343214585 1139.57725822571" stroke-miterlimit="10"/></g><g transform="translate(-46,-1078) scale(1,1)"><path fill="none" stroke="#000000" d="M 215 1318 L 164 1307" stroke-miterlimit="10" stroke-dasharray="3"/></g><g transform="translate(-46,-1078) scale(1,1)"><path fill="none" stroke="#000000" d="M 174.82175430438383 1305.0277845514372 L 164 1307 L 173.04670277060416 1313.2575689353248" stroke-miterlimit="10"/></g><g transform="translate(-46,-1078) scale(1,1)"><path fill="none" stroke="#000000" d="M 322 1271 L 359 1230" stroke-miterlimit="10" stroke-dasharray="3"/></g><g transform="translate(-46,-1078) scale(1,1)"><path fill="none" stroke="#000000" d="M 355.3164854200983 1240.3649274160339 L 359 1230 L 349.06625139956805 1234.724472324336" stroke-miterlimit="10"/></g><g transform="translate(-46,-1078) scale(1,1)"><path fill="none" stroke="#000000" d="M 427 1303 L 426 1234" stroke-miterlimit="10" stroke-dasharray="3"/></g><g transform="translate(-46,-1078) scale(1,1)"><path fill="none" stroke="#000000" d="M 430.3563454197064 1244.1006066443656 L 426 1234 L 421.9381939351365 1244.2226088397942" stroke-miterlimit="10"/></g></g></svg>