<?xml version="1.0" encoding="utf-8"?>
<svg version="1.1" xmlns:xlink="http://www.w3.org/1999/xlink" width="25px" height="178px" xmlns="http://www.w3.org/2000/svg">
  <defs>
    <mask fill="white" id="clip96">
      <path d="M 0 1.53170334160971  C 24.2444391714344 179.013910596738  24.9999926456133 177.994174507729  24.9999926456133 177.994174507729  C 24.9999926456133 177.994174507729  25 0  25 0  C 16.5859690113076 0  8.23678808465569 0.517521093066515  0 1.53170334160971  Z " fill-rule="evenodd" />
    </mask>
  </defs>
  <g transform="matrix(1 0 0 1 -684 -326 )">
    <path d="M 0 1.53170334160971  C 24.2444391714344 179.013910596738  24.9999926456133 177.994174507729  24.9999926456133 177.994174507729  C 24.9999926456133 177.994174507729  25 0  25 0  C 16.5859690113076 0  8.23678808465569 0.517521093066515  0 1.53170334160971  Z " fill-rule="nonzero" fill="#f6bd16" stroke="none" transform="matrix(1 0 0 1 684 326 )" />
    <path d="M 0 1.53170334160971  C 24.2444391714344 179.013910596738  24.9999926456133 177.994174507729  24.9999926456133 177.994174507729  C 24.9999926456133 177.994174507729  25 0  25 0  C 16.5859690113076 0  8.23678808465569 0.517521093066515  0 1.53170334160971  Z " stroke-width="2" stroke="#797979" fill="none" transform="matrix(1 0 0 1 684 326 )" mask="url(#clip96)" />
  </g>
</svg>