<?xml version="1.0" encoding="utf-8"?>
<svg version="1.1" xmlns:xlink="http://www.w3.org/1999/xlink" width="328px" height="293px" xmlns="http://www.w3.org/2000/svg">
  <defs>
    <mask fill="white" id="clip94">
      <path d="M 328 236.552064395701  C 328 236.552064395701  189.709875058678 114.059958844778  189.709875058678 114.059958844778  C 189.709875058678 114.059958844778  43.5384501545619 0  43.5384501545619 0  C -21.766970444276 74.4600569544311  -12.5957795626173 184.376840595124  64.2546679980005 248.284008470977  C 141.105115558618 312.19117634683  257.866717614416 306.997376043104  328 236.552064395701  Z " fill-rule="evenodd" />
    </mask>
  </defs>
  <g transform="matrix(1 0 0 1 -518 -391 )">
    <path d="M 328 236.552064395701  C 328 236.552064395701  189.709875058678 114.059958844778  189.709875058678 114.059958844778  C 189.709875058678 114.059958844778  43.5384501545619 0  43.5384501545619 0  C -21.766970444276 74.4600569544311  -12.5957795626173 184.376840595124  64.2546679980005 248.284008470977  C 141.105115558618 312.19117634683  257.866717614416 306.997376043104  328 236.552064395701  Z " fill-rule="nonzero" fill="#5ad8a6" stroke="none" transform="matrix(1 0 0 1 518 391 )" />
    <path d="M 328 236.552064395701  C 328 236.552064395701  189.709875058678 114.059958844778  189.709875058678 114.059958844778  C 189.709875058678 114.059958844778  43.5384501545619 0  43.5384501545619 0  C -21.766970444276 74.4600569544311  -12.5957795626173 184.376840595124  64.2546679980005 248.284008470977  C 141.105115558618 312.19117634683  257.866717614416 306.997376043104  328 236.552064395701  Z " stroke-width="2" stroke="#797979" fill="none" transform="matrix(1 0 0 1 518 391 )" mask="url(#clip94)" />
  </g>
</svg>