<?xml version="1.0" encoding="utf-8"?>
<svg version="1.1" xmlns:xlink="http://www.w3.org/1999/xlink" width="258px" height="208px" xmlns="http://www.w3.org/2000/svg">
  <defs>
    <linearGradient gradientUnits="userSpaceOnUse" x1="6.21111111110964" y1="208" x2="262.3" y2="208" id="LinearGradient36">
      <stop id="Stop37" stop-color="#0000ff" stop-opacity="0.996078431372549" offset="0" />
      <stop id="Stop38" stop-color="#7861f7" offset="0.97" />
      <stop id="Stop39" stop-color="#d7d7d7" offset="1" />
    </linearGradient>
  </defs>
  <g transform="matrix(1 0 0 1 -1149 -161 )">
    <path d="M 16.6283649834184 207.321200859695  L 32.4547213066317 197.739647223627  C 23.7288197097214 180.62219637958  18.7636363636363 160.947945764426  18.7636363636363 140.019512195122  C 18.7636363636363 73.8962102483358  68.3281566439594 20.2926829268293  129.469090909091 20.2926829268293  C 190.610025174223 20.2926829268293  240.174545454545 73.8962102483358  240.174545454545 140.019512195122  C 240.174545454545 161.119891595584  235.127440095089 180.945394910229  226.267625192745 198.16103363104  L 241.343659808199 207.374488853171  C 251.947294493586 187.186778410691  258 163.857491514003  258 139.00487804878  C 258 62.2346037546301  200.2447327242 0  129 0  C 57.7552672758001 0  0 62.2346037546301  0 139.00487804878  C 0 163.8356275455  6.0420605131473 187.145729573314  16.6283649834184 207.321200859695  Z " fill-rule="nonzero" fill="url(#LinearGradient36)" stroke="none" transform="matrix(1 0 0 1 1149 161 )" />
  </g>
</svg>