<?xml version="1.0" encoding="utf-8"?>
<svg version="1.1" xmlns:xlink="http://www.w3.org/1999/xlink" width="143px" height="49px" xmlns="http://www.w3.org/2000/svg">
  <defs>
    <mask fill="white" id="clip44">
      <path d="M 1.28828828828829 40.3599033816425  L 1.28828828828829 8.6400966183575  C 1.24534534534421 3.0625  8.45975975975851 0.748611111112099  15.3191508340022 0.710144927536235  L 141.711711711712 1.15694444444542  C 141.754654654656 0.816666666666664  141.869452620939 1.225  141.711711711712 8.6400966183575  L 141.711711711712 40.3599033816425  C 141.852020337169 40.3599033816425  141.692726056124 49.1434098228665  141.711711711712 48.9319444444454  L 15.3191508340022 48.9319444444454  C 7.46186780840245 48.9319444444454  1.28828828828829 44.8006763285024  1.28828828828829 40.3599033816425  Z " fill-rule="evenodd" />
    </mask>
  </defs>
  <g transform="matrix(1 0 0 1 -1133 -90 )">
    <path d="M 1.28828828828829 40.3599033816425  L 1.28828828828829 8.6400966183575  C 1.24534534534421 3.0625  8.45975975975851 0.748611111112099  15.3191508340022 0.710144927536235  L 141.711711711712 1.15694444444542  C 141.754654654656 0.816666666666664  141.869452620939 1.225  141.711711711712 8.6400966183575  L 141.711711711712 40.3599033816425  C 141.852020337169 40.3599033816425  141.692726056124 49.1434098228665  141.711711711712 48.9319444444454  L 15.3191508340022 48.9319444444454  C 7.46186780840245 48.9319444444454  1.28828828828829 44.8006763285024  1.28828828828829 40.3599033816425  Z " fill-rule="nonzero" fill="#ffffff" stroke="none" transform="matrix(1 0 0 1 1133 90 )" />
    <path d="M 1.28828828828829 40.3599033816425  L 1.28828828828829 8.6400966183575  C 1.24534534534421 3.0625  8.45975975975851 0.748611111112099  15.3191508340022 0.710144927536235  L 141.711711711712 1.15694444444542  C 141.754654654656 0.816666666666664  141.869452620939 1.225  141.711711711712 8.6400966183575  L 141.711711711712 40.3599033816425  C 141.852020337169 40.3599033816425  141.692726056124 49.1434098228665  141.711711711712 48.9319444444454  L 15.3191508340022 48.9319444444454  C 7.46186780840245 48.9319444444454  1.28828828828829 44.8006763285024  1.28828828828829 40.3599033816425  Z " stroke-width="4" stroke="#e6e7e8" fill="none" transform="matrix(1 0 0 1 1133 90 )" mask="url(#clip44)" />
  </g>
</svg>