<?xml version="1.0" encoding="utf-8"?>
<svg version="1.1" xmlns:xlink="http://www.w3.org/1999/xlink" width="148px" height="49px" xmlns="http://www.w3.org/2000/svg">
  <defs>
    <mask fill="white" id="clip50">
      <path d="M 1.33333333333333 40.3599033816425  L 1.33333333333333 8.6400966183575  C 1.28888888888772 3.0625  8.75555555555426 0.748611111112099  15.8547854785478 0.710144927536235  L 146.666666666667 1.15694444444542  C 146.711111111112 0.816666666666664  146.8299229923 1.225  146.666666666667 8.6400966183575  L 146.666666666667 40.3599033816425  C 146.811881188119 40.3599033816425  146.647017176968 49.1434098228665  146.666666666667 48.9319444444454  L 15.8547854785478 48.9319444444454  C 7.72277227722771 48.9319444444454  1.33333333333333 44.8006763285024  1.33333333333333 40.3599033816425  Z " fill-rule="evenodd" />
    </mask>
  </defs>
  <g transform="matrix(1 0 0 1 -451 -91 )">
    <path d="M 1.33333333333333 40.3599033816425  L 1.33333333333333 8.6400966183575  C 1.28888888888772 3.0625  8.75555555555426 0.748611111112099  15.8547854785478 0.710144927536235  L 146.666666666667 1.15694444444542  C 146.711111111112 0.816666666666664  146.8299229923 1.225  146.666666666667 8.6400966183575  L 146.666666666667 40.3599033816425  C 146.811881188119 40.3599033816425  146.647017176968 49.1434098228665  146.666666666667 48.9319444444454  L 15.8547854785478 48.9319444444454  C 7.72277227722771 48.9319444444454  1.33333333333333 44.8006763285024  1.33333333333333 40.3599033816425  Z " fill-rule="nonzero" fill="#ffffff" stroke="none" transform="matrix(1 0 0 1 451 91 )" />
    <path d="M 1.33333333333333 40.3599033816425  L 1.33333333333333 8.6400966183575  C 1.28888888888772 3.0625  8.75555555555426 0.748611111112099  15.8547854785478 0.710144927536235  L 146.666666666667 1.15694444444542  C 146.711111111112 0.816666666666664  146.8299229923 1.225  146.666666666667 8.6400966183575  L 146.666666666667 40.3599033816425  C 146.811881188119 40.3599033816425  146.647017176968 49.1434098228665  146.666666666667 48.9319444444454  L 15.8547854785478 48.9319444444454  C 7.72277227722771 48.9319444444454  1.33333333333333 44.8006763285024  1.33333333333333 40.3599033816425  Z " stroke-width="4" stroke="#e6e7e8" fill="none" transform="matrix(1 0 0 1 451 91 )" mask="url(#clip50)" />
  </g>
</svg>