<?xml version="1.0" encoding="utf-8"?>
<svg version="1.1" xmlns:xlink="http://www.w3.org/1999/xlink" width="214px" height="161px" xmlns="http://www.w3.org/2000/svg">
  <defs>
    <linearGradient gradientUnits="userSpaceOnUse" x1="5.15185185185063" y1="161" x2="35.1784296296286" y2="161" id="LinearGradient56">
      <stop id="Stop57" stop-color="#0000ff" stop-opacity="0.996078431372549" offset="0" />
      <stop id="Stop58" stop-color="#7861f7" offset="1" />
      <stop id="Stop59" stop-color="#d7d7d7" offset="1" />
    </linearGradient>
  </defs>
  <g transform="matrix(1 0 0 1 -270 -191 )">
    <path d="M 13.7925197924478 160.474583357745  L 26.9198075954232 153.058092322135  C 19.6820442553503 139.808527005348  15.5636363636363 124.579900327272  15.5636363636363 108.380487804878  C 15.5636363636363 57.1985088941445  56.6752927201834 15.7073170731707  107.389090909091 15.7073170731707  C 158.102889097999 15.7073170731707  199.214545454545 57.1985088941445  199.214545454545 108.380487804878  C 199.214545454545 124.71299301389  195.028186745539 140.058695098783  187.679348028091 153.384261608642  L 200.18427596494 160.515830314233  C 208.979538843518 144.889765981352  214 126.83200064305  214 107.59512195122  C 214 48.1719769446897  166.0944682286 0  107 0  C 47.9055317714001 0  0 48.1719769446897  0 107.59512195122  C 0 126.815077090508  5.01163158842451 144.857992602421  13.7925197924478 160.474583357745  Z " fill-rule="nonzero" fill="url(#LinearGradient56)" stroke="none" transform="matrix(1 0 0 1 270 191 )" />
  </g>
</svg>