<?xml version="1.0" encoding="utf-8"?>
<svg version="1.1" xmlns:xlink="http://www.w3.org/1999/xlink" width="126px" height="48px" xmlns="http://www.w3.org/2000/svg">
  <defs>
    <mask fill="white" id="clip60">
      <path d="M 1.13513513513514 39.536231884058  L 1.13513513513514 8.46376811594205  C 1.0972972972963 3  7.45405405405295 0.733333333334301  13.4979930425474 0.695652173913047  L 124.864864864865 1.13333333333429  C 124.902702702704 0.799999999999997  125.00385335831 1.2  124.864864864865 8.46376811594205  L 124.864864864865 39.536231884058  C 124.988493443939 39.536231884058  124.848136245256 48.1404830917876  124.864864864865 47.9333333333343  L 13.4979930425474 47.9333333333343  C 6.57479261439656 47.9333333333343  1.13513513513514 43.8863768115942  1.13513513513514 39.536231884058  Z " fill-rule="evenodd" />
    </mask>
  </defs>
  <g transform="matrix(1 0 0 1 -719 -755 )">
    <path d="M 1.13513513513514 39.536231884058  L 1.13513513513514 8.46376811594205  C 1.0972972972963 3  7.45405405405295 0.733333333334301  13.4979930425474 0.695652173913047  L 124.864864864865 1.13333333333429  C 124.902702702704 0.799999999999997  125.00385335831 1.2  124.864864864865 8.46376811594205  L 124.864864864865 39.536231884058  C 124.988493443939 39.536231884058  124.848136245256 48.1404830917876  124.864864864865 47.9333333333343  L 13.4979930425474 47.9333333333343  C 6.57479261439656 47.9333333333343  1.13513513513514 43.8863768115942  1.13513513513514 39.536231884058  Z " fill-rule="nonzero" fill="#235bdb" stroke="none" transform="matrix(1 0 0 1 719 755 )" />
    <path d="M 1.13513513513514 39.536231884058  L 1.13513513513514 8.46376811594205  C 1.0972972972963 3  7.45405405405295 0.733333333334301  13.4979930425474 0.695652173913047  L 124.864864864865 1.13333333333429  C 124.902702702704 0.799999999999997  125.00385335831 1.2  124.864864864865 8.46376811594205  L 124.864864864865 39.536231884058  C 124.988493443939 39.536231884058  124.848136245256 48.1404830917876  124.864864864865 47.9333333333343  L 13.4979930425474 47.9333333333343  C 6.57479261439656 47.9333333333343  1.13513513513514 43.8863768115942  1.13513513513514 39.536231884058  Z " stroke-width="4" stroke="#e6e7e8" fill="none" transform="matrix(1 0 0 1 719 755 )" mask="url(#clip60)" />
  </g>
</svg>