<svg version="1.1" xmlns="http://www.w3.org/2000/svg" xmlns:xlink="http://www.w3.org/1999/xlink" width="453.20166015625" height="257"><defs/><g><text fill="#eeeeee" stroke="none" font-family="Arial" font-size="24px" font-style="normal" font-weight="normal" text-decoration="none" x="0" y="0">UNREGISTERED</text><text fill="#eeeeee" stroke="none" font-family="Arial" font-size="24px" font-style="normal" font-weight="normal" text-decoration="none" x="0" y="30">UNREGISTERED</text><text fill="#eeeeee" stroke="none" font-family="Arial" font-size="24px" font-style="normal" font-weight="normal" text-decoration="none" x="0" y="60">UNREGISTERED</text><text fill="#eeeeee" stroke="none" font-family="Arial" font-size="24px" font-style="normal" font-weight="normal" text-decoration="none" x="0" y="90">UNREGISTERED</text><text fill="#eeeeee" stroke="none" font-family="Arial" font-size="24px" font-style="normal" font-weight="normal" text-decoration="none" x="0" y="120">UNREGISTERED</text><text fill="#eeeeee" stroke="none" font-family="Arial" font-size="24px" font-style="normal" font-weight="normal" text-decoration="none" x="0" y="150">UNREGISTERED</text><text fill="#eeeeee" stroke="none" font-family="Arial" font-size="24px" font-style="normal" font-weight="normal" text-decoration="none" x="0" y="180">UNREGISTERED</text><text fill="#eeeeee" stroke="none" font-family="Arial" font-size="24px" font-style="normal" font-weight="normal" text-decoration="none" x="0" y="210">UNREGISTERED</text><text fill="#eeeeee" stroke="none" font-family="Arial" font-size="24px" font-style="normal" font-weight="normal" text-decoration="none" x="0" y="240">UNREGISTERED</text><text fill="#eeeeee" stroke="none" font-family="Arial" font-size="24px" font-style="normal" font-weight="normal" text-decoration="none" x="200" y="0">UNREGISTERED</text><text fill="#eeeeee" stroke="none" font-family="Arial" font-size="24px" font-style="normal" font-weight="normal" text-decoration="none" x="200" y="30">UNREGISTERED</text><text fill="#eeeeee" stroke="none" font-family="Arial" font-size="24px" font-style="normal" font-weight="normal" text-decoration="none" x="200" y="60">UNREGISTERED</text><text fill="#eeeeee" stroke="none" font-family="Arial" font-size="24px" font-style="normal" font-weight="normal" text-decoration="none" x="200" y="90">UNREGISTERED</text><text fill="#eeeeee" stroke="none" font-family="Arial" font-size="24px" font-style="normal" font-weight="normal" text-decoration="none" x="200" y="120">UNREGISTERED</text><text fill="#eeeeee" stroke="none" font-family="Arial" font-size="24px" font-style="normal" font-weight="normal" text-decoration="none" x="200" y="150">UNREGISTERED</text><text fill="#eeeeee" stroke="none" font-family="Arial" font-size="24px" font-style="normal" font-weight="normal" text-decoration="none" x="200" y="180">UNREGISTERED</text><text fill="#eeeeee" stroke="none" font-family="Arial" font-size="24px" font-style="normal" font-weight="normal" text-decoration="none" x="200" y="210">UNREGISTERED</text><text fill="#eeeeee" stroke="none" font-family="Arial" font-size="24px" font-style="normal" font-weight="normal" text-decoration="none" x="200" y="240">UNREGISTERED</text><text fill="#eeeeee" stroke="none" font-family="Arial" font-size="24px" font-style="normal" font-weight="normal" text-decoration="none" x="400" y="0">UNREGISTERED</text><text fill="#eeeeee" stroke="none" font-family="Arial" font-size="24px" font-style="normal" font-weight="normal" text-decoration="none" x="400" y="30">UNREGISTERED</text><text fill="#eeeeee" stroke="none" font-family="Arial" font-size="24px" font-style="normal" font-weight="normal" text-decoration="none" x="400" y="60">UNREGISTERED</text><text fill="#eeeeee" stroke="none" font-family="Arial" font-size="24px" font-style="normal" font-weight="normal" text-decoration="none" x="400" y="90">UNREGISTERED</text><text fill="#eeeeee" stroke="none" font-family="Arial" font-size="24px" font-style="normal" font-weight="normal" text-decoration="none" x="400" y="120">UNREGISTERED</text><text fill="#eeeeee" stroke="none" font-family="Arial" font-size="24px" font-style="normal" font-weight="normal" text-decoration="none" x="400" y="150">UNREGISTERED</text><text fill="#eeeeee" stroke="none" font-family="Arial" font-size="24px" font-style="normal" font-weight="normal" text-decoration="none" x="400" y="180">UNREGISTERED</text><text fill="#eeeeee" stroke="none" font-family="Arial" font-size="24px" font-style="normal" font-weight="normal" text-decoration="none" x="400" y="210">UNREGISTERED</text><text fill="#eeeeee" stroke="none" font-family="Arial" font-size="24px" font-style="normal" font-weight="normal" text-decoration="none" x="400" y="240">UNREGISTERED</text><g transform="translate(-126,-110) scale(1,1)"><rect fill="#C0C0C0" stroke="none" x="431" y="159" width="145.20166015625" height="162" opacity="0.2"/></g><g transform="translate(-126,-110) scale(1,1)"><rect fill="#ffffff" stroke="none" x="424" y="152" width="145.20166015625" height="162"/></g><g transform="translate(-126,-110) scale(1,1)"><path fill="none" stroke="#000000" d="M 424 152 L 569.20166015625 152 L 569.20166015625 314 L 424 314 L 424 152 Z Z" stroke-miterlimit="10"/></g><g transform="translate(-126,-110) scale(1,1)"><path fill="none" stroke="#000000" d="M 424 177 L 569.20166015625 177" stroke-miterlimit="10"/></g><g transform="translate(-126,-110) scale(1,1)"><path fill="none" stroke="#000000" d="M 424 187 L 569.20166015625 187" stroke-miterlimit="10"/></g><g transform="translate(-126,-110) scale(1,1)"><g><path fill="none" stroke="none"/><text fill="#000000" stroke="none" font-family="Arial" font-size="13px" font-style="normal" font-weight="bold" text-decoration="none" x="476.005859375" y="171.5">Banker</text></g></g><g transform="translate(-126,-110) scale(1,1)"><g><path fill="none" stroke="none"/><text fill="#000000" stroke="none" font-family="Arial" font-size="13px" font-style="normal" font-weight="normal" text-decoration="none" x="429" y="204.5">«constructor»+Banker()</text></g></g><g transform="translate(-126,-110) scale(1,1)"><g><path fill="none" stroke="none"/><text fill="#000000" stroke="none" font-family="Arial" font-size="13px" font-style="normal" font-weight="normal" text-decoration="none" x="429" y="219.5">+Black(): void</text></g></g><g transform="translate(-126,-110) scale(1,1)"><g><path fill="none" stroke="none"/><text fill="#000000" stroke="none" font-family="Arial" font-size="13px" font-style="normal" font-weight="normal" text-decoration="none" x="429" y="234.5">+getType(): void</text></g></g><g transform="translate(-126,-110) scale(1,1)"><g><path fill="none" stroke="none"/><text fill="#000000" stroke="none" font-family="Arial" font-size="13px" font-style="normal" font-weight="normal" text-decoration="none" x="429" y="249.5">+bankerShow(): void</text></g></g><g transform="translate(-126,-110) scale(1,1)"><g><path fill="none" stroke="none"/><text fill="#000000" stroke="none" font-family="Arial" font-size="13px" font-style="normal" font-weight="normal" text-decoration="none" x="429" y="264.5">+playerShow(): void</text></g></g><g transform="translate(-126,-110) scale(1,1)"><g><path fill="none" stroke="none"/><text fill="#000000" stroke="none" font-family="Arial" font-size="13px" font-style="normal" font-weight="normal" text-decoration="none" x="429" y="279.5">+getType(): void</text></g></g><g transform="translate(-126,-110) scale(1,1)"><g><path fill="none" stroke="none"/><text fill="#000000" stroke="none" font-family="Arial" font-size="13px" font-style="normal" font-weight="normal" text-decoration="none" x="429" y="294.5">+bankerShow(): void</text></g></g><g transform="translate(-126,-110) scale(1,1)"><g><path fill="none" stroke="none"/><text fill="#000000" stroke="none" font-family="Arial" font-size="13px" font-style="normal" font-weight="normal" text-decoration="none" x="429" y="309.5">+playerShow(): void</text></g></g><g transform="translate(-126,-110) scale(1,1)"><rect fill="#C0C0C0" stroke="none" x="143" y="127" width="150.2607421875" height="102" opacity="0.2"/></g><g transform="translate(-126,-110) scale(1,1)"><rect fill="#ffffff" stroke="none" x="136" y="120" width="150.2607421875" height="102"/></g><g transform="translate(-126,-110) scale(1,1)"><path fill="none" stroke="#000000" d="M 136 120 L 286.2607421875 120 L 286.2607421875 222 L 136 222 L 136 120 Z Z" stroke-miterlimit="10"/></g><g transform="translate(-126,-110) scale(1,1)"><path fill="none" stroke="#000000" d="M 136 145 L 286.2607421875 145" stroke-miterlimit="10"/></g><g transform="translate(-126,-110) scale(1,1)"><path fill="none" stroke="#000000" d="M 136 155 L 286.2607421875 155" stroke-miterlimit="10"/></g><g transform="translate(-126,-110) scale(1,1)"><g><path fill="none" stroke="none"/><text fill="#000000" stroke="none" font-family="Arial" font-size="13px" font-style="normal" font-weight="bold" text-decoration="none" x="188.005859375" y="139.5">outCard</text></g></g><g transform="translate(-126,-110) scale(1,1)"><g><path fill="none" stroke="none"/><text fill="#000000" stroke="none" font-family="Arial" font-size="13px" font-style="normal" font-weight="normal" text-decoration="none" x="141" y="172.5">«constructor»+outCard()</text></g></g><g transform="translate(-126,-110) scale(1,1)"><g><path fill="none" stroke="none"/><text fill="#000000" stroke="none" font-family="Arial" font-size="13px" font-style="normal" font-weight="normal" text-decoration="none" x="141" y="187.5">+randomGet(): void</text></g></g><g transform="translate(-126,-110) scale(1,1)"><g><path fill="none" stroke="none"/><text fill="#000000" stroke="none" font-family="Arial" font-size="13px" font-style="normal" font-weight="normal" text-decoration="none" x="141" y="202.5">+getCurPlayer(): void</text></g></g><g transform="translate(-126,-110) scale(1,1)"><g><path fill="none" stroke="none"/><text fill="#000000" stroke="none" font-family="Arial" font-size="13px" font-style="normal" font-weight="normal" text-decoration="none" x="141" y="217.5">+addCard(): void</text></g></g><g transform="translate(-126,-110) scale(1,1)"><rect fill="#C0C0C0" stroke="none" x="143" y="247" width="156.0498046875" height="117" opacity="0.2"/></g><g transform="translate(-126,-110) scale(1,1)"><rect fill="#ffffff" stroke="none" x="136" y="240" width="156.0498046875" height="117"/></g><g transform="translate(-126,-110) scale(1,1)"><path fill="none" stroke="#000000" d="M 136 240 L 292.0498046875 240 L 292.0498046875 357 L 136 357 L 136 240 Z Z" stroke-miterlimit="10"/></g><g transform="translate(-126,-110) scale(1,1)"><path fill="none" stroke="#000000" d="M 136 265 L 292.0498046875 265" stroke-miterlimit="10"/></g><g transform="translate(-126,-110) scale(1,1)"><path fill="none" stroke="#000000" d="M 136 275 L 292.0498046875 275" stroke-miterlimit="10"/></g><g transform="translate(-126,-110) scale(1,1)"><g><path fill="none" stroke="none"/><text fill="#000000" stroke="none" font-family="Arial" font-size="13px" font-style="normal" font-weight="bold" text-decoration="none" x="207.52490234375" y="259.5">UI</text></g></g><g transform="translate(-126,-110) scale(1,1)"><g><path fill="none" stroke="none"/><text fill="#000000" stroke="none" font-family="Arial" font-size="13px" font-style="normal" font-weight="normal" text-decoration="none" x="141" y="292.5">«constructor»+UI()</text></g></g><g transform="translate(-126,-110) scale(1,1)"><g><path fill="none" stroke="none"/><text fill="#000000" stroke="none" font-family="Arial" font-size="13px" font-style="normal" font-weight="normal" text-decoration="none" x="141" y="307.5">+showCards(): void</text></g></g><g transform="translate(-126,-110) scale(1,1)"><g><path fill="none" stroke="none"/><text fill="#000000" stroke="none" font-family="Arial" font-size="13px" font-style="normal" font-weight="normal" text-decoration="none" x="141" y="322.5">+showBackground(): void</text></g></g><g transform="translate(-126,-110) scale(1,1)"><g><path fill="none" stroke="none"/><text fill="#000000" stroke="none" font-family="Arial" font-size="13px" font-style="normal" font-weight="normal" text-decoration="none" x="141" y="337.5">+showButton(): void</text></g></g><g transform="translate(-126,-110) scale(1,1)"><g><path fill="none" stroke="none"/><text fill="#000000" stroke="none" font-family="Arial" font-size="13px" font-style="normal" font-weight="normal" text-decoration="none" x="141" y="352.5">+showHints(): void</text></g></g><g transform="translate(-126,-110) scale(1,1)"><rect fill="#C0C0C0" stroke="none" x="319" y="319" width="48.03173828125" height="44" opacity="0.2"/></g><g transform="translate(-126,-110) scale(1,1)"><rect fill="#ffffff" stroke="none" x="312" y="312" width="48.03173828125" height="44"/></g><g transform="translate(-126,-110) scale(1,1)"><path fill="none" stroke="#000000" d="M 312 312 L 360.03173828125 312 L 360.03173828125 356 L 312 356 L 312 312 Z Z" stroke-miterlimit="10"/></g><g transform="translate(-126,-110) scale(1,1)"><path fill="none" stroke="#000000" d="M 312 337 L 360.03173828125 337" stroke-miterlimit="10"/></g><g transform="translate(-126,-110) scale(1,1)"><path fill="none" stroke="#000000" d="M 312 347 L 360.03173828125 347" stroke-miterlimit="10"/></g><g transform="translate(-126,-110) scale(1,1)"><g><path fill="none" stroke="none"/><text fill="#000000" stroke="none" font-family="Arial" font-size="13px" font-style="normal" font-weight="bold" text-decoration="none" x="317.591796875" y="331.5">Player</text></g></g><g transform="translate(-126,-110) scale(1,1)"><rect fill="#C0C0C0" stroke="none" x="311" y="127" width="79.07177734375" height="57" opacity="0.2"/></g><g transform="translate(-126,-110) scale(1,1)"><rect fill="#ffffff" stroke="none" x="304" y="120" width="79.07177734375" height="57"/></g><g transform="translate(-126,-110) scale(1,1)"><path fill="none" stroke="#000000" d="M 304 120 L 383.07177734375 120 L 383.07177734375 177 L 304 177 L 304 120 Z Z" stroke-miterlimit="10"/></g><g transform="translate(-126,-110) scale(1,1)"><path fill="none" stroke="#000000" d="M 304 158 L 383.07177734375 158" stroke-miterlimit="10"/></g><g transform="translate(-126,-110) scale(1,1)"><path fill="none" stroke="#000000" d="M 304 168 L 383.07177734375 168" stroke-miterlimit="10"/></g><g transform="translate(-126,-110) scale(1,1)"><g><path fill="none" stroke="none"/><text fill="#000000" stroke="none" font-family="Arial" font-size="13px" font-style="normal" font-weight="normal" text-decoration="none" x="311.37548828125" y="137.5">«interface»</text></g></g><g transform="translate(-126,-110) scale(1,1)"><g><path fill="none" stroke="none"/><text fill="#000000" stroke="none" font-family="Arial" font-size="13px" font-style="normal" font-weight="bold" text-decoration="none" x="311.023193359375" y="152.5">showCards</text></g></g><g transform="translate(-126,-110) scale(1,1)"><path fill="none" stroke="#000000" d="M 423 279 L 361 318" stroke-miterlimit="10"/></g><g transform="translate(-126,-110) scale(1,1)"><path fill="#FFFFFF" stroke="none" d="M 373.7218859452305 300.05136166734235 L 361 318 L 382.68733569944135 314.3041279432673"/></g><g transform="translate(-126,-110) scale(1,1)"><path fill="none" stroke="#000000" d="M 373.7218859452305 300.05136166734235 L 361 318 L 382.68733569944135 314.3041279432673 L 373.7218859452305 300.05136166734235" stroke-miterlimit="10"/></g><g transform="translate(-126,-110) scale(1,1)"><path fill="none" stroke="#000000" d="M 423 192 L 384 171" stroke-miterlimit="10" stroke-dasharray="3"/></g><g transform="translate(-126,-110) scale(1,1)"><path fill="#FFFFFF" stroke="none" d="M 405.88734626646743 173.22352724556143 L 384 171 L 397.9044197737077 188.0489621606867"/></g><g transform="translate(-126,-110) scale(1,1)"><path fill="none" stroke="#000000" d="M 405.88734626646743 173.22352724556143 L 384 171 L 397.9044197737077 188.0489621606867 L 405.88734626646743 173.22352724556143" stroke-miterlimit="10"/></g><g transform="translate(-126,-110) scale(1,1)"><path fill="none" stroke="#000000" d="M 423 192 L 384 171" stroke-miterlimit="10" stroke-dasharray="3"/></g><g transform="translate(-126,-110) scale(1,1)"><path fill="#FFFFFF" stroke="none" d="M 405.88734626646743 173.22352724556143 L 384 171 L 397.9044197737077 188.0489621606867"/></g><g transform="translate(-126,-110) scale(1,1)"><path fill="none" stroke="#000000" d="M 405.88734626646743 173.22352724556143 L 384 171 L 397.9044197737077 188.0489621606867 L 405.88734626646743 173.22352724556143" stroke-miterlimit="10"/></g></g></svg>