<?xml version="1.0" encoding="utf-8"?>
<svg version="1.1" xmlns:xlink="http://www.w3.org/1999/xlink" width="9px" height="9px" xmlns="http://www.w3.org/2000/svg">
  <defs>
    <mask fill="white" id="clip15">
      <path d="M 0 4.5  C 0 6.9852813741  2.0147186259 9  4.5 9  C 6.9852813741 9  9 6.9852813741  9 4.5  C 9 2.0147186259  6.9852813741 0  4.5 0  C 2.0147186259 0  0 2.0147186259  0 4.5  Z " fill-rule="evenodd" />
    </mask>
  </defs>
  <g transform="matrix(1 0 0 1 -353 -494 )">
    <path d="M 0 4.5  C 0 6.9852813741  2.0147186259 9  4.5 9  C 6.9852813741 9  9 6.9852813741  9 4.5  C 9 2.0147186259  6.9852813741 0  4.5 0  C 2.0147186259 0  0 2.0147186259  0 4.5  Z " fill-rule="nonzero" fill="#5b8ff9" stroke="none" transform="matrix(1 0 0 1 353 494 )" />
    <path d="M 0 4.5  C 0 6.9852813741  2.0147186259 9  4.5 9  C 6.9852813741 9  9 6.9852813741  9 4.5  C 9 2.0147186259  6.9852813741 0  4.5 0  C 2.0147186259 0  0 2.0147186259  0 4.5  Z " stroke-width="2" stroke="#ffffff" fill="none" stroke-opacity="0.850980392156863" transform="matrix(1 0 0 1 353 494 )" mask="url(#clip15)" />
  </g>
</svg>