<?xml version="1.0" encoding="utf-8"?>
<svg version="1.1" xmlns:xlink="http://www.w3.org/1999/xlink" width="235px" height="155px" xmlns="http://www.w3.org/2000/svg">
  <defs>
    <mask fill="white" id="clip11">
      <path d="M 0 153.571428571429  L 0 29.1694352159462  L 0 1.42857142857143  C 0 0.628571428571425  0.786311787072341 0  1.78707224334601 0  L 233.212927756654 0  C 234.213688212928 0  235 0.628571428571425  235 1.42857142857143  L 235 153.571428571429  C 235 154.371428571429  234.213688212928 155  233.212927756654 155  L 1.78707224334601 155  C 0.786311787072341 155  0 154.371428571429  0 153.571428571429  Z " fill-rule="evenodd" />
    </mask>
  </defs>
  <g transform="matrix(1 0 0 1 -510 -95 )">
    <path d="M 0 153.571428571429  L 0 29.1694352159462  L 0 1.42857142857143  C 0 0.628571428571425  0.786311787072341 0  1.78707224334601 0  L 233.212927756654 0  C 234.213688212928 0  235 0.628571428571425  235 1.42857142857143  L 235 153.571428571429  C 235 154.371428571429  234.213688212928 155  233.212927756654 155  L 1.78707224334601 155  C 0.786311787072341 155  0 154.371428571429  0 153.571428571429  Z " fill-rule="nonzero" fill="#ffffff" stroke="none" transform="matrix(1 0 0 1 510 95 )" />
    <path d="M 0 153.571428571429  L 0 29.1694352159462  L 0 1.42857142857143  C 0 0.628571428571425  0.786311787072341 0  1.78707224334601 0  L 233.212927756654 0  C 234.213688212928 0  235 0.628571428571425  235 1.42857142857143  L 235 153.571428571429  C 235 154.371428571429  234.213688212928 155  233.212927756654 155  L 1.78707224334601 155  C 0.786311787072341 155  0 154.371428571429  0 153.571428571429  Z " stroke-width="2" stroke="#d7d7d7" fill="none" transform="matrix(1 0 0 1 510 95 )" mask="url(#clip11)" />
  </g>
</svg>