<?xml version="1.0" encoding="utf-8"?>
<svg version="1.1" xmlns:xlink="http://www.w3.org/1999/xlink" width="12px" height="12px" viewBox="201 311  12 12" xmlns="http://www.w3.org/2000/svg">
  <path d="M 207 311  C 210.36 311  213 313.64  213 317  C 213 320.36  210.36 323  207 323  C 203.64 323  201 320.36  201 317  C 201 313.64  203.64 311  207 311  Z " fill-rule="nonzero" fill="#f0f0f0" stroke="none" />
  <path d="M 207 311.5  C 210.08 311.5  212.5 313.92  212.5 317  C 212.5 320.08  210.08 322.5  207 322.5  C 203.92 322.5  201.5 320.08  201.5 317  C 201.5 313.92  203.92 311.5  207 311.5  Z " stroke-width="1" stroke="#797979" fill="none" />
  <path d="M 207 320  C 205.32 320  204 318.68  204 317  C 204 315.32  205.32 314  207 314  C 208.68 314  210 315.32  210 317  C 210 318.68  208.68 320  207 320  " fill-rule="nonzero" fill="#797979" stroke="none" />
</svg>