<?xml version="1.0" encoding="utf-8"?>
<svg version="1.1" xmlns:xlink="http://www.w3.org/1999/xlink" width="12px" height="12px" viewBox="240 289  12 12" xmlns="http://www.w3.org/2000/svg">
  <path d="M 246 289  C 249.36 289  252 291.64  252 295  C 252 298.36  249.36 301  246 301  C 242.64 301  240 298.36  240 295  C 240 291.64  242.64 289  246 289  Z " fill-rule="nonzero" fill="#f0f0f0" stroke="none" />
  <path d="M 246 289.5  C 249.08 289.5  251.5 291.92  251.5 295  C 251.5 298.08  249.08 300.5  246 300.5  C 242.92 300.5  240.5 298.08  240.5 295  C 240.5 291.92  242.92 289.5  246 289.5  Z " stroke-width="1" stroke="#797979" fill="none" />
  <path d="M 246 298  C 244.32 298  243 296.68  243 295  C 243 293.32  244.32 292  246 292  C 247.68 292  249 293.32  249 295  C 249 296.68  247.68 298  246 298  " fill-rule="nonzero" fill="#797979" stroke="none" />
</svg>